<?xml version="1.0" encoding="UTF-8"?>
<svg width="144px" height="36px" viewBox="0 0 144 36" version="1.1" xmlns="http://www.w3.org/2000/svg" xmlns:xlink="http://www.w3.org/1999/xlink">
    <!-- Generator: Sketch 48.2 (47327) - http://www.bohemiancoding.com/sketch -->
    <title>Logo</title>
    <desc>Created with Sketch.</desc>
    <defs>
        <polygon id="path-1" points="0 36 143.63118 36 143.63118 0 0 0"></polygon>
    </defs>
    <g id="Template-Wireframes" stroke="none" stroke-width="1" fill="none" fill-rule="evenodd">
        <g id="Logo">
            <g id="Full-Logo/Gold">
                <g>
                    <path d="M47.451096,13.332132 L49.874436,13.332132 C50.817636,13.332132 51.224076,12.867732 51.224076,12.171312 C51.224076,11.474712 50.759676,11.068272 49.889016,11.068272 L47.451096,11.068272 L47.451096,13.332132 Z M47.451096,7.295472 L47.451096,9.268992 L49.598856,9.268992 C50.527476,9.268992 50.875596,8.862552 50.875596,8.238672 C50.875596,7.701732 50.527476,7.295472 49.656636,7.295472 L47.451096,7.295472 Z M53.951976,12.345372 C53.951976,14.043132 52.747416,15.305472 50.469336,15.305472 L44.781156,15.305472 L44.781156,5.321952 L50.178996,5.321952 C52.457256,5.321952 53.545716,6.294312 53.545716,7.933932 C53.545716,8.877132 53.081316,9.689832 51.978276,9.965412 L51.978276,10.023552 C53.240976,10.241352 53.951976,11.184372 53.951976,12.345372 Z" id="Fill-1" fill="#F59E50"></path>
                    <path d="M58.189572,15.479568 C59.118192,15.479568 59.930712,15.073308 60.337332,14.318748 L60.395112,14.318748 L60.395112,15.305508 L62.833032,15.305508 L62.833032,8.224128 L60.279012,8.224128 L60.279012,11.996928 C60.279012,13.041828 59.756652,13.622148 59.002092,13.622148 C58.363632,13.622148 57.899232,13.274028 57.899232,12.229128 L57.899232,8.224128 L55.345212,8.224128 L55.345212,12.505068 C55.345212,14.725188 56.680272,15.479568 58.189572,15.479568" id="Fill-3" fill="#F59E50"></path>
                    <path d="M67.2444,12.24378 C67.2444,11.0394 67.75236,10.25568 68.81184,10.25568 C69.08742,10.25568 69.36318,10.32822 69.6825,10.48788 L70.03062,8.34012 C69.66774,8.09352 69.3342,8.04996 69.04404,8.04996 C68.1444,8.04996 67.52034,8.55792 67.17222,9.26892 L67.1283,9.26892 L67.1283,8.2242 L64.69056,8.2242 L64.69056,15.30558 L67.2444,15.30558 L67.2444,12.24378 Z" id="Fill-5" fill="#F59E50"></path>
                    <mask id="mask-2" fill="white">
                        <use xlink:href="#path-1"></use>
                    </mask>
                    <g id="Clip-8"></g>
                    <polygon id="Fill-7" fill="#F59E50" mask="url(#mask-2)" points="71.01756 15.30558 73.5714 15.30558 73.5714 4.68342 71.01756 4.68342"></polygon>
                    <polygon id="Fill-9" fill="#F59E50" mask="url(#mask-2)" points="75.37104 6.77304 78.0408 6.77304 78.0408 4.68342 75.37104 4.68342"></polygon>
                    <polygon id="Fill-10" fill="#F59E50" mask="url(#mask-2)" points="75.429 15.30558 77.98284 15.30558 77.98284 8.2242 75.429 8.2242"></polygon>
                    <path d="M84.48363,8.049906 C83.55501,8.049906 82.74249,8.456346 82.33623,9.210726 L82.27809,9.210726 L82.27809,8.224146 L79.84017,8.224146 L79.84017,15.305526 L82.39437,15.305526 L82.39437,11.532546 C82.39437,10.487826 82.91655,9.907326 83.67111,9.907326 C84.30957,9.907326 84.77397,10.255626 84.77397,11.300346 L84.77397,15.305526 L87.32799,15.305526 L87.32799,11.024766 C87.32799,8.804466 85.99293,8.049906 84.48363,8.049906" id="Fill-11" fill="#F59E50" mask="url(#mask-2)"></path>
                    <path d="M92.72637,13.68027 C91.79757,13.68027 91.33335,12.92571 91.33335,11.82285 C91.33335,10.72017 91.79757,9.84951 92.72637,9.84951 C93.65499,9.84951 94.17753,10.66203 94.17753,11.76471 C94.17753,12.86775 93.65499,13.68027 92.72637,13.68027 Z M94.29363,9.15291 L94.23567,9.15291 C93.88737,8.51427 93.19059,8.04987 92.08791,8.04987 C90.23049,8.04987 88.72137,9.38511 88.72137,11.82285 C88.72137,14.26095 90.23049,15.47955 91.97199,15.47955 C93.19059,15.47955 93.88737,15.01533 94.23567,14.37687 L94.29363,14.37687 L94.29363,14.89923 C94.29363,16.29225 93.94515,16.98885 92.66859,16.98885 C91.85571,16.98885 91.39131,16.64055 91.33335,16.17615 L88.95357,16.17615 C89.06967,17.88849 90.40455,18.61407 92.66859,18.61407 C95.36751,18.61407 96.73137,17.52579 96.73137,14.89923 L96.73137,8.22411 L94.29363,8.22411 L94.29363,9.15291 Z" id="Fill-12" fill="#F59E50" mask="url(#mask-2)"></path>
                    <path d="M101.941164,15.305544 L103.174524,15.305544 L103.174524,13.332204 L102.536064,13.332204 C101.723544,13.332204 101.549484,13.041864 101.549484,12.287124 L101.549484,10.023624 L103.174524,10.023624 L103.174524,8.224164 L101.549484,8.224164 L101.549484,6.076584 L98.995284,6.076584 L98.995284,8.224164 L97.660404,8.224164 L97.660404,10.023624 L98.995284,10.023624 L98.995284,12.461364 C98.995284,14.667084 99.575784,15.305544 101.941164,15.305544" id="Fill-13" fill="#F59E50" mask="url(#mask-2)"></path>
                    <path d="M108.282654,9.863874 C109.182294,9.863874 109.733634,10.546074 109.733634,11.764854 C109.733634,12.983814 109.182294,13.680234 108.282654,13.680234 C107.383014,13.680234 106.831494,12.983814 106.831494,11.764854 C106.831494,10.546074 107.383014,9.863874 108.282654,9.863874 M108.282654,15.479514 C110.604294,15.479514 112.345614,14.144634 112.345614,11.764854 C112.345614,9.327114 110.662434,8.049834 108.282654,8.049834 C105.961014,8.049834 104.219514,9.385074 104.219514,11.764854 C104.219514,14.202774 105.902694,15.479514 108.282654,15.479514" id="Fill-14" fill="#F59E50" mask="url(#mask-2)"></path>
                    <path d="M118.730916,11.300364 L118.730916,15.305544 L121.284756,15.305544 L121.284756,11.024784 C121.284756,8.804484 119.949876,8.049924 118.440576,8.049924 C117.511956,8.049924 116.699436,8.456364 116.292816,9.210744 L116.235036,9.210744 L116.235036,8.224164 L113.797116,8.224164 L113.797116,15.305544 L116.350956,15.305544 L116.350956,11.532564 C116.350956,10.487844 116.873496,9.907344 117.628056,9.907344 C118.266516,9.907344 118.730916,10.255644 118.730916,11.300364" id="Fill-15" fill="#F59E50" mask="url(#mask-2)"></path>
                    <path d="M50.061438,22.106952 C51.222258,22.106952 51.860718,22.629312 52.034778,23.209812 L54.646938,23.209812 C54.400158,21.381552 52.731378,19.901412 50.061438,19.901412 C46.752858,19.901412 44.721378,22.048992 44.721378,25.067412 C44.721378,27.984132 46.593018,30.233232 49.829238,30.233232 C51.164298,30.233232 52.063938,29.812572 52.673238,29.159352 L52.731378,29.159352 L52.905618,30.058992 L54.588618,30.058992 L54.588618,24.544872 L50.061438,24.544872 L50.061438,26.402292 L52.310358,26.402292 C52.194618,27.432612 51.294978,28.027512 50.061438,28.027512 C48.436218,28.027512 47.449278,26.924832 47.449278,25.067412 C47.449278,23.209812 48.493998,22.106952 50.061438,22.106952" id="Fill-16" fill="#F59E50" mask="url(#mask-2)"></path>
                    <path d="M60.857748,27.331002 C60.857748,28.259802 60.117948,28.607922 59.464728,28.607922 C58.971528,28.607922 58.652208,28.404702 58.652208,27.911322 C58.652208,27.563202 58.884408,27.287622 59.406768,27.214722 L60.219288,27.098802 C60.509628,27.055422 60.727428,26.953902 60.857748,26.765082 L60.857748,27.331002 Z M59.871348,22.803462 C58.144428,22.803462 56.562768,23.500062 56.388528,25.357482 L58.768488,25.357482 C58.826268,24.748002 59.188968,24.428682 59.871348,24.428682 C60.567768,24.428682 60.857748,24.835122 60.857748,25.241382 C60.857748,25.662222 60.683688,25.792902 59.987088,25.879842 L58.652208,26.053902 C56.925288,26.286102 56.156328,26.982522 56.156328,28.201662 C56.156328,29.391642 56.910888,30.233142 58.594068,30.233142 C59.755068,30.233142 60.494868,29.812482 60.915888,29.217402 L60.974028,29.217402 L60.974028,30.059082 L63.411948,30.059082 L63.411948,25.357482 C63.411948,23.616162 62.250768,22.803462 59.871348,22.803462 Z" id="Fill-17" fill="#F59E50" mask="url(#mask-2)"></path>
                    <path d="M74.672748,22.80348 C73.845468,22.80348 72.844308,23.07924 72.263988,24.13854 C71.813988,23.16618 70.899768,22.80348 69.855048,22.80348 C68.926248,22.80348 68.113728,23.20992 67.707468,23.9643 L67.649148,23.9643 L67.649148,22.97772 L65.211408,22.97772 L65.211408,30.0591 L67.765428,30.0591 L67.765428,26.19918 C67.765428,25.15428 68.302188,24.6609 68.984388,24.6609 C69.564708,24.6609 70.029108,24.95124 70.029108,25.99596 L70.029108,30.0591 L72.583128,30.0591 L72.583128,26.1846 C72.583128,25.15428 73.119888,24.6609 73.802088,24.6609 C74.382768,24.6609 74.846988,24.95124 74.846988,25.99596 L74.846988,30.0591 L77.400648,30.0591 L77.400648,25.77834 C77.400648,23.55804 76.182048,22.80348 74.672748,22.80348" id="Fill-18" fill="#F59E50" mask="url(#mask-2)"></path>
                    <path d="M81.362628,25.647714 C81.537048,24.835194 81.986688,24.428754 82.741248,24.428754 C83.495988,24.428754 83.873268,24.835194 84.003768,25.647714 L81.362628,25.647714 Z M82.741248,22.803534 C80.303508,22.803534 78.736068,24.196554 78.736068,26.576334 C78.736068,29.072214 80.245368,30.233214 82.741248,30.233214 C84.917988,30.233214 86.267448,29.174094 86.514228,27.911394 L84.076488,27.911394 C83.931228,28.143594 83.612088,28.550034 82.799208,28.550034 C81.943308,28.550034 81.435348,28.071054 81.319248,27.040734 L86.630328,27.040734 L86.630328,26.518194 C86.630328,24.109614 85.179168,22.803534 82.741248,22.803534 Z" id="Fill-19" fill="#F59E50" mask="url(#mask-2)"></path>
                    <path d="M92.435094,25.633296 L91.216134,25.459236 C90.418194,25.342956 90.229554,25.183296 90.229554,24.835176 C90.229554,24.559236 90.577674,24.312816 91.245474,24.312816 C91.782054,24.312816 92.377314,24.428736 92.377314,24.951096 L94.698954,24.951096 C94.698954,23.558076 93.363714,22.803516 91.274274,22.803516 C89.228394,22.803516 87.791454,23.616216 87.791454,25.241436 C87.791454,26.518356 88.647714,27.098856 90.171414,27.331056 L91.390374,27.505116 C92.043234,27.592236 92.377314,27.708156 92.377314,28.143576 C92.377314,28.535436 91.912914,28.724076 91.158174,28.724076 C90.563274,28.724076 89.939214,28.607796 89.939214,28.027476 L87.559434,28.027476 C87.559434,29.594736 89.053974,30.233196 91.158174,30.233196 C93.320334,30.233196 94.930974,29.478636 94.930974,27.737316 C94.930974,26.271756 93.683214,25.821756 92.435094,25.633296" id="Fill-20" fill="#F59E50" mask="url(#mask-2)"></path>
                    <path d="M104.566464,22.106952 C105.727284,22.106952 106.365924,22.629312 106.539984,23.209812 L109.152144,23.209812 C108.905184,21.381552 107.236584,19.901412 104.566464,19.901412 C101.258064,19.901412 99.226404,22.048992 99.226404,25.067412 C99.226404,27.984132 101.098404,30.233232 104.334264,30.233232 C105.669144,30.233232 106.569144,29.812572 107.178444,29.159352 L107.236584,29.159352 L107.410644,30.058992 L109.094004,30.058992 L109.094004,24.544872 L104.566464,24.544872 L104.566464,26.402292 L106.815744,26.402292 C106.699464,27.432612 105.800184,28.027512 104.566464,28.027512 C102.941244,28.027512 101.954304,26.924832 101.954304,25.067412 C101.954304,23.209812 102.999204,22.106952 104.566464,22.106952" id="Fill-21" fill="#F59E50" mask="url(#mask-2)"></path>
                    <path d="M113.491224,24.02244 L113.447484,24.02244 L113.447484,22.97772 L111.009744,22.97772 L111.009744,30.0591 L113.563584,30.0591 L113.563584,26.9973 C113.563584,25.79292 114.071544,25.0092 115.130844,25.0092 C115.406604,25.0092 115.682364,25.08174 116.001684,25.2414 L116.349804,23.09364 C115.986924,22.84722 115.653384,22.80348 115.362864,22.80348 C114.463224,22.80348 113.839704,23.31144 113.491224,24.02244" id="Fill-22" fill="#F59E50" mask="url(#mask-2)"></path>
                    <path d="M120.87738,28.433844 C119.97774,28.433844 119.4264,27.737244 119.4264,26.518284 C119.4264,25.299504 119.97774,24.617304 120.87738,24.617304 C121.77702,24.617304 122.32872,25.299504 122.32872,26.518284 C122.32872,27.737244 121.77702,28.433844 120.87738,28.433844 M120.87738,22.803444 C118.55574,22.803444 116.81442,24.138684 116.81442,26.518284 C116.81442,28.956204 118.49778,30.233124 120.87738,30.233124 C123.19902,30.233124 124.94052,28.898244 124.94052,26.518284 C124.94052,24.080544 123.25734,22.803444 120.87738,22.803444" id="Fill-23" fill="#F59E50" mask="url(#mask-2)"></path>
                    <path d="M131.209632,26.750484 C131.209632,27.795384 130.687272,28.375704 129.932532,28.375704 C129.294072,28.375704 128.829672,28.027584 128.829672,26.982684 L128.829672,22.977864 L126.275832,22.977864 L126.275832,27.258444 C126.275832,29.478744 127.610892,30.233124 129.120192,30.233124 C130.048812,30.233124 130.861152,29.826864 131.267772,29.072124 L131.325732,29.072124 L131.325732,30.059064 L133.763472,30.059064 L133.763472,22.977864 L131.209632,22.977864 L131.209632,26.750484 Z" id="Fill-24" fill="#F59E50" mask="url(#mask-2)"></path>
                    <path d="M139.626216,28.433844 C138.697416,28.433844 138.174876,27.621324 138.174876,26.518284 L138.174876,26.445744 C138.204396,25.386444 138.712176,24.602904 139.626216,24.602904 C140.554836,24.602904 141.019236,25.357464 141.019236,26.460504 C141.019236,27.563184 140.554836,28.433844 139.626216,28.433844 M140.380776,22.803444 C139.161816,22.803444 138.465216,23.267844 138.117096,23.906484 L138.058956,23.906484 L138.058956,22.977684 L135.621216,22.977684 L135.621216,33.251364 L138.174876,33.251364 L138.174876,31.524624 C138.174876,31.045824 138.174876,30.059064 138.058956,29.130444 L138.117096,29.130444 C138.465216,29.768724 139.161816,30.233124 140.264856,30.233124 C142.122096,30.233124 143.631216,28.898244 143.631216,26.460504 C143.631216,24.022404 142.122096,22.803444 140.380776,22.803444" id="Fill-25" fill="#F59E50" mask="url(#mask-2)"></path>
                    <path d="M35.02863,15.575364 L33.11703,17.486964 L29.05227,13.422204 L29.05227,8.401644 L35.02863,14.378184 C35.35857,14.708124 35.35857,15.245244 35.02863,15.575364 Z M35.02863,20.424564 C35.35857,20.754684 35.35857,21.291804 35.02863,21.621924 L29.05227,27.598284 L29.05227,22.577724 L33.11703,18.512964 L35.02863,20.424564 Z M28.32669,31.755204 C28.32669,32.221764 27.94671,32.601564 27.47997,32.601564 L25.07481,32.601564 L28.32669,29.349864 L28.32669,31.755204 Z M21.62241,35.027964 C21.30489,35.345664 20.74347,35.346024 20.42523,35.027964 L18.72459,33.327324 L23.32323,33.327324 L21.62241,35.027964 Z M15.57603,35.027964 C15.25815,35.345664 14.69673,35.346024 14.37867,35.027964 L12.67803,33.327324 L17.27667,33.327324 L15.57603,35.027964 Z M8.52111,32.601564 C8.05455,32.601564 7.67457,32.221764 7.67457,31.755204 L7.67457,29.349864 L10.92645,32.601564 L8.52111,32.601564 Z M0.97281,21.621924 C0.64287,21.291804 0.64287,20.754684 0.97281,20.424564 L2.88441,18.512964 L6.94917,22.577724 L6.94917,27.598284 L0.97281,21.621924 Z M0.97281,15.575364 C0.64287,15.245244 0.64287,14.708124 0.97281,14.378184 L6.94917,8.401644 L6.94917,13.422204 L2.88441,17.486964 L0.97281,15.575364 Z M7.67457,4.244904 C7.67457,3.778164 8.05455,3.398364 8.52111,3.398364 L10.92645,3.398364 L7.67457,6.650244 L7.67457,4.244904 Z M14.37867,0.972144 C14.69691,0.654084 15.25833,0.654444 15.57603,0.972144 L17.27667,2.672784 L12.67803,2.672784 L14.37867,0.972144 Z M20.42523,0.972144 C20.58417,0.813024 20.79693,0.725544 21.02373,0.725544 C21.25107,0.725544 21.46365,0.813024 21.62241,0.972144 L23.32323,2.672784 L18.72459,2.672784 L20.42523,0.972144 Z M19.02825,3.398364 L24.04881,3.398364 L28.32669,7.676064 L28.32669,12.696624 L19.02825,3.398364 Z M7.67457,12.696624 L7.67457,7.676064 L11.95245,3.398364 L16.97283,3.398364 L7.67457,12.696624 Z M6.94917,21.551724 L3.39741,17.999964 L6.94917,14.448204 L6.94917,21.551724 Z M16.97283,32.601564 L11.95245,32.601564 L7.67457,28.323864 L7.67457,23.303304 L16.97283,32.601564 Z M28.32669,23.303304 L28.32669,28.323864 L24.04881,32.601564 L19.02825,32.601564 L28.32669,23.303304 Z M29.05227,14.448204 L32.60385,17.999964 L29.05227,21.551724 L29.05227,14.448204 Z M28.32669,22.277304 L18.00225,32.601564 L17.99901,32.601564 L7.67457,22.277304 L7.67457,13.722624 L17.99901,3.398364 L18.00225,3.398364 L28.32669,13.722624 L28.32669,22.277304 Z M27.47997,3.398364 C27.94671,3.398364 28.32669,3.778164 28.32669,4.244904 L28.32669,6.650244 L25.07481,3.398364 L27.47997,3.398364 Z M35.54163,13.865184 L29.05227,7.375644 L29.05227,4.244904 C29.05227,3.378024 28.34703,2.672784 27.47997,2.672784 L24.34923,2.672784 L22.13559,0.459144 C21.83967,0.162864 21.44493,-3.6e-05 21.02373,-3.6e-05 C20.60289,-3.6e-05 20.20815,0.162864 19.91241,0.459144 L18.00063,2.370744 L16.08903,0.459144 C15.79311,0.162864 15.39837,-3.6e-05 14.97735,-3.6e-05 C14.55651,-3.6e-05 14.16159,0.162864 13.86585,0.459144 L11.65203,2.672784 L8.52111,2.672784 C7.65441,2.672784 6.94917,3.378024 6.94917,4.244904 L6.94917,7.375644 L0.45963,13.865184 C-0.15327,14.478084 -0.15327,15.475464 0.45963,16.088364 L2.37123,17.999964 L0.45963,19.911564 C-0.15327,20.524644 -0.15327,21.522024 0.45963,22.134924 L6.94917,28.624284 L6.94917,31.755204 C6.94917,32.622084 7.65441,33.327324 8.52111,33.327324 L11.65203,33.327324 L13.86585,35.540964 C14.16159,35.837064 14.55651,35.999964 14.97735,35.999964 C15.39837,35.999964 15.79311,35.837064 16.08903,35.540964 L18.00063,33.629364 L19.91241,35.540964 C20.20815,35.837064 20.60289,35.999964 21.02373,35.999964 C21.44493,35.999964 21.83967,35.837064 22.13559,35.540964 L24.34923,33.327324 L27.47997,33.327324 C28.34703,33.327324 29.05227,32.622084 29.05227,31.755204 L29.05227,28.624284 L35.54163,22.134924 C36.15453,21.522024 36.15453,20.524644 35.54163,19.911564 L33.62985,17.999964 L35.54163,16.088364 C36.15453,15.475464 36.15453,14.478084 35.54163,13.865184 Z" id="Fill-26" fill="#F59E50" mask="url(#mask-2)"></path>
                    <path d="M20.333844,15.924906 C20.333844,16.548966 19.985724,16.955226 19.056924,16.955226 L16.909164,16.955226 L16.909164,14.981886 L19.114884,14.981886 C19.985724,14.981886 20.333844,15.388146 20.333844,15.924906 Z M20.682144,19.857546 C20.682144,20.554146 20.275884,21.018366 19.332504,21.018366 L16.909164,21.018366 L16.909164,18.754506 L19.347084,18.754506 C20.217564,18.754506 20.682144,19.161126 20.682144,19.857546 Z M14.239224,13.008186 L14.239224,22.991886 L19.927584,22.991886 C22.205664,22.991886 23.410044,21.729366 23.410044,20.031606 C23.410044,18.870786 22.699224,17.927586 21.436704,17.709966 L21.436704,17.651826 C22.539384,17.376066 23.003784,16.563366 23.003784,15.620346 C23.003784,13.980546 21.915324,13.008186 19.637064,13.008186 L14.239224,13.008186 Z" id="Fill-27" fill="#F59E50" mask="url(#mask-2)"></path>
                </g>
            </g>
        </g>
    </g>
</svg>