<?xml version="1.0" encoding="UTF-8"?>
<svg width="56px" height="12px" viewBox="0 0 56 12" version="1.1" xmlns="http://www.w3.org/2000/svg" xmlns:xlink="http://www.w3.org/1999/xlink">
    <!-- Generator: Sketch 49.2 (51160) - http://www.bohemiancoding.com/sketch -->
    <title>Logo / Black</title>
    <desc>Created with Sketch.</desc>
    <defs></defs>
    <g id="Desktop" stroke="none" stroke-width="1" fill="none" fill-rule="evenodd">
        <g transform="translate(-30.000000, -30.000000)" fill="#0B171E" id="Navigation">
            <g transform="translate(30.000000, 27.000000)">
                <g id="Logo-/-Black" transform="translate(0.000000, 3.000000)">
                    <g>
                        <path d="M52.6929928,5.877536 C52.6929928,3.820416 51.3626742,2.530656 49.3424088,2.530656 L47.7165712,2.530656 L47.7165712,9.420336 L49.3424088,9.420336 C51.3626742,9.420336 52.6929928,7.934656 52.6929928,5.877536 M55.1401995,5.877536 C55.1401995,9.240816 52.8079973,11.689776 49.4081602,11.689776 L45.3185372,11.689776 L45.3185372,0.261216 L49.4081602,0.261216 C52.8079973,0.261216 55.1401995,2.497936 55.1401995,5.877536" id="Fill-8"></path>
                        <path d="M27.3657956,5.991832 C27.3657956,3.820392 25.8547211,2.367272 23.6867767,2.367272 C21.5023341,2.367272 20.0076773,3.820392 20.0076773,5.991832 C20.0076773,8.163272 21.5023341,9.632632 23.6867767,9.632632 C25.8547211,9.632632 27.3657956,8.163272 27.3657956,5.991832 M29.7965846,5.991832 C29.7965846,9.501992 27.2180361,11.999992 23.6867767,11.999992 C20.1390996,11.999992 17.5605511,9.501992 17.5605511,5.991832 C17.5605511,2.481672 20.1390996,-8e-06 23.6867767,-8e-06 C27.2180361,-8e-06 29.7965846,2.481672 29.7965846,5.991832" id="Fill-2"></path>
                        <path d="M40.9162531,5.991832 C40.9162531,3.820392 39.4052591,2.367272 37.2371537,2.367272 C35.052872,2.367272 33.5581348,3.820392 33.5581348,5.991832 C33.5581348,8.163272 35.052872,9.632632 37.2371537,9.632632 C39.4052591,9.632632 40.9162531,8.163272 40.9162531,5.991832 M43.3470421,5.991832 C43.3470421,9.501992 40.7684131,11.999992 37.2371537,11.999992 C33.6895571,11.999992 31.1110086,9.501992 31.1110086,5.991832 C31.1110086,2.481672 33.6895571,-8e-06 37.2371537,-8e-06 C40.7684131,-8e-06 43.3470421,2.481672 43.3470421,5.991832" id="Fill-5"></path>
                        <polygon id="Fill-1" points="17.2316815 11.689768 9.61079914 11.689768 9.61079914 0.261208 12.0087527 0.261208 12.0087527 9.420328 17.2316815 9.420328"></polygon>
                        <path d="M7.80152565,2.530624 L7.80152565,0.261184 L4.82874252e-05,0.261184 L4.82874252e-05,11.689744 L2.38150362,11.689744 L2.38150362,7.486304 L3.52768613,7.028784 L5.55905763,7.489824 L7.45450002,7.028784 L7.45450002,4.819904 C7.45450002,4.783104 7.41981356,4.755984 7.38383943,4.764784 L5.55905763,5.208624 L3.52768613,4.747584 L2.38150362,5.205104 L2.38150362,2.530624 L7.80152565,2.530624 Z" id="Fill-10"></path>
                    </g>
                </g>
            </g>
        </g>
    </g>
</svg>