<?xml version="1.0" encoding="utf-8"?>
<!-- Generator: Adobe Illustrator 22.0.0, SVG Export Plug-In . SVG Version: 6.00 Build 0)  -->
<svg version="1.1" id="Layer_1" xmlns="http://www.w3.org/2000/svg" xmlns:xlink="http://www.w3.org/1999/xlink" x="0px" y="0px"
	 viewBox="0 0 2880 1920" style="enable-background:new 0 0 2880 1920;" xml:space="preserve">
<style type="text/css">
	.st0{opacity:0.1;clip-path:url(#SVGID_2_);fill:#FFFFFF;}
</style>
<g>
	<defs>
		<rect id="SVGID_1_" x="-1" width="2881" height="1920.7"/>
	</defs>
	<clipPath id="SVGID_2_">
		<use xlink:href="#SVGID_1_"  style="overflow:visible;"/>
	</clipPath>
	<path class="st0" d="M2956.6-54.6c-10.9-3.5-21.9-7-32.3-11.9c-7.1-3.3-13-7.9-17.9-14c-18.5-22.9-40.5-41.6-67.5-53.9
		c-6.8-3.1-12.8-7.1-18.9-11.4c-16.3-11.4-23.5-27.3-23.3-46.9c-5.9,0-11.8,0-17.7,0c-0.4,35.4,19.1,57.5,48.9,72.5
		c12.1,6.1,23.5,13.5,35.3,20.2c1.8,1,3.6,2.3,4.8,3.9c8.4,10.6,18.1,20.1,26.8,30.5c11.9,14.4,5,40-4.9,49.7
		c-2.4,2.4-5.4,3.5-8.5,4.6c-10.2,4-21,5.7-31.6,8.2c-26.7,6.1-54.1,9-80.7,15.4c-37.2,9-72,24.3-103.8,45.8
		c-4.9,3.3-9,7.6-13.2,11.7c-15.4,15.1-31.6,29.1-49.7,41c-2.7,1.8-5.7,3-8.6,4.5c-7.8,3.9-15.4,3.5-22.6-1.4
		c-6.6-4.5-14.4-6.6-20.6-11.9c-8.8-7.5-12.2-17.9-16.5-27.8c-4.7-10.9-10-21.3-17.4-30.6c-3.7-4.6-5.6-10.3-8-15.7
		c-2.7-6.3-6.1-12.1-10.6-17.2c-7.3-8.2-13.4-17.1-18.9-26.6c-10-17.4-20.7-34.2-32.7-50.3c-5.8-7.8-10.4-16.4-15.3-24.8
		c-13.9-23.7-30.4-45.5-48.2-66.4c-9-10.6-18.8-20.3-29.8-28.9c-2.3-1.8-4.8-3.5-5.9-6.4c-10,0-20.1,0-30.1,0
		c14.2,9.6,27,21,39.5,32.6c10.7,10,20.2,21.5,29,33.3c15.4,20.5,28.1,42.8,42.5,63.9c14.6,21.5,26.2,44.7,41.2,65.9
		c3.6,5.1,5.7,10.9,6.9,16.8c-1.8,2.5-4,1.4-5.8,1.2c-10.6-1.4-21.2-1.3-31.8-0.4c-22.1,1.9-44.3,2.4-66.1-1.1
		c-21.5-3.4-43-7.5-63.3-15.7c-12-4.9-22.4-12.9-32.7-20.8c-5.2-3.9-11-6.9-16.2-10.5c-12.3-8.5-25.4-15.7-36.9-25.6
		c-12.5-10.8-24.5-22.1-37.4-32.4c-16.2-12.8-31.6-26.4-47.3-39.8c-6.1-5.2-9.1-11.6-9.6-20c-1-16.5,1.6-32.2,7.6-47.5
		c-6.5,0-13,0-19.5,0c0,0.9,0.3,1.8,0,2.6c-5.9,14.9-5.7,30.5-5.6,46.1c0.1,12.8,5.3,22.9,14.5,31c11.5,10.1,23.4,19.8,35.2,29.5
		c9.5,7.7,17.8,16.3,23.1,27.5c3.8,8.1,3,12.1-4.4,17.3c-4.4,3.1-9,5-14.6,5.7c-39.2,4.9-78.4,9.9-116.6,20
		c-42.4,11.3-84.5,23.6-124.9,41.2c-4.9,2.1-9.8,3.7-15.4,3.4c-9-0.6-15-4.6-17.3-13.5c-1.7-6.6-4.9-12.5-8-18.6
		c-5.6-10.9-14.4-17.1-25.9-19.5c-16.9-3.5-32.1-11.3-47.8-18.1c-15.2-6.6-23.2-19.4-30.8-32.8c-1-1.8-1.3-3.9-1.3-6
		c-0.4-17.5,0.1-34.6,7.3-51.1c5.8-13.2,10.9-26.7,15.5-40.4c2.7-7.9,4.2-15.9,3.8-24.3c-5.9,0-11.8,0-17.7,0
		c1.4,10.1-2.8,19.2-6.1,28.2c-4.6,12.7-10,25.1-15.2,37.6c-3.7,8.8-9.2,16.4-15.3,23.6c-14,16.7-27.3,34-35,54.8
		c-2.2,5.9-6.2,10.7-10.1,15.5c-3.4,4.3-8.5,6.5-13.9,6.8c-10.8,0.7-21.5,0.9-32.4-2c-26.7-7.2-54.1-8.1-81.5-7
		c-15.9,0.6-31.8,1-47.7,1.7c-15.3,0.7-30.6,1.4-45.9,2.5c-21.2,1.5-42.4,1.2-63.4-1.9c-18.2-2.6-36.4-2.2-54.7-1.6
		c-5.9,0.2-11.8,0.4-17.6,0.9c-11.2,0.9-21-3.3-29.9-9.1c-8.1-5.3-13.6-13.1-12.8-23.6c1.3-17.3,3.8-34.5,6.6-51.7
		c1.5-9.2,6.3-16.7,13.5-23.1c15.7-13.8,30.9-28.2,49-38.9c7.6-4.5,15.4-8.6,23.1-12.8c-15.3,0-30.7,0-46,0
		c-7.8,7.9-15.6,15.9-23.5,23.8c-1.6,1.6-3.6,3.1-5.6,4.2c-4.3,2.5-9,4.4-13.2,7.1c-12.3,8-25,4.7-37.3,0.8
		c-7.7-2.4-11.5-9-12.5-16.8c-0.8-6.4-0.9-12.9,1.8-19.1c-17.7,0-35.4,0-53.1,0c-15.6,10.1-31.9,18.8-50.3,22.5
		c-15.2,3-29.5,8.5-43.1,15.6c-23.6,12.4-40,31.7-49.8,56.4c-4.1,10.2-9.5,12.1-19,7.1c-18.5-9.7-33.9-23.4-49.4-37
		c-9.4-8.3-16.8-18.4-15.7-32.2c0.1-1.2,0-2.4-0.3-3.5c-2.4-10.3-0.6-19.9,4.6-28.9c-6.5,0-13,0-19.5,0c-4,9.8-4.8,20-2.7,30.3
		c0.2,0.9,0.4,1.8,0.3,2.6c-0.8,21.7,11.4,36.3,26.7,49.3c4.5,3.8,9.1,7.5,13.4,11.5c6.1,5.7,12.7,10.5,19.9,14.6
		c5.6,3.2,11.6,5.9,15.5,11.4c0.6,0.9,1.7,1.8,2.8,2.1c12.6,3.6,21.1,13.7,31.7,20.6c6.1,4,11.7,9,17.2,13.9
		c6,5.3,11.2,11.3,12.4,19.8c0.8,6.1-0.9,9.5-6.6,11.9c-7.7,3.2-15.9,4.3-24.1,5.1c-4.4,0.4-8.1-1.6-11.4-4.1
		c-8.1-6-17.5-9.6-25.9-15.1c-6.9-4.6-14.8-7.3-22.8-9.2c-37.6-9.1-75.5-15.8-114.2-17.6c-18.5-0.9-37.1-1.3-55.6-1.5
		c-20.3-0.2-40.6-0.4-60.9-1.7c-10.5-0.7-20.3-3.5-30-6.8c-8.8-3-11.3-8.1-9.5-17.2c1.4-6.9,2.4-13.9,3-21
		c1-12.4,7.9-22.3,15.6-31.1c11.5-13.1,24.8-24.5,42.1-29.6c30.3-8.8,59.4-20.9,88.6-32.8c3.8-1.6,7.8-2.8,11.1-5.4
		c-16.5,0-33,0-49.5,0c-7.7,4.4-16.4,6.4-24.7,9.1c-16.2,5.2-32.8,9.5-48.6,16.2c-6.3,2.6-12.4,5.6-18.1,9.1
		c-13.5,8.2-27.9,8.6-42.6,5c-9.7-2.4-19.3-5.2-28.9-7.9c-5.2-1.5-10.5-1.9-15.8-1.4c-29.6,2.7-59.3,5-88,13.7
		c-23.8,7.3-48.2,10.6-73.2,10.3c-29.4-0.4-57.9,6.4-86.3,13.1c-18.5,4.4-35.1,13.6-50.5,24.7c-8.3,6-16.6,12.2-25.1,18
		c-13.7,9.5-29.2,12.2-45.5,10c-8.1-1.1-11.8-5.3-12.4-13.6c-1.6-22.7-12.5-40.1-30.2-53.7c-10.5-8.1-20.5-16.7-32-23.5
		c-8.6-5.1-15.9-12.1-21.7-20.5c-1.8-2.6-4-5.2-4.2-8.6c-11.2,0-22.4,0-33.6,0c7.9,9.2,17,17,25.8,25.3c12.5,11.9,27.1,20.7,40.7,31
		c13.8,10.4,26.3,22.1,32.4,38.8c5.8,15.7,7.6,31.6-2.2,46.6c-3.2,4.9-2.7,10.1-2.2,15.4c0.5,5,1.4,9.9,2.1,14.9
		c0.6,4.2-1,7.1-5.2,7.8c-7.8,1.3-15.8,3.1-23.3-1.1c-19.4-10.9-40.3-9.5-61.2-8c-11.7,0.8-23.3,3.1-35.1,4.1
		c-10.3,0.9-20.6-0.5-30.8-1.9C81.8-24,53.5-19.4,27.3-3C1.8,13-22.2,30.8-44.2,51.4C-55.1,61.7-64.6,73.3-76,83
		c-10.8,9.1-21.5,18.3-33,26.6c-1.8,10.4-0.5,20.8-0.9,31.2c-0.1,3.7-0.1,7.5-0.2,11.3c0.5-0.1,1-0.1,1.5,0.1
		c1.9-1.6,2.7-3.8,3.3-6.1c3.3-13.9,12.2-24.2,22.5-33.1c14.3-12.3,29-24.2,41.6-38.3c8.5-9.4,17.6-18.2,27.1-26.5
		C4,32.5,23.9,19.4,44.6,7.5C64.9-4,86.7-5,109-2.5c23.7,2.7,47.3,5.3,71.3,2.1c22.8-3,45.2,0.7,66.9,8.7c11.1,4,22.4,4.7,34,2.5
		c4.3-0.8,8.6-2.1,12.9-3.2c16.6-4.1,33.4-3.1,50.1-0.8c11.4,1.6,16.4,8.3,16.3,19.5c-0.1,12.9-2.9,16.6-15.6,19.5
		c-4,0.9-8.1,1.6-12.2,1.9c-6.3,0.5-12,2.7-17.6,5.4c-7.7,3.7-12.4,9.7-14.7,17.8c-2,6.8-4.2,13.5-6,20.3
		c-3.2,11.9-11.6,19-22.5,23.1c-9.9,3.8-19.7,7.9-30,10.7c-10.5,2.9-19.3,8.7-26.5,16.8c-5.6,6.3-12.1,11.1-20.5,13.2
		c-5.6,1.4-10.5,0.7-14.5-3.7c-3.6-4-7.8-7.2-11.8-10.7c-18.8-16.1-40.3-17.8-63.2-12.1c-10,2.5-19.7,6.2-29.3,9.9
		c-20.1,7.8-40.7,13.7-62.3,16c-2.9,0.3-5.8,1-8.6,2.1c-5.2,2-7.8,6.3-7,10.9c0.8,5,5.1,8.8,10.7,8.7c6.8-0.2,13.5-0.7,20.3-1.5
		c12.4-1.5,24.2-5,35.5-10.3c10.2-4.8,20.9-8.1,31.5-11.5c12.5-4,25.7-3.8,38.6-2.4c8.7,1,16.3,5.8,22.3,11.9
		c9.6,9.7,20.7,17.5,30.5,26.9c7.3,7,13.2,15,20.1,22.2c18.5,19.1,41.8,30.4,65.1,41.7c11.7,5.6,23.6,10.8,35.3,16.3
		c12.4,5.7,23,14.4,33.7,22.6c8.7,6.7,17.4,13.1,27,18.4c13.3,7.5,18.3,17.6,15.7,32.5c-1.1,6.3-2.6,12.8-5.8,18.5
		c-7.1,12.6-10.4,26.2-12.5,40.3c-1.9,13.1-4,26.3-6.6,39.2c-3.4,17.1-14.4,29.6-31,35.9c-18.9,7.2-38.1,9.2-57.9,2.6
		c-21.2-7.1-43.1-12.3-64.7-18c-16.3-4.2-31.2-11.7-45-21.8c-22.9-17-41.5-37.5-55.2-62.4c0,0,0,0,0,0c-1.2-0.9-1.8-2-1.8-3.5l0,0
		c0,0,0,0,0,0c-1.2-0.8-1.9-2-1.9-3.4c-11.9-21.7-21.9-44.3-32.2-66.8c-7.4-16.3-16.4-31.5-31.4-41.9C25.9,253,19.9,241.2,17.9,227
		c-3.2-22.5-16.6-35.1-37.6-41.9c-15.6-5.1-30.8-3-46.1,0.2c-10.1,2.1-19.8,5.7-29.2,9.9c-4.3,1.9-8.7,3.5-13.1,5.2c0,0,0,0,0,0
		c-2.9,6.4-1.5,13.1-1.4,19.8c0,1.6,1.4,2.4,2.8,3c9.6-4.6,18.8-10.1,28.8-13.5c16.9-5.7,34.3-8.1,52.2-4.5
		c6.5,1.3,11.1,5.1,14.4,10.8s5.4,11.8,7.2,18c2,7.1-0.1,13.5-5.3,18.6c-6.5,6.5-13.4,12.5-22.3,15.5c-19,6.4-33.5,18-42.3,36.4
		c-2.8,5.8-7.6,10.5-10.3,16.5c-1.1,2.5-3.9,3.5-6.2,4.8c-6.4,3.6-12.8,7.2-19.3,10.8c0,7,0,13.9,0.1,20.9c0,3.2-0.4,6.4,1.4,9.3
		c7.7-4.5,14.3-10.3,20.6-16.5c12.7-12.3,25.1-24.7,34.4-40.1c7.2-12.1,17.6-21.2,31.1-26.4c4.9-1.9,9.4-4.9,14-7.4
		c3.6-2,7.3-3.7,11.4-4.5c6.4-1.3,11.9-0.7,16.8,4.7c4.5,5,9.9,9.3,16.4,11.6c4.8,1.7,7.9,5.1,10.3,9.2
		c6.5,11.5,11.8,23.7,17.2,35.8c1.5,3.4,1.9,7.4,2.2,11.2c1.2,14.5,8.3,26.2,17.7,36.7c4.3,4.8,8.8,9.4,12.4,14.9
		c3.6,5.4,6.6,11,8.4,17.3c1.6,5.3,4.7,10.1,7.2,15.1c3.7,7.3,0.1,16.3-7.7,19.1c-0.5,0.2-1.1,0.4-1.7,0.4
		c-19.7,2-36.3,11.2-52.1,22.4c-8.1,5.8-16.3,11.7-23.4,18.7C13.2,502.3-1.7,513.7-18,523.5c-10.1,6.1-20,12.6-28.1,21.3
		c-10.3,11-16.1,24.6-21.1,38.5c-3.4,9.5-8.9,17.2-16.4,23.6c-2.9,2.4-5.6,3.5-9.6,2.5c-5.4-1.3-11.1-1.5-16.6-0.1
		c0.6,9.3-1.6,18.7,1.5,27.8c4.9,1.1,9.6,2.7,14.1,4.9c3.5,1.7,6.8,3.7,8.8,7.1c4.3,7.2,10.3,12.7,16.3,18.4
		c3.4,3.3,6.8,6.5,9.8,10.1c8.8,10.5,19.7,17.4,32.8,21c3.1,0.8,6.7,1,7.5,5c0.9,4.2-1,7.2-4.2,9.9c-11,9.4-23,17.4-34.8,25.5
		c-8.1,5.6-15.2,11.9-21,19.9c-5.9,8.1-13.3,14.1-23.9,14.8c-0.3,0.2-0.6,0.3-0.9,0.4c-2,0.9-4.1,1-6.3,1.3c1,6.9-1.2,14.1,1.7,20.9
		c18.9-0.1,34.3-7.5,45.6-22.7c5.4-7.2,11.8-13,19.2-18c11-7.4,21.8-15.1,32.7-22.5c3-2,5.4-4.6,7.8-7.1c5.3-5.5,11.8-8.6,19.4-9.5
		c8.5-1,17-2,25.5,0c2.9,0.7,6,1.2,6.7,4.8c0.6,3.1-1.7,4.8-3.8,6.4c-19.1,14.2-33.5,32.1-42.8,54c-10,23.5-27.9,38.3-51.7,46
		c-20.1,6.6-39.4,15.6-60.1,20.4c-0.1,8.7-0.1,17.3-0.2,26c1.1,0.2,2.2,0.3,3.4,0.5c26-5.1,50.3-14.5,73.1-28
		c14.1-8.3,26-19.2,37.1-31.1c4-4.3,6.4-9.8,9.4-14.9c7-11.9,10.6-25.5,19.5-36.4c5.1-6.2,10.3-12.1,16.8-16.8
		c4.6-3.3,9.1-6.6,13.5-9.9c5.8-4.4,12.3-6.8,19.6-6.9c4.7-0.1,8.5,1.1,12,4.4c14.9,14.1,33.3,20.8,53.1,24.1
		c15.4,2.5,31,3.9,46.7,3.4c18.9-0.6,37.6,1.4,56.3,4.3c2.3,0.4,4.7,0.8,6.8,1.8c23.9,11.1,46.6,23.9,63.6,44.9
		c8.8,10.9,19.9,19.2,31.3,27.1c5.4,3.7,11,7,16.1,11c8.8,6.9,9.3,17.2,1.3,25.2c-3.5,3.5-7,7.2-11,10.2
		c-6.7,4.9-11.2,11.2-14.2,18.8c-4.6,11.5-9.2,22.9-9.1,35.7c0.1,9.8-8.9,19-18.9,19.9c-6.7,0.6-13.3,0.9-20.2,0.2
		c-33.4-3.3-66.5-1.7-99.3,5.9c-12,2.8-24.3,4.3-36.5,6.2c-12.1,1.8-23.6,5.1-34.2,11.4c-9.9,5.8-19.8,11.7-29.8,17.3
		c-13.5,7.6-28.2,11.8-43.1,15.4c-19.5,4.8-38.3,11.8-57.7,16.8c-8.5,2.2-17.2,4.1-25.8,6c-4.2,0.9-8.3,0.2-12.1-1.6
		c-13.1-6-26.2-12.3-36.7-22.5c-1.5-1.4-3.1-2.8-4.9-3.7c-11-5.4-19.1-13.6-24.7-24.4l0,0c-2.6,9.1-0.6,18.4-1.2,27.6
		c3.5,3.6,7.5,6.6,12,8.9c2.1,1.1,4.3,2.2,6,3.8c11.1,10.4,24.2,17.7,37.5,24.7c3.9,2.1,7.5,4.6,11.2,8.1
		c-10,9.1-17.6,20.1-26.8,29.5c-10.3,10.5-19.8,21.8-31.2,31.3c-2.7,2.3-5.3,4.7-8.7,5.8c0,4.9,0,9.7,0,14.6c0,2.6-0.1,5.3,3.1,6.3
		c22.9-11.9,41.1-29.3,56.7-49.6c4.9-6.3,10.5-10.7,19.1-10.9c8.1-0.3,13.7,2,18.4,9.2c7.2,10.9,17.9,17.7,30.3,21.8
		c13.1,4.4,25.7,9.9,37.7,17.1c11.6,6.9,20,16.2,26.8,27.4c4.3,7.1,8.2,14.1,8,22.9c-0.1,4.2-0.6,7.7-4.1,10
		c-6.3,4.2-10.3,10.4-14.7,16.3c-10.8,14.4-21.4,28.9-30.2,44.6c-13.6,24.2-34.9,37.5-60.7,45.1c-7.7,2.3-15.5,3.1-23.5,3.4
		c-22.1,1-43.9,4.1-65.4,9.2c-2.5,4.3-1.6,9-1.5,13.6c0.1,3.1,2.3,3.7,4.8,3.9c14.9-3.5,29.9-6.1,45.2-7.7c18-1.9,36.6-0.7,53.8-8.3
		c3.5-1.5,7.1-2.7,10.6-4.1c2,2.3,0.1,4.1-0.5,5.8c-5.1,14.5-12.5,27.9-21.2,40.6c-23,33.4-36.8,70.1-42.2,110.3
		c-3.5,25.9-4.2,51.6,0.3,77.4c2,11.4,5.2,22.4,9,33.2c6.1,17.5,12.2,35,17.4,52.8c2.6,9,7.1,17.4,9.1,26.7c1,4.6,2,9.2,2.5,13.9
		c1,9.3-0.9,13.1-9.5,16.7c-11.5,4.8-23.7,7-36.1,7.5c-14.2,0.6-28.1,3-42.1,4.9l0,0l0,0c-1.9,4.4-1.2,9-1.2,13.5
		c0,2.2,0.9,3.8,3.1,4.6l0,0l0,0c10-2.6,20.1-4.2,30.5-3c7.4,0.9,14.6,0.8,22-0.1c8.7-1.1,17.6-1.7,26.3,1c6,1.9,9.9,5.3,12,11.7
		c4.6,14.7,5.9,30,8.2,45.1c0.4,2.6-0.3,5.5,0.6,7.9c6.1,16,6.5,33.5,13.5,49.3c4.6,10.3,6.6,21.4,7.5,32.6
		c1.7,19.2,8.4,36.6,16.8,53.5c0.8,1.6,1.9,3,2.5,4.6c10.7,25.5,30.5,43.7,49.8,62.2c5.1,4.9,9.9,10.1,13.8,16c9.4,0,18.7,0,28.1,0
		c12.9-18.9,31.3-31.7,49.7-44.5c11.5-8,24.4-12.9,37.3-18c18.7-7.3,36.3-16.8,54.2-25.7c11.6-5.8,21.3-14.7,32-21.9
		c3.1-2.1,5.4-5.4,7.8-8.4c4-5.1,9.2-8.9,13.9-13.2c12.4-11.4,27.4-16.8,42.6-22.3c6.2-2.3,12-2.6,17.9,0.2
		c9,4.2,16.8,9.8,21.6,18.8c4.9,9.5,12.2,17.3,18.1,26.1c4.4,6.4,7.3,13.1,8.2,21.1c1.1,10,2.1,20,2.4,29.9
		c0.6,20.8,9.6,37.9,21.2,54.2c0.8,1.2,1.8,2.3,2.7,3.5c7-0.1,14.3,2.2,21.1-1.4c-4.5-6.9-9.8-13.2-14.6-20
		c-9.7-13.6-12.9-28.9-13.4-45c-0.3-9.2-1.6-18.2-2.4-27.3c-0.7-7.2-3.5-13.7-7.2-19.8c-4.9-8-9.9-16-14.7-24.1
		c-5.3-8.9-3.8-14.6,4.9-20c3.5-2.2,7.4-3.6,11.4-4.7c12.2-3.3,24.3-6.9,36.8-9.3c11.1-2.2,21.3-6.8,31.3-11.9
		c17-8.9,33.4-18.9,50.9-26.6c22.6-10,45.7-19,70.6-22.1c8.2-1,15.9,0,23.4,3.1c23.4,9.6,46.8,19.4,70.1,29.1
		c10.2,4.2,17.3,11.4,22.8,21.1c16.8,29.6,36.1,57.4,61.8,80.1c13,11.4,27.4,21.4,42.7,29.7c12.8,7.1,22.4,16.6,29.8,29.2
		c8,13.7,17.2,26.8,25.8,40.1c8.3,0.1,16.5,0.1,24.8,0.2c12.5-30.2,30.1-57.4,51.2-82.2c12.7-14.9,28.6-25.2,47.9-30.1
		c18.8-4.8,37.5-10.4,56.3-15.3c9.3-2.4,17.6-6.5,25.3-12.2c9.5-7,19.5-13.3,29.5-19.5c15.8-9.8,32-9.7,48.1-2.2
		c15.6,7.2,29.6,16.7,42.1,28.7c17.1,16.5,28,37,39.4,57.3c3.6,6.4,6.5,13.2,10.4,19.5c10.6,17,13.8,36.1,16.2,55.5v0
		c6.3,0.6,12.6,0.5,18.9,0.1c1.4-21.1,8.3-40.2,21.3-57c9.4-12.1,19.1-24,27-37.1c4.1-6.8,7.9-13.8,12.2-20.5
		c3.8-5.9,8.1-11.6,14.4-15.4c2.3-1.4,4.5-2.8,7.2-3.2c11.3-1.6,22.4-4.6,34.1-4.5c24.7,0.1,49.5,0.4,74.1-1
		c22.6-1.3,45.2-2.9,67.9-2.8c17.2,0.1,33.3,4.2,48.4,12c15.2,7.8,30.5,15.5,43.7,26.5c7.4,6.2,14.6,12.8,21.6,19.5
		c4.3,4.1,9,7.5,14,10.7c23.5,14.9,48.7,25.8,74.9,35.3c28.5,10.3,56.8,21.3,82.4,38c25.9-0.1,51.9-0.2,77.8-0.2
		c9.9-4.6,18.9-10.8,27.8-17.1c12.7-9.2,26.9-15.9,40.6-23.3c17.9-9.6,35.4-19.8,51.6-32.3c15.2-11.8,32-21.5,50.6-26.6
		c24.7-6.8,49.1-14.6,74.3-19.3c11.6-2.1,23-4.9,34.9-5.3c25.1-0.8,45.1,8.4,61,27.9c13.4,16.5,23.7,34.4,29.3,54.9
		c3.9,14.2,8.6,28.2,15.8,41.2c6.4-0.1,12.8-0.2,19.2-0.3c-8.4-16-14.4-32.8-19.5-50.2c-6.4-22-17.6-41.7-32-59.6
		c-7-8.7-13.6-17.8-20.2-26.8c-4.2-5.6-6-11.9-5.9-19c0.1-17.5,2.7-34.4,8.1-51.2c4.8-15.2,11.6-28.8,21.8-41
		c4.6-5.5,9.7-10.4,16.2-13.4c14.1-6.5,28.6-10.9,44.4-9.3c12.1,1.2,23.5,4.6,35.1,8.2c17.2,5.3,32.7,13.4,47.7,22.8
		c11,6.9,21.8,14.1,29.1,25.4c3.8,5.8,6.3,11.8,6.7,18.9c0.8,15,1.3,30,3.2,45c1.4,11.1,5.2,21,11.3,30.3
		c14.7,22.4,36.1,35,61.2,42.3c7.4,2.1,14.7,4.2,22.1,6.1c17.1,4.4,32,13.3,46.5,23c11.7,7.8,19.8,18.3,24.4,31.6
		c2,5.8,4.2,11.6,6.4,17.4c10.6-0.1,21.2-0.2,31.8-0.3c-4.6-12.6-3.4-24.8,2.4-36.8c3.6-7.4,5.5-16.2,10.8-22.1
		c13.5-15.2,25-32.4,44.1-42.4c16.6-8.6,32.9-15.7,52-14.1c1.8,0.1,3.5,0.1,5.3,0c23.4-2.1,43.2,7.3,61.7,20.1
		c12.3,8.6,25.9,13.9,40,18.4c23.1,7.5,46.4,13,71.1,11.8c9.1-0.4,18.2,1.5,26.1,6.9c0-6.5,0-13,0-19.5c-8.5-3.6-17.5-5.6-26.7-5.2
		c-29.9,1.4-57.6-7.3-84.8-18.2c-5.5-2.2-10.4-5.4-15.4-8.7c-18.4-12-37.7-20.9-60.1-23.7c-17.4-2.2-35-3-52.1-8.6
		c-17.8-5.9-28.2-17.7-33.3-34.7c-3.2-10.4-6.1-20.9-7.6-31.8c-1-6.7-3.2-13.1-6.1-19.3c-3.4-7.2-6.5-14.5-9-22.1
		c-5.8-17.1-6.4-34.4-3.6-52.2c1.3-8.5,3.3-15.9,8.7-22.5c5.4-6.5,12-10,20.3-11.2c17.1-2.5,34.1-0.9,51.1,0.7
		c16.5,1.5,32.2,7.2,48.7,8.6c17,1.4,34,1.9,51-2c18.9-4.3,38-9.2,57.6-7.1c20.8,2.2,41.5,5.4,61.4,12.1c0-5.9,0-11.8,0-17.7
		c-14.7-7-30.6-10.4-46.3-14.3c-8.4-2.1-16.3-4.9-23.9-8.8c-7.4-3.7-8.3-5.9-6.3-14.1c0.2-0.9,0.3-1.8,0.7-2.5
		c6.7-12.5,6.9-26,6.6-39.6c-0.3-14,3.2-27.4,6.8-40.8c1.6-5.8,5.5-10.4,9.1-15c7.6-9.4,15.4-18.6,23.4-27.6
		c8.2-9.4,17.7-17.2,29.8-21.3c0-6.5,0-13,0-19.5c-8.9,3.8-17.9,7.6-26.8,11.4c-19.6,8.3-40,11.9-61.2,10.7
		c-5.7-0.3-10.4-2.5-15.5-5.3c-14.6-8.1-26.8-19-39.5-29.7c-8.6-7.2-18.5-12.7-29.1-16.5c-14.1-4.9-27.3-12.6-42.7-13.8
		c-18.6-1.4-35.8,1.1-50.2,14.4c-5.4,5-11.2,9.5-16.9,14.2c-1.8,1.5-3.6,3-5.6,4.2c-3.3,1.9-6.6,2.1-10.1,0.1
		c-3.8-2.2-3.6-5.8-3.1-9.4c5.3-35,16-68.1,34.8-98.4c4.8-7.8,9.6-15.5,14.3-23.4c9.6-16.1,23.2-28.3,39.2-37.4
		c22.1-12.6,42.1-28,61.6-44.1c12.8-10.6,27.4-18.1,44-21.6c9.2-2,17.8-0.5,25.4,4.4c7.4,4.8,14.2,10.5,21.1,15.9
		c5.3,4.2,8.1,9.8,8.7,16.7c1.4,15.8,4.2,31.4,7.8,46.9c1.9,8.1,5.8,15.5,9,23c7.1,16.6,15.2,32.6,28.5,45.3
		c2.3,2.2,4.1,4.8,6.2,7.3c0-8.8,0-17.7,0-26.5c-12-14.9-19.4-32.4-25.4-50.2c-5.2-15.3-7.2-31.5-8.6-47.7c-1-11.2-5.7-20.2-14-27.7
		c-6.3-5.7-12-12.1-19.7-16.3c-3.6-2-5.1-5.4-5.3-9.6c-0.4-8.1,0.3-15.8,5.8-22.5c3.4-4.1,6.2-8.6,9.2-13
		c11.6-17.1,27.5-28.9,46-37.5c4-1.9,8-3.8,12-5.6c0-8.8,0-17.7,0-26.5c-0.8,0.4-1.5,1.1-2.3,1.3c-20.2,4.6-36.1,16.9-52,29.1
		c-7.1,5.4-12.3,12.6-17.6,19.7c-3.6,4.9-6.7,10.1-12.6,15.1c0.5-7.5,1.5-13.2,1.4-19.1c-0.2-12.5-2.6-24.4-6.5-36.3
		c-4.9-14.9-10.6-29.4-16.4-43.8c-6-14.9-15.8-26-29.8-33.7c-2.6-1.4-5-3.1-7.6-4.5c-23.2-12.6-37.9-33.2-51.3-54.9
		c-6.2-10-8.6-21.2-8.6-32.9c-0.1-12.3-0.9-24.6,3.7-36.6c6-15.4,13.7-29.2,26.4-40.1c12.6-10.9,27-18.8,41.7-26.5
		c6-3.1,12-6.4,18.2-9.1c19.2-8.6,35-21.5,48-38c4.4-5.6,9.7-10.1,16.2-13.5c10.8-5.7,18.9-14.1,24.1-25.1
		c5.6-11.7,14.3-20,25.4-26.2c0-6.5,0-13,0-19.5c-17.3,7.5-31.3,18.5-39.9,35.7c-3.5,7-7.7,13.7-14.6,17.3
		c-11.8,6.2-21.4,14.7-29.3,25.1c-11,14.4-26.2,22.5-41.7,30.4c-17,8.7-34.4,16.9-49.9,28.4c-9,6.7-16.9,14.6-26.6,20.4
		c-9,5.3-11.9,5.1-16-4.8c-6.2-15.1-16-27.1-28.1-38c-8.9-8-18.1-16.8-23.8-27.1c-7.5-13.8-13.9-28.6-16.1-44.6
		c-0.3-2.5,0.2-5.3,0.7-7.9c2.8-13.8,9-25.9,16.8-37.6c10.4-15.7,23.5-28.4,38.3-40c11-8.6,21.8-17.7,28.4-30.9
		c4.1-8.3,6.6-17,8.9-25.8c2-7.9,5.4-14.8,10.4-21.2c7.1-9.1,13.8-18.4,21.8-26.7c7.4-7.7,15.3-14.6,24.2-20.6
		c8.8-5.9,17.4-12.1,25.9-18.4c6.9-5.1,14.1-9.6,22-13c23.6-10.3,41.8-26.8,57.7-46.8c12.3-15.3,21.9-32,30.9-49.2
		c0-9.4,0-18.9,0-28.3c-10.1,4.1-16.7,2.7-23.5-5.2c-2.3-2.7-4.7-5.3-6.5-8.3c-5.9-9.6-13-18.3-21.2-25.8
		c-11.7-10.8-16.7-24.6-19.7-39.6c-1.2-6.1-1.8-12.3-4.4-18c-6-12.7-5.8-25.9-2.2-38.8c4.1-14.7,5.2-29.5,5.2-44.5
		c0-15.9,4.6-21.2,19.7-27.4c17.1-7,34.7-8.5,52.8-8.2c0-6.5,0-13,0-19.5c-19.2-0.1-38.4,1.3-56.8,7c-14.9,4.6-30,5-45.3,6.1
		c-40.5,2.9-78,14.5-109.9,40.8c-6.4,5.2-12.3,11-18.6,16.3c-11.4,9.5-23.7,17.6-39.8,16.3c-5.6-0.5-11.2-0.2-16.8-0.2
		c-21.4-0.1-39.3-8.8-55.4-22.1c-3.2-2.7-3.7-5.9-2.6-9.5c2.1-6.7,4.3-13.5,6.6-20.1c1.1-3.1,2.7-6.1,5.2-8.1
		c10.5-9,21.2-17.9,34.6-22.3c32.2-10.5,64.4-20.7,96.6-31.1c12.1-3.9,23.3-10,34-16.7c14.5-9.1,29.3-17.6,44.3-25.8
		c15.3-8.4,29.3-18.6,42.4-30.2c6.2-5.5,9.7-12.2,11.3-20.4c2.3-12,10.7-19.4,21.3-24.1c15.6-7,31.6-13.1,48.8-15
		c0-8.3,0-16.5,0-24.8C2980.6-48.8,2968.5-50.7,2956.6-54.6z M2313.1,26.5c20.8,5.6,42.1,8.1,63.3,11.1c21.1,3,42.2,2,63.4,0.6
		c14.1-1,28.2-1.8,41.7,4.6c5.3,2.5,9.4,5.7,12,11c4.1,8.5,8.6,16.8,12.9,25.1c1,1.8,1.9,3.7,3.3,5.2c9.9,10.8,18.9,22.5,29.4,32.8
		c10.7,10.5,21.7,19,37,18.8c0.6,3.6-1.6,4.6-3,5.8c-17.6,15.3-33.9,31.9-50.4,48.3c-14.3,14.2-30.1,26.5-47.2,36.9
		c-10,6.1-20.9,11.1-31.9,15.1c-9.8,3.5-18.9,8.3-27.7,13.4c-9.5,5.5-19.6,8-30.3,8.4c-21,0.8-41.7-1.1-62.4-4.8
		c-13.4-2.4-25.4-7.4-36.6-14.6c-9.7-6.3-20-11.3-31-14.8c-8.1-2.6-15.9-6.1-23.3-10.6c-5.3-3.2-10.8-6-16.6-8.3
		c-4.3-1.8-8.5-3.9-11.9-8.4c11.7-6.6,23.4-12,36.2-14.7c12.3-2.6,24.9-4.3,36.7-9.4c16.2-7,29-18.1,39.7-31.6
		c12.2-15.5,13.6-33.6,9.8-52.1c-2.2-10.8-10.3-16.9-20.6-19.9c-8-2.3-15.5-5.7-22.9-9.1c-4.6-2.1-8.7-5-12.1-8.7
		c-3.9-4.2-4.5-7.4-1.3-11.9C2279.3,30.6,2293.7,21.2,2313.1,26.5z M2670.7,479.3c-4.6,25-17,45.6-35.7,62.5
		c-11.4,10.3-24.2,18.6-37.8,25.9c-17.4,9.3-34.2,19.7-51.1,29.9c-3.5,2.1-6.4,5.2-9.3,8.1c-2.9,2.9-5.1,6.6-8.2,9.2
		c-12.4,10.8-17.8,25.3-21.8,40.6c-4.2,16-11.9,29.6-23.4,41.9c-12.2,13.1-24.8,26-35.5,40.5c-3.7,5-8.3,9.2-13.3,12.9
		c-23.3,16.9-41.4,38.4-56,63c-4.9,8.3-11.7,14.7-19.3,20.3c-7,5.2-14.1,6.7-21.8,0.6c-5-4-10.8-6.8-14.5-12.6
		c-4.7-7.3-6.5-15-5.6-22c-0.2-6.5,0.2-11.5,1.2-16.5c1.6-7.3,1.5-14.7-0.3-21.9c-2.8-11.1-3-22.2,0.2-33.2
		c5.1-17.1,4.1-34.4,2-51.7c-0.8-6.9-3.2-13.2-7.3-18.7c-7.1-9.4-14.3-18.7-21.6-28c-2.8-3.5-6.5-5.9-10.2-8.4
		c-16.9-11.5-36.1-17-55.7-21.5c-2.6-0.6-5.3-1-7.7-2c-7.4-3-13.5-7-14.9-15.8c-1-6.1-2.5-12.2-4.7-17.9
		c-5.1-13.4-1.6-24.9,7.1-35.3c12.4-14.8,26.5-27.7,45.2-34.3c13.3-4.7,24.9-12,33.6-23.4c8-10.5,19.3-16.1,31.3-20.6
		c3.1-1.1,5.6-1.1,8.3,0.6c3.2,2.1,6.7,3.9,9.6,6.2c11.4,9.1,24,16,37.2,22c8.8,4,17.7,8.1,26.3,12.6c14,7.3,29,9.6,44.4,10.2
		c20.1,0.8,40-0.9,59.9-3.3c22.9-2.7,45.2-8.2,67.5-13.5c15-3.5,28.5-11.2,40.4-21.2c11-9.4,21-19.7,28.8-32.1
		c4.4-7.1,10.7-11.6,19.8-10.9c3.9,0.3,6.9,1.5,8.5,5.2c4.1,9.5,7.7,18.9,5.7,29.7C2670.6,463.9,2672.1,471.7,2670.7,479.3z
		 M2562.7,804.5c5.6,6.3,11.3,12.7,17.1,19.3c-2.2,2.1-4,2.4-5.7,2.6c-15.3,1.2-28,8.3-40.2,17c-10.6,7.5-21.2,14.8-34.4,17.3
		c-14,2.7-19.1-0.2-19.7-14.3c-0.8-18.6-5.6-35.9-13.1-52.7c-8.2-18.4-6-35.4,7.2-51c10.5-12.4,21.3-24.3,34.5-33.9
		c8.2-5.9,16.5-4.4,21.6,4.1c7.2,12,12.9,24.8,11.9,39.1C2540.3,773,2549.3,789.5,2562.7,804.5z M1986.6,1451.1
		c-9.4-6.2-16.5-15.1-25-22.3c-5.6-4.7-10.7-10.2-15.8-15.4c-20.3-20.9-45.1-34.9-71.1-47.1c-11.8-5.5-24.1-5.9-37.1-4.7
		c-28.8,2.5-54.9,12.9-80.2,25.8c-33.5,17-68.5,30-104.5,40.4c-6.3,1.8-12.8,0.5-19.2-0.7c-2.5-0.5-4.2-2-5.2-4.3
		c-1.1-2.7-3-5.3-3.3-8.1c-2.3-19.4-2.6-38.4,12.4-53.9c5.9-6.1,11.5-12.6,17.4-18.8c6.5-6.9,11.7-14.8,16.7-22.7
		c9.3-14.5,7.9-30.3,6-46.3c-0.1-1.1-0.4-2.2-1-5.4c14.3,5.9,27.5,9.8,41,12.9c25.7,5.9,51.6,9.4,78,6.4c17.5-2,33.9-7.9,49.8-14.8
		c13.8-6,27.1-8.5,42-4.9c8.1,1.9,16.9,1.6,25.4,1.7c15.3,0.3,30.6,0.4,45.9-1.4c9.4-1.1,18.6-3.3,27.6-6.1
		c21.4-6.7,43.1-12.1,64.9-17.1c9.5-2.2,18.7-5.2,27.9-8.4c12.1-4.2,24.8-4.7,37.5-4.3c5.2,0.2,9.7,2.7,13.6,5.9
		c5,4.1,9.8,8.5,14.6,12.9c9,8.1,18.6,15.4,28.4,22.4c14.4,10.3,26.8,23,40.4,34.3c20.8,17.2,32.8,39.8,39,65.7
		c3.4,14-4.8,26.4-19,29.8c-12.1,2.8-24.5,3.6-36.8,4.1c-11.3,0.5-22.3,2-33.1,4.7c-17.7,4.4-35.6,8.1-53.6,11.2
		c-19.4,3.4-37.4,10.4-54,20.9c-7,4.4-14.1,8.6-21.2,12.5C2018.2,1464.7,2001.8,1461.1,1986.6,1451.1z M2028.7,1590.9
		c3,21.3,5.8,42.6,8.6,63.9c1,8-0.2,16-2.5,23.5c-3.6,11.7-11.6,16.5-24.1,16c-9.7-0.4-19.4-0.1-29.2-0.4
		c-21.1-0.5-40.4-6.6-58.4-17.8c-33.5-20.9-60.2-48.8-83.3-80.5c-9.7-13.3-19.3-26.8-29-40.1c-2.3-3.1-4.9-5.9-7.5-8.7
		c-21.4-23.2-46.9-41.1-73.7-57.2c-13.9-8.4-29.6-13.2-44.7-19c-11.9-4.6-23-10.5-33.7-17.4c-1.5-0.9-3.1-1.8-3.9-4.3
		c12.7-6.3,26.1-8.8,38.8-13.2c28.2-9.5,55.6-21,82.2-34.5c23.2-11.8,47.5-20.5,73.8-22.9c13.5-1.3,25,2.9,36.3,8.7
		c25.9,13.4,49,30.3,68.8,51.9c7.2,7.8,14.2,15.7,20.9,24c8.2,10.1,18.5,18.2,28.5,26.3c8.8,7.1,14.4,15.4,14.3,27
		c0,3.3,1,6.4,2.2,9.4C2021.4,1546.8,2025.6,1568.7,2028.7,1590.9z M1606.6,1418c3.9,14.5,2.7,16.6-11.5,20.8
		c-1.7,0.5-3.4,1.3-5.1,1.3c-5.3,0.2-10.6,0.1-15.9,0.1c-17.1,0.9-33.1-3.4-49-9.4c-21.2-8-42.4-16-64-22.9
		c-20.1-6.5-40.7-11.7-61.1-17.4c-13.3-3.7-20-15.7-16.4-30.6c3-12.3,7.1-24.3,13.1-35.6c6.1-11.4,12.1-22.9,18-34.5
		c5.8-11.3,15.7-19,25-27.1c8.4-7.3,17.5-13.9,25-22.4c2.1-2.4,4.9-4.2,7.6-6c16.1-10.8,31.8-22.3,48.5-32.3
		c14.7-8.9,30.6-15,46.9-20.3c3.9-1.3,7.5-1.1,11.2,0.3c19.2,7.1,36.2,16.9,46,36.2c4.4,8.6,10.4,16.2,16.7,23.7
		c12.2,14.4,20.7,30.7,19.9,50.5c-0.3,7.4-2.3,13.7-6.2,19.9c-7.3,11.5-16.5,21.5-25.8,31.3c-7.5,7.9-14.7,16.1-18.5,26.7
		c-2,5.6-3.6,11.2-3.8,17.2c-0.1,2.9-0.2,6-1,8.7C1604,1403.6,1604.7,1410.8,1606.6,1418z M510.1,677.5
		c5.2-17.6,12.2-34.4,20.9-50.6c7.8-14.6,18.5-25.6,34.5-31.2c14.8-5.1,29.5-10.2,44.6-14.1c7.3-1.8,13.7-1.3,20.1,3.3
		c14.8,10.6,31.6,16.9,48.8,22.5c22.3,7.2,42.9,17.9,62.8,30.2c10.3,6.4,21.1,11.7,32.3,16.4c24.2,10.2,49,18.8,73.7,27.3
		c5.8,2,11.5,4.1,16.6,8.1c8.9,7,12,16.9,13.4,27.1c2.5,18,0.2,35-11.9,50.1c-11.6,14.5-25.1,26.5-41.6,34.8
		c-11.9,6-22.5,14-33.5,21.4c-10.6,7.1-17,17.9-24.3,27.8c-4.2,5.7-8.2,11.5-12.3,17.3c-2.7,3.9-5.9,7.5-9.8,10.1
		c-13.7,9.2-25.7,20.8-39.7,29.5c-1.5,0.9-2.9,2-4.5,2.8c-6.5,3.6-7.5,4-12.2-1.5c-9.7-11.3-22.6-16.6-35.8-21.7
		c-18.5-7.1-37.2-12.9-56.7-16.8c-15.5-3.1-28.1-11.9-39.7-22.2c-7.1-6.2-13.8-12.8-21-18.9c-5.3-4.5-9.4-9.7-12.7-15.7
		c-13.4-24.2-20.4-50.1-20.2-77.8c0-2.1,0-4.1,0-6.2C499.7,711.4,505.1,694.5,510.1,677.5z M1678.7,271.2c-0.5-3.5-0.2-7.1-0.5-10.6
		c-1.1-12.5,5.2-20.7,15.3-26.6c4.3-2.5,8.7-4.9,12.9-7.7c1.9-1.3,4.2-2.5,6.4-2.8c15.5-2.1,31.1-4,46.5,0.2
		c11.1,3.1,22.1,6.5,32.9,10.3c21.2,7.6,42.9,12.8,65,16.3c11.7,1.9,23.5,0.6,35.3,1c7.3,0.3,14.7-0.3,21.9,1.9c3.2,1,6,2.2,8.1,4.9
		c9.9,12.6,23.9,16.8,38.9,18c36.7,3.1,72.3-2.5,106.4-16.3c13.2-5.4,24.7-13.7,36.5-21.4c14.6-9.5,29.5-18.4,46.1-23.9
		c0.6-0.2,1.1-0.3,1.7-0.6c4.1-2.1,7.1,0.5,9.1,3.2c2.1,2.7-1.2,4.7-2.8,6.6c-14.6,18.1-24.9,38.5-31.4,60.8
		c-2.9,10.1-1.8,19.7,2.1,29.3c10,24.7,27.9,40.8,52.3,50.9c9.8,4.1,18.8,10.2,29.7,16.2c-16.1,4.4-29.8,9.6-44.1,12.7
		c-2.6,0.5-5.2,1.1-7.8,1.1c-19.4,0.1-38.9,0.3-58.2,2.3c-18.9,1.9-35.8-5.4-52.8-12.4c-22.9-9.5-38.7-27.3-53.2-46.4
		c-15.3-20.3-34.6-35.1-58.1-44.6c-5.3-2.1-10.8-2.4-16.5-2.2c-19,0.9-36.3,7.3-52.7,16.3c-9.9,5.4-18.8,12-27.7,19
		c-23,17.9-44.9,37.2-69.7,52.8c-8.4,5.3-15.8,12.3-21.8,20.4c-12.7,17.3-29.8,29.1-49,38.1c-8.8,4.1-17.8,7.8-26.8,11.6
		c-9.8,4.1-19.7,5.1-30.2,2.7c-19.3-4.2-39-5.9-58.6-7.8c-16.7-1.6-32.1-7.4-45-18.6c-7.2-6.3-7.2-11.4-1.4-18.8
		c7.9-10,18.7-15,30.3-18.6c22.4-7,42.1-17.7,56.8-36.9c8.6-11.2,18.2-21.6,29.3-30.6c4.1-3.3,7.7-7.3,11.4-11
		C1676,299.1,1680.7,286.3,1678.7,271.2z M2021.7,152.7c-1.1-11.1,4.5-16.7,13-22.7c18.2-12.9,39.3-15.4,59.9-19.9
		c18.7-4.1,37.5-7.5,56.3-11.2c14.5-2.9,28.3-8.3,42-13.6c11.8-4.5,23.7-6.6,36.3-6c3.8,0.2,7.7,0,11.5,0c0,0,0,0,0,0.1
		c3.5,0,7.1-0.1,10.6,0c10.6,0.3,21.1,0.7,31,5.7c5.5,2.8,11.7,4,17.5,6c7.5,2.6,9.6,5.7,10.3,13.6c1.4,15.7-3.4,28.7-15.1,39.7
		c-12.8,12.2-27.1,20.5-44.7,23.1c-19.5,2.8-37.7,9.2-54.7,19.2c-5.3,3.1-11,4.1-17,3.9c-7.4-0.3-14.5,0.7-21.7,3
		c-23,7.2-44.4,17.4-64,31.4c-21.1,15.1-44.7,24.5-70,30.3c-21.1,4.8-42.2,4.2-63.3,3c-7.7-0.4-15.6-2.1-20.6-10
		c-4.2-6.6-4.8-10.8,0-17.4c17.3-23.6,23-28.3,50.4-40.9c5.9-2.7,11.6-5.8,17.1-9.3C2016.8,174.2,2022.9,165.1,2021.7,152.7z
		 M1903.6,537.9c10.5,15,19.9,30.6,27,47.6c7.7,18.5,19.3,34.4,35,47c1.1,0.9,2.6,1.5,3,3.1c0.1,1.4-1.1,1.3-1.8,1.2
		c-21.5-3.4-43-1.4-64.3,0.9c-16.5,1.8-32.2-1.8-47.9-5.3c-8.8-2-15.8-7.7-23.1-12.8c-16.4-11.4-32.7-23.1-49.2-34.6
		c-4.3-3-8.7-6.3-13.3-8.6c-19.3-9.8-33.1-25.4-44.7-43.1c-8.6-13-16.4-26.6-24.5-39.9c-3.2-5.3-5.1-11.3-6.7-17.3
		c-2.3-8.7,2.3-15.9,12.8-21.7c9.3-5.1,18.6-10.2,27.7-15.7c15.3-9.3,28-21.5,39.3-35.2c3.8-4.6,8.3-8.2,13-11.9
		c22.5-17.6,44.9-35.4,67.3-53c19-15,39.6-26.6,64.2-29.5c7-0.8,13.4,0.3,19.6,3.5c18.8,9.4,34.6,22.1,46.4,39.8
		c7.8,11.5,19,20,28.1,30.4c1.1,1.3,3,2,3.8,4.7c-14.6,5.3-25.7,15-35.9,25.6c-9.1,9.5-19.7,16.7-31.5,22.4c-5,2.4-10,5.1-14.8,7.9
		c-11.2,6.4-18.7,16.2-23.8,27.7c-6.4,14.4-9.9,29.6-11.8,45.2C1896.7,524.4,1898.9,531.3,1903.6,537.9z M2095.7,921.1
		c1.8,5.1,4.3,9.6,6.9,14.3c9.3,16.3,10.8,34,7.9,52.2c-0.7,4.4-2.8,8.2-5.8,11.8c-17.2,20.7-38.2,36-61.8,49
		c-21.2,11.7-43.8,18.5-66.4,26.1c-17.3,5.8-34.6,11.5-51.9,17.4c-8.1,2.8-16.3,2.4-24.5,1.3c-7.3-1-11.8-5.1-12.8-12.6
		c-1.7-13.3-1.1-26.5,3.3-39.3c1-2.9,2.9-5.1,5-7.1c13.7-12.9,20.4-29.5,24.1-47.3c2.9-14.2,3.1-28.7-1.1-42.8
		c-3.9-13.4-1.2-25.3,6.5-36.9c5.1-7.6,10.6-14.9,15.7-22.4c3.2-4.6,6.9-8.9,11.5-12.2c13.4-9.6,23.2-22.5,33-35.4
		c11.9-15.7,26.5-28.2,44.9-36c5.4-2.3,10.3-5.8,16-7.5c8.7-2.6,11.7-1.6,15.3,6.7c7.9,18.1,17.6,35.3,24.2,54
		c3.6,10.2,5.2,20.5,4.6,31.2C2090,897.7,2091.7,909.5,2095.7,921.1z M2108.9,867.9c-1.9-18.2,4-34.4,12.9-49.6
		c9.1-15.5,12.6-32.2,13-49.8c0.2-9.4,0.3-18.9,0-28.3c-0.7-22.4,6.2-42.3,18.8-60.4c11.7-16.7,23.9-32.8,38.2-47.3
		c6.8-6.9,15.8-8.8,25-9.8c27.9-3.1,50.1,7.4,67.6,28.8c3.6,4.3,6.7,9,10.6,13c5.9,6.1,7.1,13.2,6.3,21.2
		c-0.7,6.2-1.1,12.3-2.9,18.3c-1.6,5.4-2.1,10.9-1.9,16.6c0.6,16.5,0.7,33,2.8,49.4c1,8.2,1,16.4-3,24.2c-1.6,3.1-2.2,6.9-1.6,10.4
		c2.1,13.6,0.9,27-1,40.5c-2,14.3-1.1,28.8-2.3,43.2c-1.6,19-10.2,33.5-25,44.8c-2.8,2.1-5.6,4.3-8.5,6.3
		c-24.9,16.8-44.4,38.5-59.3,64.5c-3.6,6.2-6.6,7.2-11.8,2.2c-10.1-9.9-21.4-18.5-31.8-28c-3.3-3.1-5.9-6.7-7.3-10.9
		c-5.3-15-13.7-28.1-24.7-39.4c-12.4-12.6-16.2-27.6-14.6-44.6c0.3-2.6,0.4-5.3,0.6-6.9C2108.9,872.6,2109.1,870.2,2108.9,867.9z
		 M1568.2,1062.1c-0.4-4.2-2.1-8-4.1-11.6c-6.6-12-14.5-22.8-25.7-31.1c-11.7-8.7-21.5-19.1-28.8-32c-2.6-4.6-4.1-9.2-3.3-14.3
		c2.7-16.5,1.4-32.9-0.5-49.3c-1-8.3,0-16.6,1.5-24.6c2-10.3,8.6-18,15.9-25c8.9-8.5,15.9-18.1,20.1-29.8c2.2-6.1,3.6-12.4,4.4-18.9
		c0.3-2.6-0.1-5.4,2.9-8.5c8.8,18.8,25.6,27.1,41.3,37c21.8,13.8,46.6,17.7,70.8,23.6c10.6,2.6,21.2,5.2,32.1,6.4
		c18,2,32.7,11.2,47,21.2c9.4,6.6,18.5,13.6,28.8,18.8c17.6,9,36.6,13.1,55.9,15.6c16.2,2.1,31.7,6.4,47.4,10.6
		c16.8,4.5,25.2,24.3,22.3,39.4c-0.8,4.2-3.3,7.7-6.1,10.6c-12.2,12.6-19.4,28-25.6,44c-4.7,11.9-5.6,24.1-2,36.4
		c2.2,7.4,3.1,15,3.9,22.6c0.9,9-1.1,17.2-6.7,24.1c-8.6,10.4-17.8,20.3-30,27.1c-11.1,6.2-23.2,8.4-35.5,10.1
		c-35.5,4.9-71.2,3.3-106.8,2.9c-12.2-0.1-24.5-1.8-36.6-5.1c-8.7-2.4-18-2.7-27-3.3c-14-0.9-27-5.8-40.5-8.8
		c-2.5-0.6-4-2.4-5.2-4.5c-3.3-5.4-5.7-11-5.2-17.5C1574.2,1106,1570.4,1084.1,1568.2,1062.1z M859.4,872c3.4,5.7,3.6,11.1,0.9,16.8
		c-7,15-7.1,30.1-1.9,45.6c1.3,3.9,2.4,7.9,3.3,11.9c2.9,13.4,0.9,25.8-8.1,36.5c-8.5,10.2-18.1,19-30.1,25.5
		c-13.7,7.4-26.8,15.9-39.5,25.1c-5.6,4-11.6,7-18.6,7.3c-8.6,0.4-12-1.8-13.8-10.2c-4.4-20.2-11.2-39.7-17.5-59.2
		c-4.5-13.9-10.8-26.6-21.3-37.1c-5.7-5.7-5.7-7.7,1.6-11c14.9-6.7,25.5-18.8,38.3-28.1c10.1-7.2,17.9-17,25-27.2
		c10.9-15.7,24.1-28.8,40.6-38.7c5.5-3.3,10.8-7.1,15.7-11.4c5.5-4.9,12.6-7.2,20.3-12c-1.1,8.7-1.7,15.4-2.7,22.1
		C849.1,843.4,851.1,858.3,859.4,872z M757.8,1097.1c0.9-6.6,3.7-12.2,7.2-17.9c11.3-18.4,27.6-31.1,45.5-42.3
		c10.3-6.4,20.7-12.5,30.9-18.9c13-8.1,23.7-19.1,31.2-32c8.2-14,10.5-29.9,5.6-46.1c-1.9-6.5-3.4-13.1-5.2-19.6
		c-2.4-8.6-0.1-16.2,4.7-23.8c5.5,2.9,9.8,7,15.1,9.5c10.6,4.9,21.7,7.7,33.2,8.6c22.9,2,45.8,3.1,68.8,4.2c21.4,1,43.2,1.3,64,6.8
		c19.9,5.3,37.5,15.3,52.6,29.6c1.7,1.6,3.2,3.5,4.3,5.5c10.1,17.9,21.4,35.2,26,55.7c2.1,9.2,5,18.2,7.4,27.3
		c5,18.7,14,35.6,24.8,51.5c0.5,0.7,1,1.4,1.5,2.2c3.5,5.3,8.9,10.2,6.4,17.4c-2.8,8-7.7,14.6-15.6,18.3
		c-19.3,9-39.3,15.7-60.1,20.6c-44.6,10.6-86.3,27.1-123.1,55.5c-16.5,12.7-35.4,22.3-54.6,30.8c-13.5,6-27.3,11-40.8,16.8
		c-11.3,4.9-22,1.5-32.8-1.4c-6.8-1.9-13.3-4.8-19.1-9c-17-12.2-33.6-24.9-47.4-40.9C761.1,1174.3,752.3,1137.7,757.8,1097.1z
		 M919.6,490.9c11.5-8.7,21-18.9,27.8-31.6c2.2-4.1,5.1-7.9,7.9-11.7c5.3-7.1,9.6-8.3,17.4-4.1c10.9,5.9,21.5,12.3,32.2,18.4
		c22.3,12.9,45.1,11.4,68.3,4.4c11-3.3,21.6-7.7,32.4-11.7c23.3-8.6,47.3-12.4,71.8-13.3c17-0.6,33.3-3.8,49.5-8.4
		c9.4-2.6,18.7-4.5,28.6-5c13.5-0.6,24.6,4.3,35.4,11.6c13.6,9.3,27.4,18.3,41.1,27.4c4.9,3.2,10.3,5.8,15.9,7.6
		c11,3.5,21.2,8.8,31.5,13.9c11.1,5.4,19.7,13.9,27.5,23.2c4.2,5.1,4,9.2-0.6,14.2c-2.8,3-5.9,5.9-9.3,8.1
		c-12.7,8.2-22.1,19.3-29,32.6c-0.5,1-1.3,2-1.7,3.1c-9.6,23.8-29.2,37.2-51,47.6c-20,9.5-39.7,19.4-58.9,30.4
		c-16.9,9.7-31.7,21.5-44.1,36.3c-6.1,7.3-13.7,11.9-22.8,14.2c-2.6,0.7-5.2,0.9-8.6,0.9c-6-0.7-12.6-2.4-18.4-6.1
		c-7-4.4-13.7-9-19.8-14.7c-7.1-6.7-14.8-12.6-22.1-19c-15.3-13.7-28-29.2-36.1-48.5c-7.4-17.7-15.5-35.1-28.7-49.5
		c-1.8-1.9-2.8-4.5-4.1-6.8c-2.1-3.6-4.2-7.1-7.3-9.9c-20-18.2-43.4-29.1-70.1-32.8c-7.6-1.1-15.2-1.5-22.9-2.1
		c-10.7-0.8-20.9-3.7-30.5-8.4C913.6,497.5,913.3,495.6,919.6,490.9z M899.2,483.7c-6.3,4-12.7,4.3-19.1,0.2
		c-2.7-1.7-5.5-3.5-8.4-4.9c-14.5-6.9-20.8-18.4-19.7-32.6c-0.7-16,5.7-25.7,18.9-31.5c17-7.5,33.5-8.3,49.9,1.5
		c1.8,1.1,3.6,2,5.4,3c9.6,5.2,13.2,14.3,9.1,24.5c-3.1,7.7-7.4,14.7-13,20.9C915.6,472.2,907.7,478.3,899.2,483.7z M1230.1,1067.3
		c0.1-5,0.8-10,1.5-14.9c1.3-9.3,3-18.6,4.3-28c1.5-11.2,0.7-22.1-1.3-33.3c-2.9-16.2-4.1-32.7-5.6-49.1
		c-1.4-14.7-2.2-29.4-3.3-44.1c-0.6-8-3.6-15.5-5.1-23.3c-4-21.2-3.8-42.2,4.9-62.4c3.2-7.4,8.8-13.3,13-20
		c6.6-10.6,12.5-21.4,11.7-34.8c0.4-13.9-5.5-26.1-12-38.1c-6.6-12.2-6-22,4.6-30.8c20.3-17,40.1-34.7,64.8-45.6
		c14.5-6.4,28.5-14.2,41.9-22.7c12.2-7.7,20.8-19,28.8-30.7c4.3-6.3,9.5-12,14.1-18.1c1.2-1.6,2.8-3.1,4.5-4.1
		c3.8-2.2,7.7-0.7,9,3.5c1.3,4,1.5,8.1,1.3,12.3c-0.3,8.9,2.7,16.7,7.7,23.9c13.5,19.6,30,36.2,49.5,49.9
		c9.5,6.7,16.2,15.4,19.8,26.4c1.4,4.2,2.5,8.5,3.8,12.7c1.8,5.4,4.4,10.2,9.3,13.6c5.3,3.6,8.5,8.6,9.8,15.1
		c2.3,11,6.1,21.6,12.1,31.2c5.2,8.3,5.5,18,7.8,27c3.6,14,5.4,28.1,3,42.8c-3.2,19.7-13.8,33.4-30.7,42.7
		c-13.2,7.2-26.8,13.3-41.7,16.7c-16.4,3.8-31.7,11.1-47.1,17.7c-16.6,7.2-29.9,19.4-37.7,35.9c-6.1,12.7-9.9,26.5-11.1,40.7
		c-0.5,6.2-0.3,12.4-0.6,18.6c-0.5,10.2-5,18.2-14.5,22.5c-17.7,7.9-35.5,15.7-53.5,23.2c-9.4,3.9-17.4,9.8-25.4,15.9
		c-4.7,3.5-9.2,7.3-13.9,10.9c-4,3.1-8.6,5.1-13.7,5.7C1231.9,1077,1229.9,1075.6,1230.1,1067.3z M1255.2,1154.6
		c3.2,1.7,5.7,4,8.1,6.7c8.4,10.1,5.8,21.7-6.5,26.8c-11.1,4.6-22.4,9.1-36.4,10.1c-10.9-3.8-24.4-5.5-35.8-12.1
		c-9.7-5.7-11.2-11.7-5.7-21.4c5.8-10.2,10.1-21.3,19.4-29.2c6.7-5.8,8.6-6,16.5-2.4C1228.7,1139.3,1241.6,1147.4,1255.2,1154.6z
		 M1221.6,748.7c5,2.7,6.4,7.4,6.4,12.7c0.1,5.2-1.6,9.8-5,13.8c-4.4,5.2-8.6,10.5-11.9,16.5c-5.8,10.7-10.3,21.9-11.2,34.2
		c-0.6,7.3-1.5,14.6-2.2,22c-1.1,11.4,0.6,22.6,4.9,33c5.9,14.5,6.5,29.3,4.9,44.3c-2.1,19.3-0.4,38.2,4,57
		c2.2,9.6,3.6,19.1,1.7,28.8c-3.4,17.4-3.6,35.2-7,52.5c-1,4.9-2.1,9.8-3.8,14.5c-1.4,3.9-3.4,4.2-6.6,1.5c-2.1-1.8-3.4-4.1-4.5-6.5
		c-11.3-25.3-22.4-50.7-30.2-77.3c-0.2-0.6-0.4-1.1-0.5-1.7c-3.3-21.8-15.3-37.8-33-50.2c-5.5-3.9-10.9-8.2-15.9-12.7
		c-5.9-5.3-13.6-6.8-20.2-10.7c-17.8-10.8-37.4-15.4-58.1-16c-7.1-0.2-14.1-1.1-21.1-1.9c-21.4-2.4-43-1-64.4-3.5
		c-12-1.4-24.1-0.9-35.9-4.6c-8.1-2.6-14.6-7.5-20.4-13.3c-3.9-4-3.5-9.4,0.4-15.5c7.3-11.7,17.6-20.4,28.4-28.7
		c20.1-15.6,43.6-21.5,67.8-26c5.5-1,10.9-2.4,16.4-3.7c37.8-8.9,75.7-17.8,113.5-26.7c8.7-2.1,16.7-5.9,24.4-10.3
		c12.8-7.3,25.6-14.7,38.2-22.2C1194.5,739.5,1208.1,741.3,1221.6,748.7z M1148.4,1186.1c4.8-5.7,7.7-6.2,11.6-0.3
		c8.7,13.1,20.8,20.5,36.1,23.2c2.3,0.4,4.7,1.1,6.7,2.2c11.8,6.1,23.9,5.1,36.2,1.8c9.1-2.5,17.9-5.8,26.7-9.4
		c7.2-2.9,12.2-8.3,15.4-15.2c2.6-5.6,6.7-7,12.1-6c4.6,0.9,9.5,1.5,13.6,3.5c16.8,8.1,35,10.3,53.1,12.1c22.7,2.3,45.2,0,67.7-4.3
		c15.6-2.9,31.2-6.2,46.5-10.5c10.5-2.9,21-5.8,31.5-8.3c2-0.5,4-1.3,6-1.2c2.3,0.1,4.8,1.1,6,3.2c1.5,2.6-0.8,4.3-2.3,6.1
		c-4.1,4.8-9.6,7.8-14.8,11.1c-15,9.3-29.2,19.9-43.8,29.8c-5.4,3.7-9.1,9.2-13.9,13.6c-6.8,6.2-14.6,10.9-21.7,16.6
		c-9.2,7.4-15.8,16.7-21.4,26.7c-6.9,12.3-13.3,25-19.6,37.6c-7.4,14.8-12.7,30.4-15.2,46.9c-0.8,5.2-2.1,10.3-4.3,15.3
		c-9,20.8-26.4,26.1-47.7,26.3c-5.9,0.7-12.6-0.6-19.3-1.4c-8.7-1-16.2-5.9-21.8-12.6c-12.9-15.6-29.9-24.6-48.8-30.3
		c-12.8-3.8-25.5-8.3-36.1-16.2c-10.1-7.5-21.4-13.4-30.8-22.1c-6.5-6-13.7-11.2-20.9-16.4c-4.6-3.3-8.4-7.3-12.1-11.6
		c-3.6-4.2-5.2-9-5.4-14.6c-1.4-28.9,6.1-55.4,21.3-79.8C1142.3,1196.8,1144.4,1190.9,1148.4,1186.1z M1474,1165.2
		c-35.1,8.9-70.2,18.5-107,15.7c-11.4-0.9-22.8-1.9-34-4.7c-15-3.7-27.1-12.7-40.3-19.9c-12.2-6.7-23.6-14.3-33.8-23.8
		c-5.6-5.2-12.1-9.4-19.2-12.5c-5.7-2.5-6-4-1.4-7.9c10.1-8.6,20.4-16.9,30.8-25.1c6-4.7,12.4-9.1,17.7-14.7
		c4.6-4.9,10.1-7.9,16.2-10.3c15.9-6.3,31.7-12.8,48.4-16.7c9.5-2.2,18.3-5.8,24.6-14.3c6-8,8.8-16.6,8.6-26.3
		c-0.2-8.2-0.6-16.5-1.3-24.7c-0.5-5.4,0.1-10.5,2-15.6c4.9-13,12.2-24.2,23.4-32.6c1.6-1.2,3.3-2.5,4.8-3.9
		c14.1-14.2,32-17.9,51-18.3c9.9-0.2,12.3,1.9,15.1,11.3c1.2,4,1.5,8.1,1.4,12.3c-0.2,12.9,0.7,25.9-0.6,38.9
		c-0.9,8.6,1.3,16.4,7,23c8.4,9.9,16.2,20.2,25.1,29.7c4.9,5.2,10.2,9.8,16.5,13.2c12.9,7.1,19.5,18.6,22.1,32.5
		c3,15.9,4.9,32,4.4,48.3c-0.3,9.7-0.9,19.5,3.9,28.8c-2.1,0.8-2.7,1.1-3.2,1.2C1527.6,1148.9,1501,1158.3,1474,1165.2z
		 M1644.5,1180.2c10.6,1,21.1,2.4,31.6,3.9c5.9,0.8,11.7,1.1,17.6,1.1c16.5-0.1,33-0.2,49.5,0c22.8,0.2,45.3-1.7,67.7-5.9
		c7.1-1.3,7.2-0.9,6.4,6.7c-2.1,20.2,4,37.7,17.8,52.6c1.4,1.5,3.1,2.7,4.5,4.3c3.1,3.7,2.7,8.6-1.1,11.7c-1.8,1.5-3.9,2.8-6,3.6
		c-18,6.7-36,13.2-52.5,12.2c-31.8-0.8-59.5-6-86.4-15.3c-23.8-8.2-41.3-23.3-51.2-46.8c-2.4-5.7-5.2-11.3-7-17.2
		C1633.2,1183.8,1636.8,1179.5,1644.5,1180.2z M1834.7,1199.6c-1.6-8.6-0.6-16.4,7.4-21.8c1.7-1.1,3.2-2.7,4.8-3.9
		c12-8.7,22.9-18.6,31.4-30.8c13-18.8,32.2-27.9,52.8-35c19.5-6.6,39.2-12.6,58.5-19.8c5.8-2.2,11.8-3.8,17.8-5
		c7.9-1.6,15.3-4.4,22.4-8c12-6.3,23.7-13.1,35.6-19.5c20.4-10.9,36.3-27,52-43.4c1.6-1.7,3.1-3.6,4.9-5c6.9-5.5,14.1-7.7,22.8-3.3
		c10,5.1,19.5,11,28.7,17.4c7.5,5.2,10.7,13.2,8.8,22.5c-1.8,8.9-4,17.8-6,26.7c-2,9-6.6,16.2-14.9,20.9c-8.5,4.8-15.6,11.6-23,17.9
		c-2.7,2.3-5.4,4.7-7.7,7.3c-17.3,20-32.6,40.9-37.6,67.8c-2.5,13.5-9.4,23.9-23.3,28.6c-5.5,1.9-10.7,4.9-15.9,7.7
		c-7.5,4.1-15.4,7.2-23.7,9.4c-14.5,3.8-29,7.8-43.3,12.4c-20.2,6.5-40.7,9.3-62.5,8.4c-10.9,0.9-22.3-0.7-33.7-1.7
		c-8-0.7-15.5-3.7-22.4-7.7c-3.8-2.2-7.3-5-11.1-7.2C1844.5,1226.6,1837.5,1214.5,1834.7,1199.6z M2055.6,757.2
		c-3.5,6.9-8,12.3-14.8,15.7c-12.6,6.4-24.1,14.8-36.1,22.3c-13.6,8.6-24.8,19.8-34.3,32.8c-8.4,11.4-17.4,22.2-28.9,30.9
		c-11.7,8.8-19.3,21.4-27.4,33.3c-4.1,6-8.2,12.2-11,19.1c-3.3,8-3.8,16.4-4.1,26.2c-6.5-4.4-12.3-7.8-18.7-9.9
		c-16.3-5.5-33.2-7.8-50.3-9c-10-0.7-20-2.1-29.7-4.5c-11.6-2.9-20.7-10.4-29.5-18.3c-15.6-14.1-16.6-31.9-13.5-50.4
		c2.2-13.4,4.5-26.7,5.3-40.2c1-18.1,0.3-35.9-9.7-52.1c-2.9-4.6-6.9-8.1-10.4-12c-10.3-11.3-19.5-23.7-30.2-34.6
		c-4.4-4.5-7.2-10-9-16c-8.1-27.5-7.9-54.6,3.7-81.3c3.2-7.3,5.7-14.8,7.4-22.7c1.1-5.2,2.9-10.2,6-14.6c1.9-2.7,4.2-3.3,6.8-1.5
		c4.8,3.4,10.4,5.4,15,9.3c10.2,8.6,22.4,14.1,33.2,21.8c19.6,14.1,39.6,27.7,59.5,41.4c12,8.2,25.3,12.2,39.8,12.8
		c19.5,0.9,38.8-1.7,58.2-2.6c36.8-1.7,71.6,4.6,103,25c10.5,6.8,18.2,16.7,26.2,26.1c1.9,2.3,2.4,5.4,2.3,8.4
		C2063.6,727.8,2062.8,743,2055.6,757.2z M1573.5,461.2c11.5,2.9,23.4,2.5,35.1,4.2c39.2,5.6,67.7,25.7,84.2,61.9
		c4.3,9.4,8.5,18.9,7.6,29.7c0.3,15.5-3.4,30.3-9.4,44.5c-7.9,18.8-11.9,38.2-10.8,58.6c0.8,13.6,3.2,26.9,7.7,39.8
		c2.5,7,6.3,13.3,11.5,18.7c10.5,10.7,19.1,23.2,29.7,33.9c14.6,14.7,17,32.5,16,52.1c-1,18.9-6.5,37.1-7.8,55.9
		c-0.5,7.6-2.6,8.9-10.4,8.6c-2.3-0.1-4.7-0.5-6.9-1.2c-8.5-2.4-17-4.6-25.4-7.4c-14.3-4.7-28.8-8.4-43.8-10.1
		c-12.5-1.4-24-5.9-34.4-13c-6.4-4.3-13.1-7.8-20-11.3c-9.5-4.8-17.8-11.2-22.8-21.2c-12.2-24.3-27.4-46.8-41.1-70.1
		c-2.1-3.6-4-7.1-5.2-11.2c-2.6-9-7.4-16.7-13.8-23.4c-4.8-5-8.2-10.6-10.6-17.1c-3-8.3-6.1-16.5-11.4-23.8
		c-4.6-6.2-9.7-11.8-16.1-16.2c-10.2-7-20.3-14.2-26.8-25.3c-0.9-1.5-2.5-2.5-3.8-3.6c-10.2-8.2-14.6-18.9-14.2-31.8
		c0.5-16.5,1.1-32.9,1.7-49.4c0.1-2.3,0.7-4.7,1-7c1.6-9.9,5.8-18.3,13.1-25.4c6.3-6.1,12.4-12.5,17.5-19.9c2.6-3.9,6-7.4,10-9.9
		c11-6.9,19-16.6,26.3-27.1c0.8-1.2,1.6-2.5,2.7-3.5c4.5-4.6,9.2-5.2,15-2C1535.8,447.8,1553.9,456.2,1573.5,461.2z M1498.5,394.2
		c-1.5,26-13.4,46.3-34,61.9c-5.7,4.3-10.9,9.1-15,14.9c-4.5,6.3-10.1,11.5-15.1,17.3c-2.4,2.7-5.3,4.6-8.7,5.9
		c-4.9,1.9-8.9,1.5-12.8-2.6c-13.3-14-30.3-22.4-47.9-29.2c-14.4-5.6-27.6-12.4-40.1-21.7c-16.2-12.1-30.5-25.7-42.7-41.7
		c-9.9-13-11.5-26.6-5.3-41.5c3.5-8.4,10.7-12.2,18.4-15.4c15.7-6.6,32-11.6,46-21.9c5.7-4.2,12.6-6.4,19.4-8.3
		c10.5-3,20.7-6.9,30.6-11.4c8.6-4,17.3-3.9,26.6-1.7c19.7,4.8,34.7,16,48.3,30.5c11.9,12.7,20.2,27.4,28.2,42.5
		C1498.2,378.7,1498.9,386.3,1498.5,394.2z M1330.8,299.7c-2,5.1-5,9.3-10.2,11.7c-9.6,4.4-19,9.5-29,13
		c-19.6,6.9-31.8,19.5-35.2,40.2c-1.6,9.6-4.2,18.9-8.3,27.8c-2.5,5.6-6.3,9.6-11.6,12.8c-13,7.7-27,11.4-41.8,12.8
		c-1.8,0.2-3.5,0.3-5.2,0.7c-19.2,4.8-38.9,6.6-58.2,10.3c-20.6,3.9-40.1,11.6-59.6,19.1c-8,3.1-16.1,5.6-24.9,5.3
		c-3.5-0.3-7-0.6-10.6-0.8c-13.4-1.1-20.7-11.4-29.4-19.6c-1.9-1.8-3.3-4.1-5-6.2c-12.1-14.5-10.3-36.1,4.7-47.7
		c14.4-11.1,23.9-24.8,28.2-42.5c3.1-12.7,12-19.7,24.5-22.7c12.1-2.8,24.4-3.5,36.6-5.7c27-4.7,53.6-11.1,80.4-16.7
		c27.6-5.8,55.2-8.2,83.3-5.3c12,1.2,24.1,1.6,36.2,1.8c8.6,0.1,17,1.3,25.5,1.8c2,0.1,4.1,0.7,5.9,1.5
		C1332,293.6,1332.6,295.1,1330.8,299.7z M996.1,365c-10.2,7.1-15.6,17.5-19.8,28.6c-2.9,7.6-7.1,14.3-14.7,18.1
		c-1.8,0.9-3.7,1.8-5.7,2.3c-3.9,1-6.8,0.1-10.4-2.5c-27.2-20.5-52.3-27.3-85.5-10.7c-10.5,5.2-19.3,12.5-23.4,24.1
		c-0.8,2.2-1.8,4.4-2.9,6.4c-5,9.3-11.9,15.9-23.1,17c-5.9,0.6-11.7,1.3-18.2,1.2c-7.8,0.5-15.9-1.2-23.9-2.9
		c-15.3-3.3-30.4-7-44.8-13.2c-12.5-5.4-25.7-8.3-39.1-10.8c-14.9-2.8-16.7-8.9-7.6-21c20.5-26.8,45.4-49.3,69.5-72.6
		c5.4-5.3,9.6-11.2,12.1-18.2c3.9-11.2,10.9-19.8,20.3-27c14-10.8,27.1-22.6,40.7-33.9c2.7-2.3,5.4-4.7,8.5-6.3
		c13.4-6.7,27.1-13,41.5-17.5c10.3-3.2,21.1-0.9,31.5,1.1c11.8,2.3,23.7,4.7,35.4,7.4c18.2,4.3,37,8.5,53.4,17.4
		c15.1,8.1,26.1,21.8,27.9,40.4c0.5,5.3,1.3,10.5,1.5,15.8C1020.6,330.8,1015.9,351.1,996.1,365z M675,439.7
		c19.6,2.8,37.7,9.7,55.8,16.2c21,7.5,42.1,13.2,64.2,15.6c16.5,1.8,32.4,6.1,46.8,14.9c5.8,3.5,12.1,6,18.1,9.2
		c6.4,3.5,8.1,7.5,6.6,14.7c-1,4.7-2.6,9.5-6.1,12.6c-10,8.9-13.8,21.1-17.7,33.1c-6.6,20.4-8.3,40.9,0.6,61.3
		c3.2,7.3,7.8,13.1,14.5,17.3c3.1,1.9,6.4,3,10.1,2.7c7.4-0.6,10.9-6.2,8-13.1c-0.8-1.9-2-3.6-3.3-5.2
		c-13.6-17.2-15.6-36.3-9.3-56.7c3.2-10.2,8.9-19.2,14-28.5c9.1-16.6,26.7-18.1,39.9-14c15.5,4.8,31.3,8.3,47,12.3
		c19.1,4.8,37.8,11.4,55.2,21c10.3,5.7,17.9,14.5,23.8,24.4c8.7,14.7,16.5,29.9,25.1,44.7c11.5,19.9,23.7,39.3,39.8,56
		c5.7,5.9,10.9,12.4,16.6,18.4c10,10.3,21.8,18,35,23.4c8.9,3.7,9.5,8.9,1.9,14.6c-6.7,5.1-14.4,8-21.9,11.4
		c-14.7,6.8-29.5,13.1-45.1,17.8c-31.1,9.2-62,18.8-93.6,26.1c-11.8,2.7-23.5,5.5-35.4,7.9c-32.8,6.6-59.2,23.8-81.2,48.4
		c-2.5,2.8-4.8,5.1-9,4.2c-4.7-1-5.6-4.6-6.3-8.6c-0.6-3.8-0.9-7.6-0.4-11.4c1.3-9.9,2.8-19.8,4.8-29.6c1.5-7.1,4.6-13,9.5-18.6
		c17.9-20.1,27.1-43.7,27.7-70.8c0.5-19.4-11.5-32.4-27.5-37.6c-17.3-5.6-34.6-11.3-52-16.8c-23.1-7.3-45.4-16.5-67.3-26.8
		c-2.9-1.4-5.8-2.9-8.6-4.6c-24.6-15.4-50.2-28.3-78-37c-15.3-4.7-29.4-11.9-42.4-21.4c-9.7-7.1-20.7-12.5-28.7-21.9
		c-1.1-1.3-2.8-2.3-4.5-2.8c-5.6-1.5-9.8-5.3-14.1-8.9c-10.8-9.2-21.6-18.3-32.2-27.6c-11.8-10.3-24.4-19.4-38.3-26.8
		c-2.1-1.1-4-2.4-6-3.7c-0.4-0.2-0.3-1-0.7-2.2c18.4-2.3,36.1-7.6,53.8-12.6c13.9-3.9,27-10.1,40.7-14.6
		C628.1,438.6,651,436.2,675,439.7z M690.3,946.4c8.1,5.9,14.8,12.6,18.9,21.8c5.4,12.1,11.1,24.1,16,36.4
		c4.9,12.5,5.1,25.9,6.5,39.1c0.4,3.8,0.1,7.6,0.1,11.5c0.4,21.4-3.4,42.2-11,62.2c-4.4,11.8-8.7,23.5-17.1,33.7
		c-6.9,8.3-14.7,15.2-23.2,21.6c-15.6,11.8-32.3,21.2-51.4,26.7c-21.2,6.1-42.1,13.4-62.7,21.3c-6.5,2.5-13.7,3.5-20.6,5
		c-12.9,2.9-25.6,6.8-38.7,9.1c-17.8,3-35-4.9-42.3-21.4c-5.8-13.1-12.9-25-22.4-35.7c-4.7-5.3-6.7-12.4-8.8-19.1
		c-2.5-7.9-5.1-15.7-8.1-23.4c-9.2-24,0.1-56,20.7-71.6c9.4-7.1,19.6-13.2,30.1-18.4c18.2-9.1,35.9-18.9,53.4-29.2
		c14.2-8.4,29-15.8,43.9-22.9c7.7-3.7,15.1-8,22.6-12.1c0.8-0.4,1.7-0.8,2.2-1.5c9.6-12.4,24.3-15.9,37.9-21.1
		c11.5-4.4,23.5-7.9,34.4-13.7C677.8,940.8,683.8,941.7,690.3,946.4z M437.1,1211.5c2.7,5.2,5.6,10.4,7.9,15.8
		c6,13.7,15,24.5,29.2,30.5c0.7,0.3,1.2,1.1,1.8,1.6c-0.9,2.8-3.4,3.4-5.5,4.3c-18.3,8.3-31.3,21.5-38.5,40.5
		c-4.2,11-9.4,21.6-16.4,31.2c-9.4,12.7-13.1,27.7-14.1,43.1c-0.7,10.8-5.8,16.2-15.3,20c-9.5,3.8-19.1,4.4-28.6,2.7
		c-28.4-4.9-53.8-16.8-76.3-34.9c-13.3-10.7-26.4-21.7-39.6-32.5c-10.3-8.4-19.1-18.1-26.3-29.5c-9.1-14.4-19.9-27.7-30.9-40.8
		c-2.6-3.2-5.4-6.3-7.5-9.8c-7.4-12.7-14.7-25.5-21.9-38.4c-2.8-5.1-3.2-10.8-2.8-16.3c0.6-6.9,6.3-10.6,11.6-13.4
		c10.2-5.4,21-8.4,32.9-9.1c60.1-3.3,120.2-0.6,180.3-1.5C402.4,1178.5,424.4,1187.4,437.1,1211.5z M388.3,1444.4
		c8.2-10.7,18.4-17.2,32.5-16.2c9.4,0.6,18.8-0.3,28.2,1c8.9,1.2,17.3,3.4,25.3,7.3c20.1,9.9,41.1,17.5,60.5,29.1
		c17.1,10.2,36.1,16,55.4,20.4c13.5,3.1,27,6.2,40.6,8.7c27.3,5,55,6.1,82.7,5.6c2.3,0,4.6-0.8,6.9-1.2c3.6-0.7,7.1-0.1,10.3,1.6
		c5,2.7,5.8,7.6,1.8,11.6c-0.6,0.6-1.3,1.2-2.1,1.6c-17.2,8.8-31.6,21.7-47,33c-24.8,18.2-52.7,30-81.4,40.1
		c-24.7,8.7-49.8,16.4-75.4,22.4c-21.3,5-41.4,13.3-60.3,24.6c-21.2,12.7-44.6,19.7-69.2,22.7c-16.4,2-32.7,4.4-49.1,6.2
		c-6.7,0.7-13.5,0.1-20.3,0.1c-10.9,0.6-21.8,0.7-32.4-2.6c-6.2-2-12.1-4.2-17-8.8c-3.6-3.4-8.3-5.6-12.4-8.5
		c-5.6-4-10.3-8.8-13.4-15.1c-4.8-9.8-2.2-19.4,6.7-25.6c6.8-4.7,14.3-8.6,20.2-14.3c17.4-16.9,39.2-29.4,52.4-50.7
		c4.6-7.4,7.9-15.1,10.7-23.2c6.6-18.9,16.5-35.7,29.9-50.6C378.1,1457.4,383.3,1451,388.3,1444.4z M686.2,1478.8
		c-18.6,1.3-39,0.4-59-3.2c-31.9-5.7-63.3-12.6-91.9-29.6c-21.2-12.6-44.3-22.1-67.4-30.7c-10.2-3.8-21.3-4.5-31.5-8.4
		c-0.8-0.3-1.7-0.5-2.5-0.8c-13.3-4.5-13.1-6.5-14.6-19.8c-0.6-5,0.1-10.1,1.9-14.8c4.3-11.8,7.6-24,14.8-34.6
		c5.8-8.6,9.4-18.4,13.3-27.9c5.3-12.9,14.3-22.1,26.7-28.1c9.8-4.8,18.9-10.8,27.8-17.1c4.2-3,8.4-4.8,13.5-5.9
		c19.6-4.1,38.7-10.3,57.3-17.8c24.8-10,49.6-20.2,75.1-28.5c27.3-8.9,52.4-22.6,73-43.4c4.8-4.9,8.2-5,14.2-1.5
		c5.8,3.5,9.3,9,12.7,14.5c8.7,14.4,18.1,28.4,29.8,40.5c18.7,19.3,38.7,37.1,63.5,48.4c8,3.7,12.6,9.6,14.2,18.7
		c4.3,24.6-0.1,47.2-12.3,69c-9.6,17.2-18.2,35-21.8,54.8c-0.9,5.2-0.8,10.5-2.2,15.7c-2.4,8.8-6.4,16.2-13.8,21.9
		c-9.4,7.2-19.1,13.8-29.2,19.9c-6.7,4-13.9,5.7-21.8,6.2C733.3,1477.5,710.7,1479.6,686.2,1478.8z M848.7,1390.8
		c5.3-10.9,10.4-21.8,16.2-32.4c9.6-17.6,12.2-36.7,12.6-56.4c0.1-4.4,0.4-8.9,0-13.3c-0.4-5.2,1.9-8.4,6.3-10.4
		c1.9-0.8,3.7-1.8,5.6-2.5c34.6-12.2,67.1-28.8,98.2-48c11-6.8,21-15.2,32-22c24.1-14.9,50.4-24.1,77.6-31.2
		c6.3-1.6,12.6-3,18.9-4.5c0.3-0.1,0.6-0.2,0.9-0.2c4.6-0.4,10-2.9,13.3,1.5c2.9,3.9-0.3,8.5-2.2,12.4c-2.4,5-5.1,10-7.8,14.9
		c-14.1,25.6-21,52.9-20.6,82.2c0.1,7.7,1.6,15.2,3,22.8c2.5,13.9,1.7,27.8-1.6,41.2c-3.1,12.8-11.4,23.1-20.5,32.5
		c-8.1,8.4-17.9,14.3-28.3,19.3c-24.4,11.8-48.4,24.4-73.2,35.5c-14.5,6.5-29,12.8-43.7,19c-7.7,3.2-15.8,4.7-24.6,4.8
		c-4.1,0.5-8.4-0.6-12.7-1.6c-8.9-2.1-17.6-5.1-26.6-6.2c-12.1-1.6-18.2-8.9-21.1-19.6c-2.2-8.2-3.4-16.7-5-25.1
		C844.7,1398.8,846.8,1394.7,848.7,1390.8z M900,1478.3c0.4-1.6,1.8-2.2,3.3-2.5c2.3-0.5,4.6-1.2,6.9-1.3
		c16.9-0.7,32.3-6.4,47.2-13.7c14.8-7.3,30.5-12.3,45.2-19.9c20.9-10.8,42.2-21,63.4-31.3c17.2-8.4,30.4-21,41-36.7
		c3.5-5.1,7.6-9.8,10.8-15.1c9.1-14.9,29.9-15.6,40.8-8.2c12,8.1,25,14.4,36.5,23.1c1.9,1.5,4.1,2.1,6.4,2.7
		c22.5,5.6,42.3,16.2,59.3,31.8c14.3,13.1,31.1,18.5,50.2,18c3.4-0.1,6.9,0,10.3,0c0.2,0.6,0.5,1.1,0.7,1.7
		c-9.1,8.5-16.9,18-24.7,27.5c-9.3,11.4-20,21.5-29.8,32.5c-8.8,9.9-15,21.7-21.5,33.3c-9.2,16.4-18.5,32.7-29.5,48.1
		c-6.9,9.6-16.3,15.2-27.1,18.7c-11.3,3.5-22.9,5-34.7,6.2c-47.5,5-92.6-4.1-136.4-21.5c-16.7-6.6-31.3-16.9-41.9-31.4
		c-17.5-24-41.1-40.2-66.8-53.9c-2.3-1.2-4.7-2.4-7-3.8C900.8,1481.6,899.4,1480.3,900,1478.3z M1243.8,1564.9
		c0.9-3.1,1.8-6.3,3.4-9.1c9.9-18,17.9-37.2,30.4-53.7c3.2-4.2,6.9-8,10.8-11.7c14.8-14,26.2-31,40.4-45.6
		c8.3-8.5,18.2-14.9,27.3-22.4c3.7-3.1,8.5-4.1,13.2-4.7c23.6-3.5,46.6-2.5,69.7,5.3c29.8,10,59.5,20.6,89.8,29.4
		c19.7,5.7,39.5,9,60.6,7.7c-1.2,4.2-3.6,6-5.6,8.1c-4.8,5.2-10.1,10-14.4,15.6c-13.8,17.9-31.1,32-48.4,46.3
		c-4.3,3.6-8.7,7.1-12.7,11c-8.7,8.5-18.9,13.9-30.6,16.7c-15.7,3.9-31.3,8.5-47.3,10.8c-3.8,0.5-7.6,1.3-11.4,1.4
		c-21.5,0.5-42.9,2.1-64.5,1.5c-20-0.6-40,1-59.9,2.9c-12.6,1.2-25.3,1.2-38,0.8c-2.3-0.1-4.7-0.2-7-0.8
		C1243.6,1573.1,1242.2,1570.7,1243.8,1564.9z M2119.9,1182.6c-2.5-1.3-3.2-3.3-2.9-5.8c0.2-1.5,0.4-3,0.9-4.3
		c6.3-16.3,14.4-31.7,26.8-44.2c8.3-8.4,17.1-16.3,27.3-22.4c11.8-7.1,18.8-17.4,21.8-30.7c2-8.9,4.8-17.6,6.6-26.6
		c3.7-18.6,12.3-35,22.9-50.3c12.7-18.2,27.6-34.5,46.8-46.4c6.3-3.9,11.9-8.7,17.1-13.9c12.9-13.1,20.2-28.8,21.4-47.3
		c0.5-7,2.1-14,1.7-21.1c0-0.6,0-1.2,0.1-1.8c1-3.9,0.8-8.8,5.2-10.5c4.9-2,8.2,1.5,11.4,4.8c2.5,2.5,5,5.1,7.7,7.3
		c3.6,2.8,6.1,6.2,7.6,10.6c2.4,7.2,6.6,13.2,12.8,17.6c3,2.1,4.6,5.3,6.7,8.1c6.6,8.9,15,14,26.4,13.3c10.9-0.6,21.7-1.4,31.9-5.8
		c4-1.7,8.3-2.9,12.6-3.9c7.8-1.8,10.9,0.3,11.8,8.5c0.7,6.1,0.7,12.4,0,18.5c-2.3,19.7,3.8,37.2,13.2,54c15.7,28.3,24,58.6,24,91.1
		c0,8.3-1.7,16.3-3.4,24.4c-1,4.9-1.9,9.8-2.7,14.8c-1.7,9.5-5.3,17.9-11.4,25.5c-8.1,10.2-16,20.2-27.6,26.9
		c-9.4,5.5-19.1,8.5-29.7,10.3c-29.4,4.8-58.6,10-87.8,15.7c-24,4.7-48,4.2-72.1,1.8c-8.8-0.9-17.6-1.5-26.5-1.4
		c-15.9,0.1-31.8-1.7-47.7-1.3C2153.7,1198.3,2136.5,1191.4,2119.9,1182.6z M2423.6,892.1c-9.1,4-18.7,7-28.6,8.8
		c-9.9,1.8-17.1-1-21.9-10.3c-3.2-6.2-7.2-12.1-11.7-17.6c-6.3-7.8-5.2-15.3,2.7-21.2c3.5-2.6,7.3-4.9,10.7-7.7
		c7.8-6.3,14.3-13.7,19.5-22.5c7.4-12.4,15.6-24.3,25.8-34.5c1.5-1.5,2.8-3.1,4.5-4.3c9.7-7.2,16.8-5.4,21,5.8
		c3.9,10.5,9.1,20.4,12.1,31.2c1.8,6.3,3.1,12.5,2.9,19.1C2459.5,870.3,2447.1,881.9,2423.6,892.1z M2273.3,449.4
		c-4.3,12.2-12.3,20.5-24.5,24.9c-3.9,1.4-8.6,1.9-11.4,4.5c-10.6,9.4-24,14.9-33.4,25.9c-6.3,7.4-13.3,14-18.5,22.4
		c-7.7,12.5-8.4,25.4-4.9,39.1c2,7.7,4.1,15.4,5.5,23.2c1.8,9.8,2.1,19.5-7.2,26.5c-13,22.2-32.2,39.9-45,62.1
		c-10.5,18.2-16.7,37.5-16.6,58.8c0.1,15,0.6,30-1.1,45c-1.4,12.8-7.1,23.6-13.4,34.3c-3.2,5.4-8.1,4.9-11.7-1.1
		c-4-6.6-6.2-14-9-21.1c-2.4-6.1-3.9-12.4-3.2-18.4c-0.1-4.7,0.2-8.8,1.2-12.8c5.1-20.9,4.9-42.1,1.5-63.1
		c-3-18.8-13.5-32.4-31.8-39c-3.6-1.3-6.9-3.1-10-5.4c-2.6-2-5.2-4.1-8.2-5.1c-15-5-27.4-14.9-41.1-22.2
		c-21-11.2-35.1-28.6-44.1-50.1c-7.1-17-16.5-32.6-26.8-47.6c-3.4-5-5-9.7-3.9-15.6c2.7-15.1,5.6-30.1,14-43.4
		c4.1-6.4,9.4-11.4,16.4-14.3c19.6-8.2,36.2-20.6,50.9-35.9c4.2-4.4,9.3-8.1,14.4-11.7c4.9-3.5,10.5-5.5,16.6-5.1
		c13.2,0.8,26.4,1.8,39.1,6.1c15.9,5.4,32.3,5.9,48.9,4.8c10.9-0.7,21.8-1.1,32.7-0.7c16,0.5,31.7-1.9,47.4-4.2c7-1,14-1.9,21-2.6
		c4.7-0.5,9.5-0.4,13.6,2.5c10.5,7.2,22.1,12.2,33.8,17.2C2274.4,431.5,2277,438.9,2273.3,449.4z M2232,375.4
		c-14.5-12.2-30.4-21.7-48.1-28.9c-19.5-7.9-32.8-22.6-39.7-42.6c-1.4-4-1.7-7.9-0.8-12.2c4.2-19.4,14.1-36.1,24.9-52.3
		c3-4.6,7.7-8.1,11.7-11.9c3.3-3,7.5-3.2,12.3-3.1c10.7,1,21.3,4.5,31.2,9.9c8.8,4.9,17.9,9.1,27.4,12.2c9.3,3.1,18.1,7.2,26.1,12.7
		c17.2,11.7,36.7,17,56.9,20.5c4.1,0.7,8.2,1.2,12,3c4.7,2.2,6.2,5,4.6,10c-1.4,4.5-3.3,8.8-5.6,12.9c-5.2,9.3-11.4,17.9-17.8,26.3
		c-2.3,3-5.3,4.8-8.6,5.9c-13.4,4.3-24.7,12.3-36.3,19.9c-12.9,8.5-27.4,13.4-41.5,19.4C2237.2,378.7,2234.8,377.8,2232,375.4z
		 M1903.6,55.2c28.9-11,57-24,86.8-32.8c29.9-8.8,59.5-19.1,90.3-24.6c28.1-5,56.3-9.8,84.7-13.2c19.9-2.3,40-2.4,60-1.8
		c15.2,0.5,28.8,5.7,40,16.4c5,4.8,5.7,9,1.9,14.9c-8.2,12.5-18.7,22.5-32,29.7c-20.2,11-41.6,19.6-62.2,29.7
		c-16,7.9-33.9,9.7-51.2,13.2c-19.6,3.9-39.2,8.1-58.9,12.1c-16.2,3.3-30.3,11.2-43.8,20.4c-9.8,6.7-16,16.1-14.7,28.4
		c1.2,11.3-4.2,17.6-13.6,22.1c-9.6,4.6-19,9.5-28.3,14.6c-15.2,8.3-28.1,19.2-37.4,34.2c-6.2,10-15,15-27.7,15.6
		c-34.2,1.5-66.8-4.9-98.7-16.2c-9.4-3.3-19.1-6-28.6-9.3c-19.3-6.7-39.1-6-58.6-2.6c-21.4,3.7-37.6,16.1-48.1,35.4
		c-2,3.7-2.9,7.7-2.8,11.9c0.1,6.8,0,13.6,0.6,20.3c0.9,9.5-1.7,17.4-8.4,24.1c-2.7,2.7-5.2,5.7-8.1,8.1
		c-13.9,11.2-25.7,24.4-36.6,38.2c-10.4,13.1-24.4,20.7-39.5,25.6c-13.6,4.5-26.2,10.5-38.5,17.5c-4,2.3-6.2,2.1-8.7-1.6
		c-3.2-4.7-5.5-9.8-6.9-15.2c-2.8-11.6-7.4-22.2-14.5-31.9c-6.5-8.7-11.4-18.6-17.3-27.7c-8.7-13.4-20.4-23.5-34.6-30.8
		c-4.7-2.4-9.7-4.2-14.3-8.5c4.2-4.4,8.9-6.2,13.3-8.5c18.5-9.6,34-23,49.3-36.9c27.9-25.4,57.6-48.7,93.4-62.6
		c10-3.9,20.4-5.7,30.9-7.4c17.7-2.9,35.7-4.1,53.4-6.6c21.8-3.2,43.3-8.6,65.1-12.3c14.3-2.5,27.8-7.7,40.7-14.2
		c6.6-3.3,12.9-7,19.2-10.8c10.4-6.3,21.4-11.1,32.8-15.3c13.4-5,25.5-12.3,36.6-21.2C1879.2,66.8,1890.7,60.1,1903.6,55.2z
		 M1700.4,62.7c6-8.5,10.4-17.8,13.4-27.7c3.8-12.7,6.4-25.7,6.8-39.1c0.3-10.2,5.5-19.2,8.2-28.8c0.8-2.8,2-5.5,2.8-8.4
		c3.7-13.7,21.5-19.6,31.4-9.5c15.7,16,34.5,27.1,53.9,37.9c11.1,6.2,22.5,11.2,34.3,15.9c17.6,7,20.5,14.5,21.3,35.5
		c0.3,7.2-2.5,12.8-8.2,17.7c-12.2,10.4-25.4,19.3-40.5,24.7c-13.9,5-27.2,11.5-39.7,19.2c-17.6,10.8-36.3,18.3-56.6,21.3
		c-18.1,2.6-35.7,7.4-53.7,10.5c-13.6,2.4-27.6,1.9-41.2,4.5c-15.3,3-30.9,4.1-45.8,9.2c-5.4,2.5-10.9,5.1-16.3,7.6c0,0,0,0,0,0
		c-0.8,1-1.9,1.2-3.1,1.3l-0.6,0.2c0,0,0.2-0.6,0.2-0.6l0,0c0.8-1.6,2.2-2.6,3.9-3.3c4.2-2.2,7.5-5.9,12.1-7.3
		c19.7-14.6,40.8-26.8,63-37.1C1667.6,96.3,1686.4,82.4,1700.4,62.7z M1301.3-23.3c19.9,8.7,40.5,9,61.5,7.1
		c19.1-1.7,38.3-1.2,57.3,1.3c20.8,2.8,41.6,3.4,62.6,1.8c13.2-1,26.5-1.5,39.7-2.3c20.6-1.3,41.2-1.5,61.8-2.2
		c22.2-0.7,44.2,0.5,65.8,5.6c10.3,2.4,20.3,6,29.3,11.9c7.7,5.1,10.9,12.1,9.6,21.2c-2.2,15.5-6.8,29.4-19.1,40.6
		c-12,11-24.2,21.5-38.5,29.4c-12.3,6.8-24.7,13.6-36,22.1c-8,6-16.2,11.8-24.8,17c-21.3,12.8-37.8,30.8-55.3,47.9
		c-3.5,3.4-5.8,8.2-8.2,12.6c-6,10.8-15.3,17.9-26.2,22.8c-10.1,4.5-18.9,10.6-27.5,17.5c-25,19.9-52.7,33-85.2,35.2
		c-22.3,1.5-44.5,5.2-64.7,4.9c-18.4,0-34.6-1.8-50.7-2.8c-27.5-1.6-54.7,0.6-81.6,6.8c-19.2,4.4-38.6,8.3-57.9,12.3
		c-17.8,3.8-35.8,1.5-53.7,1c-4.3-0.1-8.7-1.4-12.3-4.4c-9.1-7.3-10.6-12.8-7.2-24.1c2.6-8.5,7.5-15.2,14.2-20.8
		c15.8-13.2,31.2-26.9,45-42.4c6.9-7.8,12.7-16.2,16.5-25.9c10.4-26.6,20.8-53.2,31.2-79.8c4.8-12.2,4.9-25.4,7.2-38.1
		c2.3-12.3,6.5-23.1,16.7-31c8.4-6.5,16.9-12.7,26.7-17.1c16.4-7.3,32.7-15,49-22.5c7.5-3.5,15.3-6.1,23.4-7.7
		C1280.7-27.6,1291.4-27.7,1301.3-23.3z M1086.3-76.4c-5.4-4.1-6.4-9.7-3.7-15.8c6.5-14.9,14.4-28.8,27.6-39
		c11.9-9.2,25.7-14.2,39.7-18.8c8.3-2.8,17.1-4.3,25.5-6.9c17.5-5.6,33.1-15.2,49.1-24c5.1-2.8,10.1-5.8,16.9-9.8
		c0,6.5,0.1,10.9,0,15.3c-0.2,8.6,2.7,16.4,8.1,22.8c9.1,10.7,19.9,19.4,34.3,21.7c5.2,0.8,7.3,3.5,7.3,8.1
		c0.1,7.6,0.2,15.3-0.4,22.9c-0.7,8.5-2.4,16.9-3.4,25.4c-1,8.5-5.2,14.7-12.4,19.2c-6.8,4.2-13.8,7.9-20.8,11.6
		c-18.5,9.6-36.9,19.5-55.7,28.6c-10.8,5.2-22.4,8.9-33.7,13.2c-7,2.7-12.5,2-17.9-4.4c-9.1-10.8-19-21-30.4-29.5
		c-4.5-3.4-7.9-7.9-10.1-13.2C1101.6-59.5,1095.7-69.2,1086.3-76.4z M1070.5,44.6c6.6-17.5,25.3-33.6,44.4-31.7
		c11.2,1.1,14.9,3.8,18.1,14.7c1,3.4,1.6,6.9,2.2,10.4c0.5,2.9,0.6,5.8,0.8,7.5c-0.4,12.4-3.9,22.6-9.1,32.4
		c-10.6,20.2-16.9,41.9-23.9,63.5c-0.9,2.8-0.9,5.8-1.4,8.7c-2.2,13.2-6.7,25.2-16,35.4c-13.8,15-28.9,28.5-44.5,41.5
		c-4.3,3.6-8.4,7.3-12.4,11.3c-4.5,4.4-9.5,5.4-15.4,3.5c-1.1-0.4-2.3-0.5-3.4-1.1c-16.6-9.4-35.4-12.6-53.1-18.9
		c-6.4-2.3-7.6-6-3.3-11.1c1.7-2,3.8-3.7,5.9-5.3c17.7-13.4,32.8-29.4,47.4-46c8.3-9.4,13-21,19.3-31.6c3.9-6.6,7.8-13.2,12.3-19.4
		C1052.7,88.8,1062,67,1070.5,44.6z M806.7-27.5c12.6,0.1,25.3,1.1,38,0.8c29.5-0.8,58.8,2.8,88.2,4.6c29.4,1.9,57.3,10,85.6,17.2
		c14.6,3.7,23.5,13.7,29.2,26.1c3.4,7.4,3.7,16.6,0,25c-6.3,14-14.4,27-22.4,40.1c-12.5,20.4-29,37.8-43.1,57
		c-6.8,9.2-14.6,17.8-23,25.6c-15.4,14.5-34,21.8-55.2,22.3c-1.2,0-2.4-0.2-3.5,0.1c-12.3,3.3-23.8,0.1-35.4-3.8
		c-10-3.4-20.3-6.1-30.5-8.9c-22.8-6.3-44.8-14.4-66-24.8c-13.5-6.6-28.1-10.5-41.6-17.2c-8.2-4.1-16.5-7.7-24.8-11.6
		c-13.5-6.2-27.6-10.1-42.4-11.8c-8.3-1-15.6-4.7-23.1-8.1c-9.9-4.5-20.4-7.7-30.1-12.5c-12.2-6-22.6-14.9-34.3-21.8
		c-0.7-0.4-1.4-1.1-1.9-1.8c-6.8-9.4-12.9-19.3-15.1-30.7c-3.1-15.8,1.4-29.8,14.5-40.2c9-7.2,17.8-14.5,27.1-21.3
		c8.9-6.6,19.8-8.9,30.2-12c20.5-6.1,41.5-8.7,60.4-7.3c9.6,0,16.7,0.1,23.7,0c6.5-0.1,12.9,0.9,19.2,2.8
		C755.2-32.2,780.5-27.6,806.7-27.5z M374.1,291.1c-3.5-1.5-6.7-3.7-9.7-6.1c-12-9.5-24.1-18.9-36.2-28.3
		c-8.7-6.7-18.9-10.9-28.7-15.5c-15.5-7.2-31.1-14.1-45.8-22.9c-9.9-5.9-18.7-13.3-27.8-20.3c-8.7-6.7-10.8-15-7.6-25.8
		c5.1-16.9,17.4-25.2,32.7-30.6c16.3-5.8,33.4-7,50.4-8.3c4.6-0.4,8.5,1.6,12.3,4.1c6.3,4,13.2,3.3,18.6-1.5
		c5.5-4.9,5-11.4-1.3-15.4c-11.9-7.6-12.9-10.5-10.5-24.5c1.9-11.3,7-19.6,17.7-24.6c7.4-3.5,14.1-8.3,21.8-11.5
		c9.6-4,17.2-11.4,22.4-20.6c9.2-16.3,2.7-39.3-13.6-48.5c-12.6-7.1-26.4-10.3-40.4-11.8c-7.5-0.8-14.5-2-21.3-5
		c-5.7-2.5-11.6-4.3-17.3-6.8c-4.7-2.1-5-4.4-1.8-8.1c2.5-2.9,5.7-5.1,9.4-6.5c8.6-3.1,17.3-5.9,26.4-6.9c14.4-1.6,27.1-6.8,39-15.3
		c12.7-9.1,24.7-19.1,38.4-26.6c11.2-6.1,22.7-11.1,35.3-13.8c34.4-7.3,69.5-10.5,104.4-10.6c27.2-0.1,52.4-6.8,77.8-14.2
		c18.8-5.5,37.6-6.9,56.7-1.6c12.7,3.5,23.7,10.5,33.9,18.5c8.9,7.1,9.1,18,9.2,28.4c0,2.9-0.9,5.8-1.6,8.7
		c-2.8,11.7-10,17.3-22.2,17.4c-1.2,0-2.4,0-3.5-0.1c-37.8-2.4-72.9,6.4-106.1,24.8c-15.5,8.6-29.1,18.8-39.7,33
		c-5.6,7.5-9.2,15.8-9.8,25.1c-0.5,8.2-0.4,16.5-0.1,24.8c0.3,8.5,4.3,15.8,9,22.7c2.9,4.1,6,8,8.6,12.3c3.2,5.2,1.8,7.2-4.5,7.3
		c-7.7,0-15.3,0-23.6,0c-26.9-1.4-52.6,5.2-76.3,19c-1,0.6-2.1,1.1-3.1,1.7c-18.7,11.9-39.1,13.7-60.4,10.7
		c-4.1-0.6-8.2-1.2-12.3-0.2c-5.7,1.3-8.6,5-7.9,9.9c0.6,4.5,3.9,7.1,9.4,7.4c8.8,0.5,17.6,0.9,26.5,1.6c15.8,1.2,30.4-2.4,44.4-9.5
		c5.8-2.9,11.7-5.6,17.3-8.9c24-14.1,50.2-15.8,77-13.9c4.1,0.3,8.3,0.8,12.3,0.5c18.5-1.5,35.6,3.3,52.5,9.9
		c18.9,7.5,38.1,14,58.4,16.9c9.9,1.4,19.6,4,28.8,8.3c21.5,10.2,43.8,19,64.7,30.6c4.5,2.5,8.2,5.2,9.5,10.8c1,4.6-0.2,7.4-3.9,9.6
		c-3.9,2.4-8.3,2.8-12.8,2.8c-12.7-0.1-25.3,1.2-37.9,2.3c-12.4,1.1-23.5,5.5-33.9,11.8c-8,4.8-16.4,7.8-25.5,9.5
		c-11.3,2.1-22.5,4.7-33.8,6.9c-22.3,4.5-41.9,15.4-61.6,26.1c-15.1,8.2-30.6,14.6-47.4,18.8c-30.6,7.7-60.9,16.6-88,33.6
		c-3.5,2.2-7.5,3.5-11.4,4.7c-5.8,1.7-11,0.8-15.6-3.4C388.2,298.4,381.5,294.3,374.1,291.1z M383.6,408.6
		c8.3-19.3,12.5-39.8,20.9-59c10.1-22.9,28.7-36.2,50.9-45c21.9-8.7,44.3-16.1,67.4-21c13.1-2.8,24.9-9,36.7-15.1
		c10.2-5.2,20.3-10.7,30.5-16.1c14.8-7.8,31-11.2,47.1-14.6c7.2-1.5,14.5-2.8,21.7-4.2c9-1.8,17.7-4.6,25.5-9.7
		c11.2-7.2,23.4-11.1,36.6-11.5c7.9-0.3,15.7-0.7,23.7,0c8.7,0.7,17.6-1.1,26.3-2.3c12.8-1.7,25.6-4.1,38.5-5.6
		c14.7-1.7,29.4-2,43.8,2.6c1.9,0.6,4,0.9,5.2,3.1c-2.4,2.9-6,3.6-9.2,4.7c-28.7,9.1-50.2,29-72.4,47.9c-3.6,3.1-7,6.4-10.8,9.1
		c-10.8,7.6-17.9,17.8-22.5,29.9c-2.4,6.5-6.3,11.6-11.3,16.6c-22.2,22-45.4,43-66.1,66.4c-9.5,10.8-21.6,18.2-34.4,24.4
		c-19.1,9.2-39.5,15.6-58.6,24.6c-18.7,8.8-38.4,13.5-58.5,16.2c-25.7,3.5-51.2,7.8-76.6,13.2c-12,2.6-23.3-1.8-34.1-6.7
		c-4.5-2.1-8.7-4.9-13.1-7.3c-2.4-1.4-4.2-3.3-5-5.9C382.2,431.9,378.8,419.7,383.6,408.6z M349.7,514c0.3-7.3,10-18.1,18.3-19.6
		c18.5-3.2,36.7-9.1,55.8-8.7c8.3,0.2,16.5,0,23.5-0.8c14.8-0.9,28.3,0.4,41.9,1c4.2,0.2,8,1.8,11.7,3.7
		c17.9,9.3,34.1,20.9,49.2,34.2c11.5,10.1,23.3,19.9,34.9,29.8c9.1,7.7,8.6,12-2.2,17.3c-2.9,1.4-6.1,2.2-9.1,3.3
		c-6.6,2.5-13.2,5-19.8,7.5c-16.9,6.4-28,19-36.7,34.2c-7.6,13.3-13.8,27.3-19,41.8c-2.9,8.2-8.7,13.1-17.5,14
		c-5.6,0.6-10.5-0.6-14.5-4.9c-6.6-7-15.1-11.2-23.8-14.8c-20.5-8.6-39.2-20.3-55.7-35.3c-8.5-7.7-14.4-17.8-19.2-28.3
		c-2.2-4.8-3.8-9.9-6.4-14.5C350.5,555.2,348.9,534.8,349.7,514z M91.3,684.5c-9.4,5.2-18.7,5.7-28.9,1.9
		c-17.2-6.5-34.8-11.4-51.6-8.6c-12.3,0.6-22.6,0-32.7-2c-7.1-1.4-13.6-4.2-18.3-9.9c-6.1-7.2-13-13.7-19.8-20.2
		c-4.8-4.6-8.2-9.9-9.7-16.5c-1-4.4-0.1-8,3-11.3c11.8-12.6,20.8-26.9,27-43.2c8.2-21.5,25.3-34.3,45.9-42.6
		c13.5-5.4,25.3-12.7,33.9-24.5c7.9-10.9,18.5-18,30.7-23c9-3.7,18.1-7.2,27.3-10.3c7.3-2.5,15.1-2.8,22.7-3.3
		c25.8-2,50.6,3.2,74.2,13.2c23.4,9.9,46.9,19.3,72.5,21.8c9.6,5.2,20.6,4,30.7,7.1c1.7,0.5,3.4,0.9,5.1,1.5
		c17.5,6,21.7,23.1,9,36.9c-6.2,6.7-12.9,13.1-20.2,18.4c-10.9,7.9-19.7,17.7-27.3,28.6c-6.5,9.2-13.5,17.9-22.5,24.8
		c-14,10.8-30.1,17.2-47,21.6c-27.6,7.3-54.9,15.7-81,27.7C106.3,676.3,98.8,680.4,91.3,684.5z M360.7,818.9
		c-11.4-5.1-20.8-13.3-29.9-21.7c-5.2-4.8-9.8-10.2-14.4-15.6c-15.3-18.4-35.2-29.1-58-35c-9.7-2.5-19.4-4.8-29.3-6.6
		c-17.4-3.2-35.1-3.8-52.8-4c-16-0.1-31.8-1-47.5-3.4c-6.9-1-13.1-3.5-18.5-7.9c-6.8-5.6-6.5-11.2,0.1-16.6
		c9.5-7.8,20.5-12.9,31.8-17c16.6-6.1,33.5-11.3,50.1-17.1c19.9-7,40.8-11.6,59.2-22.8c8.4-5.1,15.8-11.1,22.5-18.3
		c12.8-13.9,23.8-29.3,36-43.6c4.9-5.7,10.3-10.5,17.5-13c6.3-2.1,8.9-1.3,13,3.9c3.2,4.1,4.5,9,5.5,13.8c3,14.5,10.7,26,21.5,35.7
		c9.6,8.7,20.2,16,31.3,22.9c13,8.1,26.3,15.6,40,22.4c9.5,4.7,17.4,10.5,24.5,18.2c9.1,9.8,14.3,20.8,14.1,34.2
		c0,1.2,0.2,2.3,0.3,3.5c-1.4,22.5-3.6,44.7-20.1,62.3c-1.4,1.5-3,3-3.9,4.8c-7.9,14.4-21.1,23.6-32.8,34.2
		c-7.1,6.4-15.4,8.1-24.7,5.5c-6.1-1.7-11.5-4.5-16.5-8.2C374,825.2,367.4,821.9,360.7,818.9z M361.4,928.9
		c1.9-8.3,6.6-15.1,11.1-22c9.2-14.1,21.1-26.1,32.2-38.7c4.1-4.7,9.6-7.7,15-10.8c23.5-13.3,42.9-31,57.1-54.1
		c3.8-6.2,8-12.2,13-19.9c4.1,12.1,8.9,21.5,13.2,31.2c5,11.2,11.7,21,21.3,28.9c11.3,9.4,21.4,20.2,33.6,28.7
		c11.8,8.2,24.6,13.7,38.8,16.4c20.4,3.9,39.7,10.9,58.8,18.9c5.2,2.2,9.9,5.3,13,10.2c3.1,4.8,2.4,7.1-2.8,9.7
		c-8.9,4.5-18.1,8.6-27.7,11.6c-11.9,3.7-23.2,8.5-34.3,14.1c-20.5,10.5-42.9,16.5-64.3,24.6c-11.6,4.4-23.3,8-35.9,8.8
		c-10.1,0.6-20-0.5-29.9-1.7c-19.6-2.5-38.6-2.1-57.4,5.6c-10.9,4.5-22.4,7.4-34.4,7c-13.4-0.5-21.9-7.6-22.9-20.9
		C357.8,960.6,357.8,944.6,361.4,928.9z M85.7,1134.8c-8.6-8.4-18.2-15-29.1-19.6c-13.4-5.7-24.8-14.7-37.1-22.2
		c-7.3-4.4-11.9-12.2-18.3-17.9c-3.8-3.5-1.8-7.1,0.7-10.1c6.7-7.8,14.7-13.7,25.1-15.5c11-1.9,22.1-3.6,33.2-4.9
		c7.5-0.9,14.4-3.1,21.1-6.2c15.3-6.9,30-14.9,44.3-23.9c19.6-12.3,41.4-18.2,64.1-21.4c5.5-0.8,11.1-1.4,16.6-2.4
		c18.9-3.5,38-4.5,62.6-5c19.6-1.4,42.6,7.7,66.1,14.4c2.8,0.8,5.4,2.5,7.7,4.2c13.5,9.9,28.9,14.3,45.2,16c0.6,0.1,1.2,0.2,1.8,0.1
		c14.7-3,30-3.3,44-8.6c10.4-4,20.8-6.3,31.8-5.9c8.8,0.3,17.7,0.9,26.5,1.6c4.5,0.4,5.4,2.5,3.1,6.5c-1.9,3.3-5.3,4.6-8.4,6.1
		c-9.9,4.5-19.8,9.2-29.9,13.2c-9.9,4-19.1,9.3-28.5,14.2c-17.3,9-25.7,24.7-29.4,43c-3,15.1-2.5,30.5-1,45.8
		c1.2,11.7-0.9,14.3-12.8,13.9c-7.9-0.2-15.8-1.5-23.8-1.8c-38.3-1.4-76.6-2.9-114.7,3c-15.1,2.3-30.5,2.9-45.9,2.4
		c-8.3-0.3-16.4,0.8-24.5,2.9c-16.5,4.3-33.4,7.6-49,14.8c-4.4,2-6.5-0.5-9-3.1C107.7,1157,96.9,1145.7,85.7,1134.8z M28,1349.9
		c0-10,0.1-20,2.1-29.9c2.3-11.5,7.1-21.8,13.8-31.3c16.1-22.9,32.2-45.7,51.4-66.3c2.6-2.8,5.4-5.4,7.9-8.3
		c2.8-3.2,6.2-3.9,10.2-4.3c12.8-1.3,22,2,27.5,15.1c3.9,9.4,9.9,18,14.8,27.1c5,9.3,11.5,17.7,18.2,25.9
		c10.4,12.8,21,25.4,29.4,39.8c5.5,9.5,13.1,17.5,21.4,24.5c18.5,15.5,37,31.1,56.3,45.5c13.9,10.3,29.4,18.3,45.8,24.5
		c10.7,4.1,21.4,8.2,32.4,11.4c10.4,3,13,11.5,6.6,20.4c-5.2,7.1-11,13.8-16.5,20.7c-9.9,12.3-17.2,26.2-21.9,41.1
		c-6.2,19.3-17.6,34.4-33.1,46.9c-6.2,5-12.5,9.9-18.6,15c-5.2,4.4-10.6,8.3-17,10.9c-3.5,1.4-6.7,3.8-9.7,6.1
		c-13.5,10.4-32,9-43.7-3.7c-4.4-4.8-8.5-9.8-13.4-14.1c-9.9-8.7-21.6-14.4-34-18.3c-13.1-4.1-24.1-12.2-36.1-18.4
		c-3.9-2-6.5-6-8.8-9.8c-4.1-6.8-8.2-13.6-11.5-20.9c-4.1-9.2-9.9-17.2-16.6-24.8c-8.8-9.9-18.9-18.9-24.7-31
		c-10.5-21.7-20.3-43.8-30.3-65.8c-1.6-3.5-1.9-7.4-1.9-11.3C28,1361.1,28,1355.5,28,1349.9z M3.1,1658.7c-0.9-1.5-1.9-3-2.7-4.6
		c-10-20-21.3-39.3-27.1-61.1c-1.6-6-4-11.7-6.1-17.5c-12.2-33.1-14.3-67.1-9.2-101.8c2.4-16.3,6.2-32.4,10.7-48.3
		c1.6-5.7,3.6-11.2,6.2-16.5c9.6-19.9,21.7-38.4,34.6-58.7c1.5,6.3,0.9,10.7,1,15c0.1,8.1,1.3,15.8,4.8,23.1
		c3.7,7.7,7.1,15.5,10.8,23.2c4.6,9.6,9.2,19.1,13,29c3.9,10.2,9.5,19.6,16.9,27.7c6.9,7.6,13.7,15.4,20.4,23.2
		c4.4,5.2,7.3,11.4,10.2,17.5c5.2,10.6,10.4,21.2,18.5,29.9c1.8,1.9,3.6,4.1,5.9,5.3c13.4,7.3,26,16.2,40.8,20.9
		c11.2,3.6,22.1,8.4,30.6,17c8.7,8.8,15.2,19.4,22.3,29.6c1.5,2.1,1.2,3.8-1,5.1c-3.3,2-6.5,4-9.9,5.8c-5.8,3-11.5,6-16.7,9.9
		c-5.5,4.2-12.1,6.1-18.6,7.8c-10,2.7-19.8,5.9-29,10.4c-12.6,6.3-26.4,8.5-40,10.5c-7.9,1.2-15.7,2.7-23.2,4.9
		c-16.2,4.8-32.4,5.2-48.9,2.1C11.1,1667.1,6.3,1664.1,3.1,1658.7z M308.7,1854.6c-19,20.2-39.2,38.5-65.1,50.2
		c-18.2,8.2-36.2,17-54.9,24.3c-10.7,4.2-20.6,10.3-29.9,17c-16.3,11.7-32.3,23.7-44.7,39.9c-2,2.6-3.8,3.5-6.1,0.4
		c-7.8-10.4-17.9-18.7-27.1-27.8c-7.5-7.5-15.1-15.2-20.9-23.9c-7.9-12-14.3-25-20.1-38.2c-7.8-17.6-7.8-36.7-12.1-55
		c-0.3-1.1-0.2-2.4-0.6-3.5c-6.6-15.5-10-32-14.1-48.2c-1.6-6.3-3.2-12.4-3.6-19c-0.3-5.8-1.6-11.5-2.6-17.7
		c4.3,0.8,6.7,3.5,9.4,5.6c13.7,10.6,27.4,21.5,41.1,32.1c8.9,6.9,19.2,11.4,29.5,15.9c5.4,2.3,10.6,5.1,15.4,8.6
		c11.7,8.5,24.3,15.6,37,22.4c11.9,6.4,24.7,9.1,38.3,9.2c31.6,0.1,62.9-3.9,94.1-7.7c10.8-1.3,21.7-1.6,32.5,0.8
		C311.6,1841.6,313.9,1849.1,308.7,1854.6z M391.2,1799.8c-3,6.1-8.3,9.4-14.6,12c-13.2,5.4-26.8,2.9-40.2,3.4
		c-26.7-0.5-52.8,4-79,8.1c-6.1,0.9-12.2,1.8-18.4,2.2c-20,1.3-39.8,4.3-59.9,3.9c-12.4-0.2-24.1-2.6-34.7-8.9
		c-11.7-6.8-23.6-13.3-34.5-21.4c-2.8-2.1-5.8-4.3-9-5.4c-20.6-7.4-37.6-20.5-54.5-33.9c-9.7-7.7-19.4-15.4-29-23.2
		c-6.6-5.3-8.9-14.7-5.8-22.3c1.1-2.7,3.4-4,5.7-5.2c7.8-4.2,15.8-7.8,24.3-10.5c13.2-4.2,26.3-8.5,39.1-14.1
		c10-4.4,20.9-6,31.5-8.8c7.4-2,14.7-4.3,21.6-7.6c9.3-4.4,18.9-8.1,29-10.6c9.8-2.5,18.8-6.5,27.2-12.3c7.5-5.1,15.8-9.1,23.7-13.8
		c2.7-1.6,4-0.5,5.9,1.4c23.2,24.3,51.2,40.2,84.1,47.1c12.8,2.7,25.9,1.4,38.8,0.7c12.6-0.6,25.2-1.6,37.9-2.3
		c14.1-0.7,28.1-3,42-5.5c4.1-0.7,8.2-1.2,12.3-0.7c6,0.7,7.8,2.2,8.4,8.2c1.6,16.8,1.5,33.7-5.5,49.4c-3.4,7.7-9,14.5-14,21.4
		C412.1,1767.1,399.9,1782.3,391.2,1799.8z M644.3,1745c-6.3,2.5-12.8,4.5-19.5,5.7c-24.6,4.3-47.7,13.3-70.5,22.7
		c-16.5,6.9-32.1,16.1-47.9,24.7c-13.8,7.5-28.1,13.1-43.6,16.3c-11.8,2.4-23.7,4.6-35.4,7.4c-4.6,1.1-9.3,1.8-14,1.4
		c-7.3-0.6-10-5.9-7-12.4c7.8-16.6,17.9-31.8,29.1-46.3c7-9.1,13.3-18.7,19.1-28.6c7.9-13.4,12-27.9,14.3-43.2
		c1.9-12.8,8-24,17.4-33.1c7.7-7.4,16.3-13.5,26.5-17.3c28.9-10.9,57.9-21.8,87.8-30c24.2-6.6,47.8-14.8,69.8-27
		c10.8-6,21-13.1,31.4-19.7c6.9-4.4,8.3-4.1,12,3.3c3.6,7.1,2.9,14.9,3.7,22.5c0.4,4.4,0.1,8.8,0.1,13.4c2.3,16.3-1.7,31.3-9.9,45.6
		c-6.2,11-11.4,22.6-17.1,34c-8.2,16.4-19.7,30.7-28.4,46.8C658.4,1737.8,651.5,1742.1,644.3,1745z M1131.9,1826
		c-12.1,6.9-22.8,15.7-34.3,23.4c-4.5,3-9.1,5.3-14.3,6.7c-19.1,5.2-38,10.8-57.1,15.6c-26.7,6.6-47.4,21.7-64,43
		c-14.7,18.9-28.6,38.2-38.9,60c-1.6,3.4-3.2,6.9-7,10.7c-6.8-12-15.7-21.6-21.7-33.1c-8.2-15.6-20.6-26.5-35.8-35.6
		c-24-14.3-46.9-30.2-64.1-53.2c-12.9-17.2-25.7-34.5-35.9-53.5c-3.5-6.5-9.4-11.2-14.1-17.4c4.3-2.5,8.7-2.7,12.9-3.6
		c35.4-7.9,71.2-13.3,106.9-19.6c26.8-4.7,53.3-4.9,79.9,0c21.5,4,43.2,5.8,64.8,8.7c39.8,5.4,78.7,14.6,116.6,28.1
		c5,1.8,8,4.8,9.8,9.4C1137.4,1820.4,1136.4,1823.4,1131.9,1826z M1138.8,1743.1c1.6,6.3,2.8,12.6,4.2,19c1.1,4.8,0,9.4-1.9,13.8
		c-3.3,7.8-7.4,9.4-20.2,8.2c-5.8,0.4-12.1-2-18.6-3.9c-35.1-10.4-70.9-17.6-107.3-21.3c-21.7-2.2-43.1-6.6-64.7-9.2
		c-21.7-2.7-43.4-2.1-65.1,1.9c-30.4,5.7-61.1,9.6-91.4,16.1c-14.1,3-28.2,6.2-42.5,8.2c-10.2,1.4-19.3-0.6-27.7-6.3
		c-5.6-3.8-11.3-7.4-16.8-11.4c-6.8-4.9-8.1-9.6-6.1-17.7c2.8-11.4,9.4-20.9,15.4-30.7c12.5-20.4,22.2-42.3,32.9-63.6
		c5.8-11.5,7.3-24.3,6.4-37.1c-1-13.8,0.4-27.7-1.8-41.5c-0.7-4.2,0.8-8.1,2.7-11.9c5.8-11.6,12.8-22.6,20.2-33.2
		c1.2-1.7,2.6-3.2,4.2-4.5c20.7-16.5,40.9-33.6,64-46.8c2.6-1.5,5.1-2.9,7.8-4.1c5.5-2.4,10.4-1.8,15.6,1.9
		c16.8,12,34.4,22.7,52.6,32.5c14.3,7.7,27.8,16.5,40.6,26.7c6.5,5.2,12.1,11.2,17,17.9c15.8,21.6,36.7,36.1,61.8,45.3
		c27,9.9,54.7,16.4,83.1,20c15.8,2,31.8,0.7,47.7,0.7c4.5,0,8.8,0.4,12.9,2.5c5.8,2.9,6.8,6,2.9,11.2c-4.8,6.3-10.3,12.1-14.7,18.8
		c-6,9.3-10.2,18.8-12,30c-3.1,18.8-3.3,37.5-3.3,56.4C1136.7,1735.1,1137.7,1739.1,1138.8,1743.1z M1369,1770
		c-16.9,19.7-19.1,42.4-10,65.4c6.1,15.5,4.1,29.2-1.3,43.5c-2,5.3-5,10-8.1,14.7c-14.2,21.3-28.3,42.5-43,64.5
		c-7.1-13.7-14.1-26.9-21-40.2c-13.4-25.7-29.1-49.7-50.4-69.9c-10.3-9.7-20.5-19.5-31.1-28.8c-9.5-8.4-15.8-19-22.3-29.4
		c-10-16-18.7-32.7-25.6-50.3c-1.2-3.1-1.9-6.2-2-9.5c-0.7-19.8,0.4-39.5,4.2-58.9c1.6-8,6.1-14.7,11.4-20.7
		c4.1-4.6,8.9-8.6,13.5-12.7c13.7-11.9,30.2-15.4,47.2-12.1c16.3,3.2,32.8,7.4,47.8,14.9c14.2,7.1,28.6,13.8,43,20.7
		c16.5,7.9,33.1,15.3,49.8,22.8c6.8,3,13.1,7.1,18.4,12c9.3,8.6,11.1,19.9,7.5,31.7c-2.7,9.1-6.9,17.5-13.1,24.9
		C1379,1758.4,1374,1764.2,1369,1770z M1560.9,1835c-36.6,7.3-73.5,9.7-110.7,9c-13.6,0-27.1,0.4-40.7-0.1
		c-17.1-0.6-29.3-11.8-28.4-30.2c0.5-10,0.6-19.9,4.3-29.5c3-8,7.4-14.6,14.4-19.6c2.9-2,5.8-4.1,8.2-6.7
		c7.5-7.7,11.9-16.7,11.4-27.8c-0.5-10.9-1-21.7-5.7-31.9c-4-8.6-9.5-15.3-17.5-20.5c-13.9-9.1-29.6-14.5-44.4-21.6
		c-21.5-10.3-43.5-19.7-64.5-31c-7.8-4.2-16.2-7-24.7-9.5c-5.6-1.7-10-4.8-12.9-10c-2.7-4.9-2.3-6.8,2.8-7.4
		c7.9-1,15.5-3.4,23.6-3.4c20.3,0.1,40.7,0.1,61,0c7.4,0,14.8,0.2,22,1.3c7.3,1.1,14.7,1.1,22,0.6c23.8-1.8,47.5-3.7,71.1-7.7
		c10.5-1.8,20.3-6.1,30.4-9.3c15.5-4.8,28-14.6,38.7-25.5c16.2-16.4,35.9-28.7,50.6-46.5c9.5-11.6,19.7-22.6,30.1-33.5
		c5.9-6.2,12-12.1,18.6-17.7c2.4-2.1,4.5-2.2,6.9,0.1c17,16.2,37.6,26.3,59.6,33.5c24.1,8,45.6,20.9,65.8,35.6
		c23,16.7,42.9,36.6,58.7,60.6c14.4,21.9,30,43.1,49,61.4c12.3,11.8,24.5,23.8,38.3,34c3.9,2.9,7.1,6.3,9.8,10.1
		c3.8,5.5,2.1,10.1-4.2,12.2c-11.8,3.9-24.1,5.8-36.2,8.2c-31.1,6-60.6,16.9-90.5,26.8c-28.8,9.5-55.4,23.3-81.4,38.2
		c-18.4,10.5-36.8,21-55.1,31.7C1616.3,1823.6,1588.7,1829.4,1560.9,1835z M2146.9,1866.9c-8.5,5.2-17.3,10.1-27.1,12.6
		c-7.1,1.8-14.1,4.2-21.1,6.6c-21.1,7.3-40.2,18.3-57.6,32.1c-10.9,8.6-22.9,15.7-35.1,22.1c-22.4,11.8-44.5,24.1-65.4,38.5
		c-13.4,9.2-29.3,13.5-44.1,20.2c-2.8,1.3-5.2-0.2-7.5-1.4c-9.8-5.3-19.9-10.3-29.4-16.2c-13.1-8.1-26.9-14.5-41.1-20.4
		c-20.4-8.4-40.9-16.6-61.8-23.8c-18.6-6.5-34.5-17.7-51.2-27.6c-4-2.4-7.2-6.1-10.5-9.4c-10.3-10.2-21.5-19.2-33.5-27.3
		c-6.6-4.4-12.3-10-15.9-17.4c-5.2-10.6-1.5-22.3,8.9-28c2.6-1.4,5.3-2.6,8-3.8c18.6-8.9,36.2-19.6,53.9-30.2
		c17.4-10.4,33.8-22.6,52.5-30.9c5.4-2.4,10.7-5.1,16.4-6.6c18-4.8,34.4-14,52.4-18.6c22-5.6,44.1-10.3,66.4-14.4
		c13.5-2.5,26.9-3,40.4-3c8.9,0,17.4-3.3,24.8-2.3c24.9,0.3,47,6,67.8,16.4c7.4,3.7,13.5,9.4,19.5,15.1
		c14.3,13.6,28.3,27.5,42.4,41.3c2.7,2.7,5.4,5.5,7.6,8.6c9,12.6,20.1,23,32.4,32.4c3.5,2.7,7,5.4,10.3,8.3
		C2159.1,1848.8,2158.4,1859.9,2146.9,1866.9z M2253.1,1780.9c-2.1,13.4-5.1,26.6-7.7,39.9c-4.2,21.7-27.1,34.1-47.4,25.8
		c-4.9-2-9.9-4-14.5-6.6c-19.9-11.6-40.2-23.2-54.8-41.3c-18.3-22.6-40.3-41.3-60.4-62c-5.3-5.5-11.7-9.9-17.6-14.8
		c-1-0.9-2.7-1.3-2.5-3.4c2.6-1.8,5.6-1,8.4-1c13.3-0.1,26.6,0.5,39.8-0.2c22.5-1.1,44.7,2.4,67.1,3c8.4,0.2,16.8,2.3,24.9,5.4
		c13.8,5.2,27.9,9.3,41.4,15.4c6.9,3.1,12.8,7.5,17.7,13C2254.2,1761.8,2254.7,1771.5,2253.1,1780.9z M2323.3,1709.7
		c-22,16-46.5,22.5-73.5,18.7c-6.6-0.9-12.9-3.8-19.3-6.1c-19.9-7.2-39.3-15.9-60.6-18.9c-1.5-0.2-2.9-0.8-4.3-0.8
		c-20.1,0.7-39.8-4.7-56.5-2.8c-16.4,0-29.4,0.5-42.2-2.4c-11.4-2.6-12.3-3.3-11.7-14.6c1.2-23.4-2.3-46.4-5.6-69.4
		c-2.6-18.1-6-36-8-54.2c-1.1-10.1-3.8-19.5-6.4-29.2c-4.1-15.5-2.9-31,1.9-46.2c2.1-6.4,6-10.9,12.6-13.7
		c13.5-5.8,26.6-12.6,40-18.7c21.3-9.8,44-12.7,67-14.4c15-1.1,29.8-3.6,44.5-6.6c8.2-1.7,16.4-1.7,24.7-1c6.6,0.5,7.6,1.6,7.4,8.3
		c-0.4,20.2-4.3,39.7-11.4,58.7c-4.9,13-10.2,25.8-16.3,38.2c-3.9,8-6.1,16.5-7.2,25.4c-1.9,16.4,3.4,30.1,14.7,41.8
		c11.2,11.6,24.1,20.5,38.8,27.2c25.9,11.8,49.4,27.4,71.8,44.8C2335.5,1682.9,2335.1,1701.1,2323.3,1709.7z M2706.6,1867.4
		c-0.2,13.4-5.2,26.1-12.8,37.1c-9.1,13.1-17.1,26.8-25.5,40.3c-5.1,8.1-15.4,9.6-23.9,3.4c-15.7-11.6-32.8-20.8-50.4-29.1
		c-10.4-4.9-21.7-7.6-32.7-10.6c-7.4-2-14.6-4.7-21.8-7.2c-15.4-5.5-26.8-15.6-36.3-28.4c-10.4-13.9-11.2-30-10.4-46.4
		c0.2-4.1,1.3-8.2,0.9-12.3c-0.9-9.6,2.2-18.2,6.9-26.1c5.4-9.1,10.1-18.8,19.1-25.2c11-17.7,29.9-26.2,45.4-38.7
		c13.5-10.9,29.5-17.1,46.1-21.6c17.9-4.9,35.8-9.7,52.6-17.8c8.6-4.1,12.9-0.9,12.7,8.6c-0.2,5.6-0.7,11.2-1.1,16.8
		c-2.1,22.4,4.2,43.1,12.5,63.5C2699.9,1803.7,2707.2,1834.9,2706.6,1867.4z M2695.4,1632.3c0,9.1-3.9,16-12,20.1
		c-25.1,12.8-49.3,27.5-77.5,33.7c-21.6,4.7-40.7,15.2-58.1,28.9c-13.4,10.5-28.4,19.2-39.7,32.3c-4.1,4.8-9.1,8.3-13.9,12.2
		c-7.9,6.2-15.9,5.8-23.7,0.4c-8.3-5.6-16.2-11.8-24.3-17.6c-8.9-6.4-18.7-11-29.4-13.9c-9.6-2.7-19.2-5.9-28.3-9.9
		c-7.2-3.1-14.1-7.3-20.7-11.6c-5.1-3.4-5.3-7.6-1.7-12.9c7.5-11.3,15.7-22.1,24.6-32.4c4.4-5.1,9.2-9.9,14.9-13.7
		c7.9-5.2,15.4-10.9,23.1-16.3c20.8-14.8,44.4-24.4,67.7-34.1c25.6-10.7,50.6-22.5,74.4-36.9c3.5-2.1,7.1-4.2,10.9-5.9
		c19.4-9.1,36.6-21.2,51.6-36.6c7.2-7.5,16.1-12.9,25.3-17.6c9-4.6,13.9-1.5,14.5,8.6c1.4,23.7,5.7,46.7,15.2,68.7
		c4.5,10.4,5.7,21.6,7.7,33.1C2693.6,1617.6,2695.4,1624.9,2695.4,1632.3z M2708.5,1480.9c2.8-1.7,4.9-4.2,6.9-6.8
		c12.9-16.8,30.3-27.1,50.2-32.8c10.9-3.1,22.3-0.6,33.3,1.4c7.9,1.5,15.1,4.5,22.2,8.5c19,10.7,36.7,23.5,55.1,35.1
		c9.2,5.8,18.6,10.1,29.7,9.8c2.9-0.1,5.8,0.8,8.8,1c10.6,0.6,11.3,7.8,9.5,15.7c-0.5,2-1.6,3.8-2.6,5.6c-11,19.5-15.6,41-14.8,62.9
		c0.8,21.3-7.8,39.1-17.3,56.6c-8.4,15.4-19,19.6-42.6,18.7c-15.6-1.5-34.9-4.3-53.7-9.1c-15.6-4-31.2-5.9-47.2-5.4
		c-9.5,0.3-17.9-2.3-26.2-6.7c-4.6-2.4-6.5-5.4-6.4-10.4c0.4-11.2-0.5-22.3-2.9-33.4c-1.9-8.7-4.2-17.2-7.9-25.2
		c-6.7-14.7-9.2-30.6-11-46.3C2689.9,1504.7,2693.5,1489.8,2708.5,1480.9z M2708.9,1332.6c-13.6,26.3-24.3,53.7-30.5,82.7
		c-2.7,12.4-7.9,23.5-14.8,33.8c-17.4,26-36.4,50.7-59.9,71.7c-3.1,2.7-6.4,5.3-9.9,7.3c-22.4,12.4-44.9,24.7-67.5,36.8
		c-13.5,7.3-28.1,12.2-42,18.5c-15,6.8-30.6,12.8-44.8,20.9c-17.6,10.1-35.8,19.4-52.3,31.3c-10.4,7.5-24.5,12-32.8,11.9
		c-19.3-0.1-34.7-5.5-49.6-11.7c-21.5-8.9-41.6-20.8-62-31.9c-7.3-4-13.1-10.1-18.6-16.3c-6.1-6.9-9-15-8.1-24.4
		c0.7-8.1,3-15.6,6.5-22.8c8.9-18.6,17-37.6,22.3-57.6c1.9-7.1,3.8-14.3,4.9-21.5c1.2-8,4.5-15.2,7.3-22.6c3.7-10,11-15,21.3-15.8
		c26.5-2.3,52.3-8.6,77.9-15.5c23.3-6.3,46.3-13.6,68.8-22.6c27.4-10.9,55.1-20.9,83.6-28.6c16.4-4.5,33.4-7.5,49.6-12.8
		c16.5-5.4,33.5-6.6,50.4-8.6c22.1-2.6,43.5-7.6,64.7-14c9.1-2.8,18.4-4.1,27.9-2.7C2710.7,1319.3,2713.3,1324.1,2708.9,1332.6z
		 M2801.1,1237.7c-8.7,8.9-18.3,17-29.4,22.5c-21.8,11-44.1,21.2-67.8,27.7c-27.3,7.5-55.2,12.2-83.2,16
		c-47.1,6.4-93,18.3-138.3,32.6c-3.9,1.2-7.8,2.6-11.8,3.6c-12.6,3.3-24.7,7.8-36.4,13.4c-30.9,14.7-63.4,25.4-96,35.6
		c-8.7,2.7-17.5,5.2-26.4,7.3c-10.9,2.5-21.1,0.3-31-4c-4.6-2-7.8-5.2-8.3-10.5c-1.4-15.2-7.3-29-12.9-42.9
		c-8.2-20.2-22.9-35.3-39-49.5c-16.2-14.2-32.9-27.7-49.4-41.4c-5.2-4.3-8.1-10.8-10.9-16.9c-2.1-4.5-0.1-7.7,4.5-10
		c3.3-1.6,6.8-1.8,10.3-1.8c11.8,0,23.6,0,35.4,0c16.5,0.1,33-0.3,49.5,1c26.3,2.2,52.3-1.5,78.2-5.4c31.5-4.8,62.5-11.8,93.7-17.6
		c19.6-3.6,39.8-3.9,59.8-2.3c34.4,2.8,68.4,8.2,102.7,11.5c24.3,2.3,48.7,3.9,73.1,5.9c15,1.3,29.9,2.9,44.7,5.7
		c18.3,3.4,36.7,5,55.4,4.8c11.1-0.1,21.4,3.6,31.8,6.6C2804.9,1231.1,2805.1,1233.5,2801.1,1237.7z M2790.4,992
		c4.5,3.9,8.9,7.7,12.9,12.1c10.3,11.4,21.7,21.7,34.2,30.6c9.4,6.7,16.2,15.4,21.3,25.5c14.3,28.1,20.7,58.1,21.5,89.5
		c0.3,9.9-4.7,18.1-7.4,27.1c-2.2,7.3-7,11-13.6,14.7c-20.7,11.6-43.3,12.6-66,13.7c-6.8,0.3-13.6,0-22,0
		c-25.3,1.5-51.7-4.2-78.2-7.7c-18.7-2.4-37.5-3.5-56.3-5.1c-36.1-3-72.1-6.9-108.1-11.4c-12.6-1.6-24.4-6.1-37.2-6.7
		c-8.1-0.4-10.8-6.8-7.3-15c2.1-4.9,5.1-9.3,8.6-13.3c7.5-8.5,11.7-18.3,12-29.7c0.1-3.2,0.8-6.5,0.6-9.7
		c-0.8-14.5,5.2-26.5,13.8-37.3c10.3-12.9,21.1-25.3,32.9-37c9-8.9,19.1-15.6,30.3-21.1c7.1-3.5,14.4-6.9,21.4-10.5
		c15.7-8.2,32.3-11.9,50.1-11.9c14.2,0,28.2,2.5,42.3,2.3c15.9-0.2,31.8-0.6,47-6.3c3.3-1.2,6.8-2,10.3-2.6
		C2767.4,979.5,2779.7,982.8,2790.4,992z M2746.3,851.5c5.5,8,11.3,15.8,15.2,24.8c2.5,5.8,4.1,11.6,3.9,18
		c-0.3,12.7,0.6,25.3-2.3,37.9c-2.8,11.9-9.3,20.7-19.6,27.1c-14.1,8.7-29.1,12.2-45.6,9.4c-4.9-0.8-10.1-0.9-15-0.3
		c-12.4,1.4-24.7,0.9-37.1,1.3c-2.4,0.1-4.8,0-7,0.6c-24,6.8-48.8,11-71.9,21.2c-16.8,7.4-29.6,19-41.2,32.5
		c-6.3,7.4-12.4,14.9-19.9,24c-1.7-11.8-6.6-20.2-11.3-28.7c-6.7-12.1-13.4-24.3-20.4-36.2c-9-15.1-13.9-31-11.7-48.9
		c1.1-8.5,1.7-17.1,1.4-25.6c-0.2-8.4,3.7-14.1,9.7-18.8c6.6-5.2,14.1-8.9,22.5-9.7c13.1-1.2,24.3-6.6,35.1-13.5
		c6.9-4.5,13.7-9.2,20.6-13.8c7.2-4.8,15-8,23.8-8.8c5-0.4,9.9-1.5,14.8-2.5c6.9-1.4,13.2-0.4,19.6,2.7
		c21.5,10.3,43.8,16.8,68.1,16.4c10.8-0.2,19.9-4.8,29.5-8.3c4.9-1.8,9.4-4.9,14.2-7.2C2732.7,839.4,2739.2,841.4,2746.3,851.5z
		 M2778.1,593.5c-4.3,11.4-10.8,21.6-16,32.5c-3,6.3-9.4,9.7-15,13.4c-18.2,11.9-31.8,28-41.9,47c-5.9,11.2-11.3,22.8-13.6,35.4
		c-3.1,16.7-3.6,33.3,3.4,49.4c5.2,11.9,10.6,23.6,18.6,34c8.1,10.4,6.5,19.4-4.7,25.9c-12.1,6.9-24.8,12.4-45.2,11.5
		c-28.5-3.2-58.2-16.1-81.4-42.5c-5.8-6.6-11.7-13.2-16.5-20.7c-4-6.2-6.1-12.7-6.2-20c-0.1-7.4,0.1-14.7-0.1-22.1
		c-0.3-16.2-5.6-30.6-16.1-43c-2.5-2.9-4.7-6-7.1-9c-9-11.5-10.6-24.2-4.9-37.5c7.6-17.7,18.7-32.6,36-42.3
		c18.3-10.2,36.2-20.9,54.2-31.6c28.6-17.1,49.9-41.1,61.8-72.7c3.9-10.3,5.2-21.1,6-32c0.6-7.6,1.6-8.6,8.9-8.9
		c4.2-0.2,8.3,0.2,12.1,2c23.3,11,43,26.7,59.5,46.3c5.9,6.9,7.3,16,8.7,24.7c2,12.5,1.6,25.2,3.5,37.8
		C2783.2,578.6,2780.8,586.2,2778.1,593.5z M2909,309.9c2.6,10.2,7.3,19.4,14.8,26.8c13.9,13.4,24.2,29.6,36.4,44.3
		c5.2,6.2,5.1,13.5,3.5,21c-2.4,11.7-6.6,22.5-13.8,32.2c-12.1,16.2-25.4,31.3-44.3,39.7c-20.2,9-37.5,22.2-55.1,34.9
		c-8.4,6.1-17.5,10.8-26.4,16c-8,4.8-16.7,2.9-23.2-3.9c-4.3-4.5-7.1-10.1-10.8-15c-12.5-17.1-28-30.9-44.9-43.4
		c-9-6.6-18.1-13.1-28.4-17.7c-7.9-3.6-14-9.7-20.4-15.3c-1.3-1.2-2.6-2.5-3.4-4c-8.8-15.9-14.5-32.8-14.4-51.2c0-2.3,0.1-4.8,0.9-7
		c6.3-18,15.1-34.1,33.8-41.8c15.3-6.2,31.1-10.9,47-15.4c5.4-1.5,10.9-2.6,16.1-4.6c12.9-4.9,26.5-5.4,40-6.1
		c11.8-0.7,23.5-1.5,35.2-3.4c16.3-2.7,31.2-8.6,43.5-20.1c0.8-0.8,1.8-1.4,3.2-2.3c3.2,4.9,4.2,9.5,5.2,14.1
		C2905.3,295.1,2907.1,302.5,2909,309.9z M2721.4,238.8c23,0.5,41-9.3,56.6-24.5c26.2-25.5,57.4-40.7,93.3-46.6
		c6.5-1.1,12.9,0.5,19.3,1.1c3.2,0.3,5.3,2.3,6.9,5c2.7,4.6,4.7,9.5,5.1,14.9c1.8,20.7-2.7,40.4-10.1,59.6
		c-5.9,15.3-18,23.6-33.2,28c-10.5,3.1-21.4,4-32.3,4.9c-10.3,0.8-20.6,1.2-30.9,2.1c-4.1,0.3-8.2,0.9-12.2,2
		c-24.7,6.9-49.4,13.6-73.5,22.4c-15.5,5.6-26.7,15.9-36.7,29.1c-14,18.6-22.3,40.1-34.3,59.7c-8,13.1-15.3,26.6-25.1,38.5
		c-16.7,20.5-38.6,31.9-64.3,37.5c-24.2,5.3-48.5,9.8-73.2,12c-16.4,1.4-32.9,1.5-49.4-0.7c-10.4-1.4-19.9-5.3-29.1-9.9
		c-12.2-5.9-24.3-11.9-36.4-17.9c-6.8-3.4-12.9-8-19.9-14.3c22.6-6.5,32.9-24.5,45.2-40.1c7.5-9.5,12.3-20.6,17.5-31.6
		c9.9-20.9,22.7-39.5,44.1-51.3c14.1-7.8,28.5-13.7,44.3-16.7c17.1-3.3,33.6-9,49.6-15.7c21.9-9.2,44.4-15.6,67.9-18.7
		c7.9-1,15.2-3.6,22.5-7.1c11.6-5.6,22.9-12.1,35.3-16C2686,239.1,2703.8,238.4,2721.4,238.8z M2889.2,30.9
		c-11.1,8.9-23.1,16.3-35.7,22.9c-18.3,9.6-35.1,21.7-53.5,31c-5.3,2.7-10.7,5-16.3,6.8c-32,10.3-63.9,20.6-95.9,30.8
		c-4.8,1.5-9.2,3.7-13.6,6.3c-7.9,4.6-15.1,10.2-22.5,15.7c-6.5,4.9-11,11.6-13.8,19.1c-2.8,7.4-5.4,15-7.3,22.7
		c-2.5,10.6-0.3,19.9,9.2,26.5c3.4,2.4,6.7,4.9,9.8,7.6c3.1,2.7,3.5,5.7,0.7,9.2c-3.2,4.1-7,7.5-11.8,8.9c-7.9,2.5-15.4,6-23,9
		c-8.9,3.5-18.3,4.4-27.5,6.2c-21.8,4.2-42.3,12.5-62.9,20.6c-12.9,5.1-26.3,8.8-39.9,11.3c-24.1,4.5-44.8,16-63.6,31
		c-9.6,7.6-16.5,17.6-22.8,28c-4.9,8-9.3,16.3-13,25c-7.8,18.4-20.6,33.7-34.6,47.7c-7.4,7.4-18.3,9.1-28.3,11.7
		c-2.9,0.7-5.2-1-7.3-2.4c-13.5-9.4-28.7-14.9-44.1-20c-7.9-2.6-15-6.6-21.7-12.6c5.9-4.2,12-6.9,18.2-9.2
		c12.6-4.7,23.7-11.7,34.6-19.3c4.9-3.4,9.8-6.5,15.5-8.4c18.6-6.1,31.6-18.9,41.9-35c4.4-6.9,8.9-13.8,14.7-19.9
		c11.1-11.8,23.3-21.5,39.7-25.1c10.8-2.4,19.8-8.9,29.7-13.6c29.4-13.9,57.6-29.9,81.6-52.1c12.1-11.2,23.6-23.1,35.5-34.5
		c12.8-12.2,25.7-24.3,39.2-35.7c7.7-6.4,14-14.3,21.7-20.8c11.7-9.9,23.8-19.4,34.4-30.4c27.1-28.2,61.7-42.4,97.5-54.9
		c15.1-5.3,30.6-8.4,46.4-10.7c24.2-3.4,48.3-7.4,72-13.6c10-2.6,20.2-2,31.7-1.6C2899.8,18,2896,25.4,2889.2,30.9z"/>
</g>
</svg>
