<?xml version="1.0" encoding="utf-8"?>
<!-- Generator: Adobe Illustrator 22.0.0, SVG Export Plug-In . SVG Version: 6.00 Build 0)  -->
<svg version="1.1" id="Layer_1" xmlns="http://www.w3.org/2000/svg" xmlns:xlink="http://www.w3.org/1999/xlink" x="0px" y="0px"
	 viewBox="0 0 1440 960" style="enable-background:new 0 0 1440 960;" xml:space="preserve">
<style type="text/css">
	.st0{opacity:0.2;}
	.st1{opacity:0.1;clip-path:url(#SVGID_2_);fill:#FFFFFF;}
</style>
<g class="st0">
	<defs>
		<rect id="SVGID_1_" x="-25.5" y="-14" class="st0" width="1489.5" height="993"/>
	</defs>
	<clipPath id="SVGID_2_">
		<use xlink:href="#SVGID_1_"  style="overflow:visible;"/>
	</clipPath>
	<path class="st1" d="M1503.6-42.2c-5.6-1.8-11.3-3.6-16.7-6.1c-3.7-1.7-6.7-4.1-9.3-7.2c-9.6-11.8-21-21.5-34.9-27.8
		c-3.5-1.6-6.6-3.7-9.8-5.9c-8.4-5.9-12.2-14.1-12-24.3c-3,0-6.1,0-9.1,0c-0.2,18.3,9.9,29.7,25.3,37.5c6.3,3.2,12.1,7,18.2,10.5
		c0.9,0.5,1.8,1.2,2.5,2c4.3,5.5,9.4,10.4,13.8,15.8c6.2,7.4,2.6,20.7-2.5,25.7c-1.2,1.2-2.8,1.8-4.4,2.4c-5.3,2.1-10.8,3-16.3,4.2
		c-13.8,3.2-28,4.6-41.7,8c-19.2,4.7-37.2,12.5-53.7,23.7c-2.5,1.7-4.6,3.9-6.8,6.1c-7.9,7.8-16.4,15.1-25.7,21.2
		c-1.4,0.9-3,1.6-4.4,2.3c-4,2-8,1.8-11.7-0.7c-3.4-2.3-7.4-3.4-10.6-6.2c-4.5-3.9-6.3-9.3-8.5-14.4c-2.4-5.6-5.1-11-9-15.8
		c-1.9-2.4-2.9-5.3-4.1-8.1c-1.4-3.2-3.1-6.3-5.5-8.9c-3.8-4.2-6.9-8.9-9.8-13.8c-5.2-9-10.7-17.7-16.9-26c-3-4-5.4-8.5-7.9-12.8
		c-7.2-12.3-15.7-23.5-24.9-34.3c-4.7-5.5-9.7-10.5-15.4-14.9c-1.2-0.9-2.5-1.8-3.1-3.3c-5.2,0-10.4,0-15.6,0
		c7.3,5,14,10.9,20.4,16.9c5.5,5.2,10.4,11.1,15,17.2c7.9,10.6,14.5,22.1,22,33.1c7.6,11.1,13.6,23.1,21.3,34.1
		c1.9,2.6,2.9,5.6,3.5,8.7c-0.9,1.3-2,0.7-3,0.6c-5.5-0.7-11-0.7-16.4-0.2c-11.4,1-22.9,1.2-34.2-0.5c-11.1-1.8-22.2-3.9-32.7-8.1
		c-6.2-2.5-11.6-6.7-16.9-10.7c-2.7-2-5.7-3.6-8.4-5.4c-6.3-4.4-13.1-8.1-19.1-13.2c-6.4-5.6-12.6-11.4-19.3-16.7
		c-8.4-6.6-16.3-13.7-24.4-20.6c-3.1-2.7-4.7-6-4.9-10.3c-0.5-8.5,0.8-16.7,3.9-24.6c-3.4,0-6.7,0-10.1,0c0,0.5,0.1,1,0,1.3
		c-3.1,7.7-3,15.7-2.9,23.9c0,6.6,2.8,11.8,7.5,16c5.9,5.2,12.1,10.2,18.2,15.2c4.9,4,9.2,8.4,11.9,14.2c2,4.2,1.5,6.3-2.3,9
		c-2.3,1.6-4.7,2.6-7.5,2.9c-20.3,2.5-40.5,5.1-60.3,10.4c-21.9,5.8-43.7,12.2-64.6,21.3c-2.5,1.1-5.1,1.9-7.9,1.8
		c-4.7-0.3-7.7-2.4-8.9-7c-0.9-3.4-2.5-6.5-4.1-9.6c-2.9-5.6-7.5-8.8-13.4-10.1c-8.8-1.8-16.6-5.9-24.7-9.3c-7.9-3.4-12-10-15.9-17
		c-0.5-1-0.6-2-0.7-3.1c-0.2-9,0-17.9,3.8-26.4c3-6.8,5.6-13.8,8-20.9c1.4-4.1,2.2-8.2,2-12.5c-3,0-6.1,0-9.1,0
		c0.7,5.2-1.5,9.9-3.1,14.6c-2.4,6.6-5.2,13-7.9,19.5c-1.9,4.5-4.7,8.5-7.9,12.2c-7.2,8.7-14.1,17.6-18.1,28.3
		c-1.1,3.1-3.2,5.5-5.2,8c-1.8,2.2-4.4,3.3-7.2,3.5c-5.6,0.4-11.1,0.5-16.7-1c-13.8-3.7-27.9-4.2-42.2-3.6
		c-8.2,0.3-16.4,0.5-24.7,0.9c-7.9,0.3-15.8,0.7-23.7,1.3c-11,0.8-21.9,0.6-32.8-1c-9.4-1.4-18.8-1.1-28.3-0.8
		c-3,0.1-6.1,0.2-9.1,0.4c-5.8,0.5-10.9-1.7-15.5-4.7c-4.2-2.8-7-6.8-6.6-12.2c0.7-9,2-17.9,3.4-26.7c0.8-4.7,3.2-8.6,7-12
		c8.1-7.2,16-14.6,25.4-20.1c3.9-2.3,8-4.4,11.9-6.6c-7.9,0-15.9,0-23.8,0c-4,4.1-8.1,8.2-12.1,12.3c-0.8,0.8-1.9,1.6-2.9,2.2
		c-2.2,1.3-4.7,2.3-6.8,3.7c-6.4,4.1-12.9,2.4-19.3,0.4c-4-1.3-6-4.7-6.4-8.7c-0.4-3.3-0.5-6.7,0.9-9.9c-9.1,0-18.3,0-27.4,0
		c-8.1,5.2-16.5,9.7-26,11.6c-7.9,1.6-15.3,4.4-22.3,8.1c-12.2,6.4-20.7,16.4-25.7,29.2c-2.1,5.3-4.9,6.3-9.8,3.7
		c-9.6-5-17.5-12.1-25.5-19.1c-4.9-4.3-8.7-9.5-8.1-16.6c0-0.6,0-1.2-0.2-1.8c-1.3-5.3-0.3-10.3,2.4-15c-3.4,0-6.7,0-10.1,0
		c-2.1,5.1-2.5,10.3-1.4,15.7c0.1,0.4,0.2,0.9,0.2,1.4c-0.4,11.2,5.9,18.8,13.8,25.5c2.3,2,4.7,3.9,6.9,6c3.1,2.9,6.6,5.4,10.3,7.5
		c2.9,1.6,6,3,8,5.9c0.3,0.5,0.9,0.9,1.4,1.1c6.5,1.9,10.9,7.1,16.4,10.6c3.2,2.1,6,4.7,8.9,7.2c3.1,2.8,5.8,5.8,6.4,10.2
		c0.4,3.2-0.4,4.9-3.4,6.1c-4,1.7-8.2,2.2-12.5,2.7c-2.3,0.2-4.2-0.8-5.9-2.1c-4.2-3.1-9.1-5-13.4-7.8c-3.6-2.4-7.6-3.8-11.8-4.8
		c-19.4-4.7-39-8.1-59-9.1c-9.6-0.5-19.2-0.7-28.8-0.8c-10.5-0.1-21-0.2-31.5-0.9c-5.4-0.4-10.5-1.8-15.5-3.5
		c-4.5-1.5-5.9-4.2-4.9-8.9c0.7-3.6,1.2-7.2,1.5-10.8c0.5-6.4,4.1-11.5,8.1-16.1c5.9-6.8,12.8-12.7,21.8-15.3
		c15.7-4.6,30.7-10.8,45.8-16.9c2-0.8,4-1.4,5.7-2.8c-8.5,0-17.1,0-25.6,0c-4,2.3-8.5,3.3-12.8,4.7c-8.4,2.7-17,4.9-25.1,8.4
		c-3.2,1.4-6.4,2.9-9.4,4.7c-7,4.3-14.4,4.4-22,2.6c-5-1.2-10-2.7-15-4.1c-2.7-0.8-5.4-1-8.2-0.7c-15.3,1.4-30.6,2.6-45.5,7.1
		c-12.3,3.8-24.9,5.5-37.8,5.3c-15.2-0.2-29.9,3.3-44.6,6.8c-9.6,2.3-18.2,7-26.1,12.8c-4.3,3.1-8.6,6.3-13,9.3
		c-7.1,4.9-15.1,6.3-23.5,5.1c-4.2-0.6-6.1-2.8-6.4-7c-0.8-11.7-6.5-20.7-15.6-27.7c-5.4-4.2-10.6-8.6-16.6-12.2
		c-4.5-2.7-8.2-6.3-11.2-10.6c-0.9-1.4-2-2.7-2.1-4.5c-5.8,0-11.6,0-17.4,0c4.1,4.8,8.8,8.8,13.3,13.1c6.5,6.1,14,10.7,21,16
		c7.1,5.4,13.6,11.4,16.8,20c3,8.1,3.9,16.3-1.1,24.1c-1.6,2.5-1.4,5.2-1.1,8c0.2,2.6,0.7,5.1,1.1,7.7c0.3,2.2-0.5,3.7-2.7,4
		c-4,0.7-8.2,1.6-12.1-0.6c-10-5.6-20.9-4.9-31.7-4.1C61-25,55-23.8,48.9-23.3c-5.3,0.5-10.7-0.2-15.9-1C17.3-26.4,2.7-24-10.9-15.6
		C-24-7.3-36.4,1.9-47.8,12.6c-5.6,5.3-10.5,11.3-16.5,16.3c-5.6,4.7-11.1,9.5-17,13.8c-0.9,5.4-0.3,10.8-0.5,16.1
		c-0.1,1.9-0.1,3.9-0.1,5.8c0.3-0.1,0.5,0,0.8,0.1c1-0.8,1.4-2,1.7-3.2c1.7-7.2,6.3-12.5,11.7-17.1c7.4-6.3,15-12.5,21.5-19.8
		c4.4-4.9,9.1-9.4,14-13.7C-22.9,2.8-12.6-4-1.9-10.1c10.5-6,21.7-6.5,33.3-5.2c12.3,1.4,24.4,2.7,36.9,1.1
		c11.8-1.5,23.4,0.4,34.6,4.5c5.7,2.1,11.6,2.5,17.6,1.3c2.2-0.4,4.4-1.1,6.6-1.6c8.6-2.1,17.3-1.6,25.9-0.4
		c5.9,0.8,8.5,4.3,8.4,10.1c0,6.7-1.5,8.6-8.1,10.1c-2.1,0.5-4.2,0.8-6.3,1c-3.3,0.2-6.2,1.4-9.1,2.8c-4,1.9-6.4,5-7.6,9.2
		c-1,3.5-2.2,7-3.1,10.5c-1.7,6.2-6,9.8-11.6,12c-5.1,1.9-10.2,4.1-15.5,5.5c-5.4,1.5-10,4.5-13.7,8.7c-2.9,3.2-6.3,5.7-10.6,6.8
		c-2.9,0.7-5.4,0.4-7.5-1.9c-1.8-2-4-3.7-6.1-5.5c-9.7-8.3-20.8-9.2-32.7-6.2c-5.2,1.3-10.2,3.2-15.1,5.1c-10.4,4-21,7.1-32.2,8.3
		c-1.5,0.2-3,0.5-4.4,1.1c-2.7,1-4,3.3-3.6,5.7c0.4,2.6,2.6,4.6,5.5,4.5c3.5-0.1,7-0.3,10.5-0.8c6.4-0.8,12.5-2.6,18.4-5.3
		c5.3-2.5,10.8-4.2,16.3-6c6.5-2.1,13.3-2,20-1.2c4.5,0.5,8.4,3,11.5,6.1c4.9,5,10.7,9,15.8,13.9c3.8,3.6,6.8,7.7,10.4,11.5
		c9.5,9.9,21.6,15.7,33.7,21.6c6,2.9,12.2,5.6,18.3,8.4c6.4,3,11.9,7.4,17.4,11.7c4.5,3.4,9,6.7,13.9,9.5c6.9,3.9,9.4,9.1,8.1,16.8
		c-0.6,3.3-1.3,6.6-3,9.6c-3.7,6.5-5.4,13.6-6.5,20.8c-1,6.8-2.1,13.6-3.4,20.3c-1.8,8.9-7.4,15.3-16,18.5c-9.8,3.7-19.7,4.8-30,1.3
		c-11-3.7-22.3-6.4-33.5-9.3c-8.4-2.2-16.1-6-23.2-11.3c-11.8-8.8-21.4-19.4-28.6-32.2c0,0,0,0,0,0c-0.6-0.4-0.9-1-0.9-1.8l0,0
		c0,0,0,0,0,0c-0.6-0.4-1-1-1-1.8c-6.2-11.2-11.3-22.9-16.7-34.5c-3.8-8.4-8.5-16.3-16.2-21.6c-6.4-4.4-9.5-10.5-10.5-17.9
		c-1.6-11.6-8.6-18.2-19.5-21.7c-8.1-2.6-15.9-1.6-23.8,0.1c-5.2,1.1-10.2,3-15.1,5.1c-2.2,1-4.5,1.8-6.8,2.7c0,0,0,0,0,0
		c-1.5,3.3-0.8,6.8-0.7,10.2c0,0.8,0.7,1.3,1.5,1.5c4.9-2.4,9.7-5.2,14.9-7c8.7-2.9,17.8-4.2,27-2.3c3.4,0.7,5.7,2.6,7.4,5.6
		c1.7,2.9,2.8,6.1,3.7,9.3c1,3.7-0.1,7-2.8,9.6c-3.4,3.3-6.9,6.5-11.5,8c-9.8,3.3-17.3,9.3-21.9,18.8c-1.4,3-3.9,5.4-5.3,8.5
		c-0.6,1.3-2,1.8-3.2,2.5c-3.3,1.9-6.6,3.7-10,5.6c0,3.6,0,7.2,0.1,10.8c0,1.6-0.2,3.3,0.7,4.8c4-2.3,7.4-5.3,10.7-8.5
		c6.5-6.4,13-12.8,17.8-20.7c3.7-6.3,9.1-11,16.1-13.7c2.5-1,4.9-2.5,7.3-3.8c1.9-1,3.8-1.9,5.9-2.3c3.3-0.7,6.2-0.4,8.7,2.4
		c2.3,2.6,5.1,4.8,8.5,6c2.5,0.9,4.1,2.6,5.3,4.8c3.4,6,6.1,12.3,8.9,18.5c0.8,1.8,1,3.8,1.1,5.8c0.6,7.5,4.3,13.5,9.1,19
		c2.2,2.5,4.6,4.9,6.4,7.7c1.8,2.8,3.4,5.7,4.4,9c0.8,2.7,2.4,5.2,3.7,7.8c1.9,3.8,0,8.4-4,9.9c-0.3,0.1-0.6,0.2-0.9,0.2
		c-10.2,1-18.8,5.8-26.9,11.6c-4.2,3-8.4,6-12.1,9.6c-7,6.9-14.7,12.7-23.1,17.8c-5.2,3.1-10.3,6.5-14.5,11
		c-5.3,5.7-8.3,12.7-10.9,19.9c-1.7,4.9-4.6,8.9-8.5,12.2c-1.5,1.3-2.9,1.8-5,1.3c-2.8-0.7-5.7-0.8-8.6,0c0.3,4.8-0.8,9.7,0.8,14.4
		c2.5,0.6,5,1.4,7.3,2.5c1.8,0.9,3.5,1.9,4.5,3.7c2.2,3.7,5.3,6.6,8.4,9.5c1.7,1.7,3.5,3.4,5.1,5.2c4.5,5.4,10.2,9,17,10.9
		c1.6,0.4,3.5,0.5,3.9,2.6c0.5,2.2-0.5,3.7-2.2,5.1c-5.7,4.8-11.9,9-18,13.2c-4.2,2.9-7.8,6.2-10.8,10.3c-3.1,4.2-6.9,7.3-12.4,7.6
		c-0.2,0.1-0.3,0.2-0.5,0.2c-1,0.4-2.1,0.5-3.2,0.6c0.5,3.6-0.6,7.3,0.9,10.8c9.8-0.1,17.7-3.9,23.6-11.7c2.8-3.7,6.1-6.7,9.9-9.3
		c5.7-3.8,11.3-7.8,16.9-11.6c1.5-1,2.8-2.4,4-3.7c2.8-2.9,6.1-4.4,10-4.9c4.4-0.5,8.8-1,13.2,0c1.5,0.4,3.1,0.6,3.4,2.5
		c0.3,1.6-0.9,2.5-2,3.3c-9.9,7.3-17.3,16.6-22.1,27.9c-5.2,12.1-14.4,19.8-26.7,23.8c-10.4,3.4-20.4,8.1-31.1,10.5
		c0,4.5-0.1,9-0.1,13.4c0.6,0.1,1.2,0.2,1.7,0.2c13.4-2.6,26-7.5,37.8-14.5c7.3-4.3,13.5-9.9,19.2-16.1c2.1-2.2,3.3-5.1,4.9-7.7
		c3.6-6.1,5.5-13.2,10.1-18.8c2.6-3.2,5.3-6.3,8.7-8.7c2.4-1.7,4.7-3.4,7-5.1c3-2.3,6.3-3.5,10.1-3.6c2.4-0.1,4.4,0.6,6.2,2.3
		c7.7,7.3,17.2,10.8,27.5,12.4c8,1.3,16,2,24.1,1.7c9.8-0.3,19.5,0.7,29.1,2.2c1.2,0.2,2.4,0.4,3.5,0.9
		c12.4,5.7,24.1,12.4,32.9,23.2c4.6,5.6,10.3,9.9,16.2,14c2.8,1.9,5.7,3.6,8.3,5.7c4.6,3.6,4.8,8.9,0.7,13c-1.8,1.8-3.6,3.7-5.7,5.3
		c-3.4,2.5-5.8,5.8-7.4,9.7c-2.4,5.9-4.8,11.8-4.7,18.5c0,5.1-4.6,9.8-9.8,10.3c-3.5,0.3-6.9,0.4-10.4,0.1
		c-17.2-1.7-34.4-0.9-51.3,3c-6.2,1.4-12.6,2.2-18.9,3.2c-6.2,0.9-12.2,2.6-17.7,5.9c-5.1,3-10.2,6-15.4,9c-7,4-14.6,6.1-22.3,8
		c-10.1,2.5-19.8,6.1-29.8,8.7c-4.4,1.1-8.9,2.1-13.3,3.1c-2.2,0.5-4.3,0.1-6.2-0.8c-6.8-3.1-13.5-6.3-19-11.7
		c-0.8-0.7-1.6-1.5-2.5-1.9c-5.7-2.8-9.9-7-12.8-12.6l0,0c-1.4,4.7-0.3,9.5-0.6,14.3c1.8,1.9,3.9,3.4,6.2,4.6c1.1,0.6,2.2,1.1,3.1,2
		c5.7,5.4,12.5,9.2,19.4,12.8c2,1.1,3.9,2.4,5.8,4.2c-5.2,4.7-9.1,10.4-13.8,15.2c-5.3,5.4-10.2,11.3-16.1,16.2
		c-1.4,1.2-2.7,2.4-4.5,3c0,2.5,0,5,0,7.6c0,1.3-0.1,2.7,1.6,3.3c11.8-6.2,21.2-15.1,29.3-25.6c2.5-3.3,5.4-5.5,9.9-5.7
		c4.2-0.1,7.1,1,9.5,4.7c3.7,5.6,9.2,9.1,15.6,11.3c6.8,2.3,13.3,5.1,19.5,8.8c6,3.5,10.3,8.4,13.9,14.2c2.2,3.7,4.2,7.3,4.1,11.9
		c0,2.2-0.3,4-2.1,5.2c-3.2,2.2-5.3,5.4-7.6,8.4C6.5,620.5,1,628-3.6,636.1c-7,12.5-18,19.4-31.4,23.3c-4,1.2-8,1.6-12.2,1.8
		c-11.4,0.5-22.7,2.1-33.8,4.8c-1.3,2.2-0.8,4.7-0.8,7c0,1.6,1.2,1.9,2.5,2c7.7-1.8,15.4-3.1,23.3-4c9.3-1,18.9-0.4,27.8-4.3
		c1.8-0.8,3.7-1.4,5.5-2.1c1.1,1.2,0.1,2.1-0.3,3c-2.7,7.5-6.5,14.4-11,21c-11.9,17.2-19,36.2-21.8,57c-1.8,13.4-2.2,26.7,0.1,40
		c1,5.9,2.7,11.6,4.6,17.2c3.2,9.1,6.3,18.1,9,27.3c1.4,4.7,3.7,9,4.7,13.8c0.5,2.4,1,4.8,1.3,7.2c0.5,4.8-0.5,6.8-4.9,8.6
		c-5.9,2.5-12.2,3.6-18.6,3.9c-7.3,0.3-14.5,1.5-21.7,2.5l0,0l0,0c-1,2.3-0.6,4.6-0.6,7c0,1.1,0.5,2,1.6,2.4l0,0l0,0
		c5.2-1.4,10.4-2.2,15.8-1.5c3.8,0.5,7.5,0.4,11.4-0.1c4.5-0.6,9.1-0.9,13.6,0.5c3.1,1,5.1,2.7,6.2,6c2.4,7.6,3.1,15.5,4.2,23.3
		c0.2,1.3-0.1,2.9,0.3,4.1c3.1,8.3,3.3,17.3,7,25.5c2.4,5.3,3.4,11.1,3.9,16.8c0.9,9.9,4.3,18.9,8.7,27.6c0.4,0.8,1,1.6,1.3,2.4
		c5.5,13.2,15.8,22.6,25.7,32.2c2.6,2.6,5.1,5.2,7.1,8.3c4.8,0,9.7,0,14.5,0c6.7-9.8,16.2-16.4,25.7-23c5.9-4.1,12.6-6.7,19.3-9.3
		c9.6-3.8,18.8-8.7,28-13.3c6-3,11-7.6,16.5-11.3c1.6-1.1,2.8-2.8,4-4.3c2.1-2.7,4.7-4.6,7.2-6.8c6.4-5.9,14.2-8.7,22-11.5
		c3.2-1.2,6.2-1.3,9.3,0.1c4.6,2.2,8.7,5,11.1,9.7c2.6,4.9,6.3,9,9.4,13.5c2.3,3.3,3.8,6.8,4.2,10.9c0.6,5.1,1.1,10.3,1.2,15.5
		c0.3,10.7,5,19.6,11,28c0.4,0.6,0.9,1.2,1.4,1.8c3.6-0.1,7.4,1.1,10.9-0.7c-2.3-3.6-5.1-6.8-7.5-10.3c-5-7-6.7-14.9-6.9-23.3
		c-0.1-4.7-0.8-9.4-1.2-14.1c-0.3-3.7-1.8-7.1-3.7-10.2c-2.5-4.2-5.1-8.3-7.6-12.4c-2.7-4.6-2-7.5,2.5-10.3c1.8-1.1,3.8-1.9,5.9-2.4
		c6.3-1.7,12.6-3.6,19-4.8c5.7-1.1,11-3.5,16.2-6.2c8.8-4.6,17.3-9.7,26.3-13.7c11.7-5.1,23.6-9.8,36.5-11.4c4.2-0.5,8.2,0,12.1,1.6
		c12.1,5,24.2,10,36.3,15.1c5.3,2.2,9,5.9,11.8,10.9c8.7,15.3,18.7,29.7,31.9,41.4c6.7,5.9,14.2,11.1,22.1,15.4
		c6.6,3.7,11.6,8.6,15.4,15.1c4.1,7.1,8.9,13.8,13.3,20.7c4.3,0,8.6,0.1,12.8,0.1c6.5-15.6,15.6-29.7,26.5-42.5
		c6.6-7.7,14.8-13,24.7-15.6c9.7-2.5,19.4-5.4,29.1-7.9c4.8-1.3,9.1-3.4,13.1-6.3c4.9-3.6,10.1-6.9,15.3-10.1
		c8.2-5.1,16.5-5,24.9-1.2c8.1,3.7,15.3,8.6,21.8,14.9c8.8,8.5,14.5,19.1,20.4,29.6c1.9,3.3,3.4,6.8,5.4,10.1
		c5.5,8.8,7.1,18.7,8.4,28.7v0c3.3,0.3,6.5,0.3,9.8,0.1c0.7-10.9,4.3-20.8,11-29.5c4.9-6.2,9.8-12.4,14-19.2
		c2.1-3.5,4.1-7.1,6.3-10.6c2-3.1,4.2-6,7.4-7.9c1.2-0.7,2.3-1.5,3.7-1.7c5.9-0.8,11.6-2.4,17.6-2.3c12.8,0.1,25.6,0.2,38.3-0.5
		c11.7-0.7,23.4-1.5,35.1-1.5c8.9,0,17.2,2.2,25,6.2c7.8,4,15.8,8,22.6,13.7c3.9,3.2,7.5,6.6,11.2,10.1c2.2,2.1,4.7,3.9,7.2,5.5
		c12.1,7.7,25.2,13.3,38.7,18.2c14.7,5.3,29.4,11,42.6,19.6c13.4,0,26.8-0.1,40.2-0.1c5.1-2.4,9.8-5.6,14.4-8.8
		c6.6-4.7,13.9-8.2,21-12c9.3-5,18.3-10.3,26.7-16.7c7.9-6.1,16.5-11.1,26.2-13.7c12.8-3.5,25.4-7.6,38.4-10c6-1.1,11.9-2.5,18-2.7
		c13-0.4,23.3,4.3,31.5,14.4c6.9,8.5,12.2,17.8,15.1,28.4c2,7.4,4.4,14.6,8.1,21.3c3.3-0.1,6.6-0.1,9.9-0.2
		c-4.4-8.3-7.4-17-10.1-25.9c-3.3-11.4-9.1-21.6-16.6-30.8c-3.6-4.5-7-9.2-10.5-13.9c-2.2-2.9-3.1-6.2-3.1-9.8
		c0-9.1,1.4-17.8,4.2-26.5c2.5-7.9,6-14.9,11.3-21.2c2.4-2.8,5-5.4,8.4-6.9c7.3-3.3,14.8-5.6,23-4.8c6.3,0.6,12.1,2.4,18.1,4.3
		c8.9,2.7,16.9,6.9,24.7,11.8c5.7,3.6,11.3,7.3,15,13.1c2,3,3.2,6.1,3.4,9.7c0.4,7.8,0.7,15.5,1.6,23.3c0.7,5.7,2.7,10.9,5.8,15.7
		c7.6,11.6,18.7,18.1,31.6,21.9c3.8,1.1,7.6,2.2,11.5,3.2c8.8,2.3,16.6,6.9,24,11.9c6,4.1,10.3,9.4,12.6,16.3c1,3,2.2,6,3.3,9
		c5.5-0.1,11-0.1,16.4-0.2c-2.4-6.5-1.7-12.8,1.3-19c1.9-3.8,2.8-8.4,5.6-11.4c7-7.9,12.9-16.7,22.8-21.9c8.6-4.5,17-8.1,26.9-7.3
		c0.9,0.1,1.8,0.1,2.7,0c12.1-1.1,22.3,3.8,31.9,10.4c6.4,4.4,13.4,7.2,20.7,9.5c11.9,3.9,24,6.7,36.7,6.1c4.7-0.2,9.4,0.8,13.5,3.6
		c0-3.4,0-6.7,0-10.1c-4.4-1.9-9-2.9-13.8-2.7c-15.5,0.7-29.8-3.8-43.8-9.4c-2.8-1.1-5.4-2.8-7.9-4.5c-9.5-6.2-19.5-10.8-31.1-12.3
		c-9-1.1-18.1-1.5-26.9-4.4c-9.2-3-14.6-9.2-17.2-17.9c-1.6-5.4-3.1-10.8-3.9-16.4c-0.5-3.5-1.7-6.8-3.2-10
		c-1.8-3.7-3.3-7.5-4.7-11.4c-3-8.9-3.3-17.8-1.9-27c0.7-4.4,1.7-8.2,4.5-11.6c2.8-3.4,6.2-5.2,10.5-5.8c8.8-1.3,17.6-0.4,26.4,0.4
		c8.5,0.8,16.6,3.7,25.2,4.4c8.8,0.7,17.6,1,26.3-1c9.8-2.2,19.6-4.8,29.8-3.7c10.7,1.1,21.4,2.8,31.7,6.2c0-3,0-6.1,0-9.1
		c-7.6-3.6-15.8-5.4-23.9-7.4c-4.3-1.1-8.4-2.6-12.4-4.5c-3.8-1.9-4.3-3-3.3-7.3c0.1-0.4,0.1-0.9,0.4-1.3c3.4-6.4,3.6-13.4,3.4-20.5
		c-0.1-7.2,1.7-14.2,3.5-21.1c0.8-3,2.8-5.4,4.7-7.8c3.9-4.9,8-9.6,12.1-14.3c4.3-4.9,9.2-8.9,15.4-11c0-3.4,0-6.7,0-10.1
		c-4.6,2-9.2,3.9-13.9,5.9c-10.1,4.3-20.7,6.1-31.6,5.5c-3-0.2-5.4-1.3-8-2.8c-7.5-4.2-13.9-9.8-20.4-15.3c-4.5-3.7-9.6-6.6-15-8.5
		c-7.3-2.6-14.1-6.5-22.1-7.1c-9.6-0.7-18.5,0.5-25.9,7.4c-2.8,2.6-5.8,4.9-8.7,7.4c-0.9,0.8-1.9,1.6-2.9,2.2
		c-1.7,1-3.4,1.1-5.2,0.1c-2-1.2-1.9-3-1.6-4.8c2.7-18.1,8.3-35.2,18-50.9c2.5-4,5-8,7.4-12.1c5-8.3,12-14.6,20.3-19.3
		c11.4-6.5,21.8-14.5,31.9-22.8c6.6-5.5,14.2-9.3,22.7-11.2c4.8-1,9.2-0.2,13.1,2.3c3.8,2.5,7.3,5.4,10.9,8.2c2.8,2.2,4.2,5,4.5,8.6
		c0.7,8.2,2.2,16.2,4,24.2c1,4.2,3,8,4.7,11.9c3.7,8.6,7.8,16.9,14.7,23.4c1.2,1.1,2.1,2.5,3.2,3.8c0-4.6,0-9.1,0-13.7
		c-6.2-7.7-10-16.7-13.1-25.9c-2.7-7.9-3.7-16.3-4.4-24.6c-0.5-5.8-2.9-10.4-7.2-14.3c-3.3-3-6.2-6.3-10.2-8.4c-1.9-1-2.6-2.8-2.7-5
		c-0.2-4.2,0.1-8.2,3-11.6c1.7-2.1,3.2-4.4,4.8-6.7c6-8.8,14.2-14.9,23.8-19.4c2.1-1,4.1-1.9,6.2-2.9c0-4.6,0-9.1,0-13.7
		c-0.4,0.2-0.8,0.6-1.2,0.7c-10.5,2.4-18.7,8.7-26.9,15.1c-3.6,2.8-6.4,6.5-9.1,10.2c-1.8,2.5-3.5,5.2-6.5,7.8
		c0.3-3.9,0.8-6.8,0.7-9.9c-0.1-6.5-1.4-12.6-3.4-18.8c-2.5-7.7-5.5-15.2-8.5-22.7c-3.1-7.7-8.2-13.5-15.4-17.4
		c-1.3-0.7-2.6-1.6-3.9-2.3c-12-6.5-19.6-17.2-26.5-28.4c-3.2-5.2-4.4-11-4.5-17c0-6.4-0.5-12.7,1.9-18.9
		c3.1-7.9,7.1-15.1,13.6-20.8c6.5-5.6,14-9.7,21.5-13.7c3.1-1.6,6.2-3.3,9.4-4.7c10-4.4,18.1-11.1,24.8-19.7c2.3-2.9,5-5.2,8.4-7
		c5.6-2.9,9.8-7.3,12.5-13c2.9-6,7.4-10.3,13.1-13.5c0-3.4,0-6.7,0-10.1c-8.9,3.9-16.2,9.6-20.6,18.5c-1.8,3.6-4,7.1-7.6,9
		c-6.1,3.2-11.1,7.6-15.1,13c-5.7,7.4-13.5,11.6-21.6,15.7c-8.8,4.5-17.8,8.7-25.8,14.7c-4.6,3.4-8.7,7.6-13.8,10.5
		c-4.7,2.7-6.2,2.6-8.3-2.5c-3.2-7.8-8.3-14-14.5-19.6c-4.6-4.2-9.4-8.7-12.3-14c-3.9-7.1-7.2-14.8-8.3-23.1
		c-0.2-1.3,0.1-2.7,0.4-4.1c1.5-7.1,4.7-13.4,8.7-19.4c5.4-8.1,12.1-14.7,19.8-20.7c5.7-4.4,11.3-9.2,14.7-16
		c2.1-4.3,3.4-8.8,4.6-13.3c1-4.1,2.8-7.6,5.4-11c3.6-4.7,7.1-9.5,11.3-13.8c3.8-4,7.9-7.6,12.5-10.6c4.5-3.1,9-6.3,13.4-9.5
		c3.6-2.6,7.3-5,11.4-6.7c12.2-5.3,21.6-13.9,29.8-24.2c6.3-7.9,11.3-16.5,16-25.4c0-4.9,0-9.8,0-14.6c-5.2,2.1-8.6,1.4-12.2-2.7
		c-1.2-1.4-2.4-2.8-3.4-4.3c-3-5-6.7-9.5-11-13.4c-6.1-5.6-8.6-12.7-10.2-20.5c-0.6-3.1-0.9-6.4-2.3-9.3c-3.1-6.6-3-13.4-1.1-20.1
		c2.1-7.6,2.7-15.2,2.7-23c0-8.2,2.4-11,10.2-14.2c8.8-3.6,17.9-4.4,27.3-4.2c0-3.4,0-6.7,0-10.1c-9.9-0.1-19.9,0.7-29.4,3.6
		c-7.7,2.4-15.5,2.6-23.4,3.2c-21,1.5-40.3,7.5-56.8,21.1c-3.3,2.7-6.3,5.7-9.6,8.4c-5.9,4.9-12.3,9.1-20.6,8.4
		c-2.9-0.2-5.8-0.1-8.7-0.1c-11.1,0-20.3-4.5-28.7-11.4c-1.7-1.4-1.9-3-1.3-4.9c1.1-3.5,2.2-7,3.4-10.4c0.5-1.6,1.4-3.1,2.7-4.2
		c5.4-4.6,11-9.3,17.9-11.5c16.6-5.4,33.3-10.7,50-16.1c6.3-2,12-5.2,17.6-8.6c7.5-4.7,15.1-9.1,22.9-13.3
		c7.9-4.3,15.2-9.6,21.9-15.6c3.2-2.8,5-6.3,5.8-10.5c1.2-6.2,5.5-10,11-12.5c8.1-3.6,16.3-6.8,25.2-7.7c0-4.3,0-8.5,0-12.8
		C1516-39.2,1509.7-40.2,1503.6-42.2z M1170.9-0.3c10.7,2.9,21.8,4.2,32.7,5.8c10.9,1.6,21.8,1,32.8,0.3c7.3-0.5,14.6-0.9,21.6,2.4
		c2.8,1.3,4.9,2.9,6.2,5.7c2.1,4.4,4.4,8.7,6.7,13c0.5,0.9,1,1.9,1.7,2.7c5.1,5.6,9.7,11.6,15.2,17c5.5,5.4,11.2,9.8,19.1,9.7
		c0.3,1.9-0.8,2.4-1.6,3c-9.1,7.9-17.5,16.5-26,25c-7.4,7.4-15.6,13.7-24.4,19.1c-5.2,3.1-10.8,5.8-16.5,7.8
		c-5.1,1.8-9.8,4.3-14.3,6.9c-4.9,2.9-10.1,4.2-15.7,4.4c-10.8,0.4-21.6-0.6-32.3-2.5c-6.9-1.2-13.1-3.8-18.9-7.6
		c-5-3.2-10.3-5.8-16-7.7c-4.2-1.4-8.2-3.2-12-5.5c-2.7-1.7-5.6-3.1-8.6-4.3c-2.2-0.9-4.4-2-6.2-4.3c6.1-3.4,12.1-6.2,18.7-7.6
		c6.4-1.4,12.8-2.2,19-4.9c8.4-3.6,15-9.3,20.5-16.3c6.3-8,7-17.4,5.1-26.9c-1.1-5.6-5.3-8.8-10.6-10.3c-4.1-1.2-8-2.9-11.9-4.7
		c-2.4-1.1-4.5-2.6-6.3-4.5c-2-2.2-2.3-3.8-0.7-6.1C1153.4,1.8,1160.9-3,1170.9-0.3z M1355.8,233.8c-2.4,12.9-8.8,23.6-18.4,32.3
		c-5.9,5.3-12.5,9.6-19.5,13.4c-9,4.8-17.7,10.2-26.4,15.4c-1.8,1.1-3.3,2.7-4.8,4.2c-1.5,1.5-2.7,3.4-4.2,4.8
		c-6.4,5.6-9.2,13.1-11.3,21c-2.2,8.3-6.2,15.3-12.1,21.7c-6.3,6.8-12.8,13.4-18.4,20.9c-1.9,2.6-4.3,4.8-6.9,6.7
		c-12,8.7-21.4,19.9-29,32.6c-2.6,4.3-6.1,7.6-10,10.5c-3.6,2.7-7.3,3.4-11.3,0.3c-2.6-2.1-5.6-3.5-7.5-6.5
		c-2.4-3.8-3.4-7.8-2.9-11.4c-0.1-3.4,0.1-5.9,0.6-8.5c0.8-3.8,0.8-7.6-0.2-11.3c-1.5-5.7-1.6-11.5,0.1-17.1
		c2.6-8.8,2.1-17.8,1-26.7c-0.4-3.6-1.6-6.8-3.8-9.7c-3.7-4.9-7.4-9.7-11.2-14.5c-1.4-1.8-3.4-3-5.3-4.3c-8.7-6-18.7-8.8-28.8-11.1
		c-1.3-0.3-2.7-0.5-4-1c-3.8-1.5-7-3.6-7.7-8.2c-0.5-3.1-1.3-6.3-2.4-9.3c-2.6-6.9-0.8-12.9,3.7-18.3c6.4-7.7,13.7-14.3,23.4-17.7
		c6.9-2.4,12.9-6.2,17.4-12.1c4.2-5.4,10-8.3,16.2-10.6c1.6-0.6,2.9-0.6,4.3,0.3c1.7,1.1,3.4,2,5,3.2c5.9,4.7,12.4,8.3,19.2,11.4
		c4.6,2.1,9.1,4.2,13.6,6.5c7.2,3.8,15,5,23,5.3c10.4,0.4,20.7-0.5,31-1.7c11.9-1.4,23.4-4.3,34.9-7c7.7-1.8,14.7-5.8,20.9-11
		c5.7-4.9,10.9-10.2,14.9-16.6c2.3-3.7,5.5-6,10.2-5.7c2,0.1,3.6,0.8,4.4,2.7c2.1,4.9,4,9.8,2.9,15.4
		C1355.7,225.8,1356.5,229.9,1355.8,233.8z M1299.9,401.9c2.9,3.3,5.8,6.6,8.8,10c-1.1,1.1-2,1.3-2.9,1.3
		c-7.9,0.6-14.5,4.3-20.8,8.8c-5.5,3.9-11,7.6-17.8,9c-7.2,1.4-9.9-0.1-10.2-7.4c-0.4-9.6-2.9-18.6-6.8-27.3
		c-4.2-9.5-3.1-18.3,3.7-26.4c5.4-6.4,11-12.6,17.9-17.5c4.2-3,8.5-2.3,11.2,2.1c3.7,6.2,6.7,12.8,6.1,20.2
		C1288.4,385.7,1293,394.2,1299.9,401.9z M1002.1,736.2c-4.9-3.2-8.5-7.8-12.9-11.5c-2.9-2.5-5.5-5.2-8.2-8
		c-10.5-10.8-23.3-18-36.7-24.3c-6.1-2.8-12.5-3-19.2-2.4c-14.9,1.3-28.4,6.7-41.5,13.3c-17.3,8.8-35.4,15.5-54,20.9
		c-3.3,0.9-6.6,0.3-9.9-0.4c-1.3-0.2-2.2-1-2.7-2.2c-0.6-1.4-1.5-2.8-1.7-4.2c-1.2-10-1.3-19.8,6.4-27.9c3.1-3.2,6-6.5,9-9.7
		c3.4-3.6,6-7.7,8.7-11.8c4.8-7.5,4.1-15.7,3.1-23.9c-0.1-0.6-0.2-1.2-0.5-2.8c7.4,3.1,14.2,5.1,21.2,6.6c13.3,3,26.7,4.8,40.3,3.3
		c9-1,17.5-4.1,25.7-7.7c7.1-3.1,14-4.4,21.7-2.5c4.2,1,8.7,0.8,13.1,0.9c7.9,0.2,15.8,0.2,23.7-0.7c4.9-0.6,9.6-1.7,14.3-3.2
		c11-3.5,22.3-6.2,33.6-8.8c4.9-1.1,9.7-2.7,14.4-4.4c6.2-2.2,12.8-2.5,19.4-2.2c2.7,0.1,5,1.4,7,3c2.6,2.1,5.1,4.4,7.5,6.6
		c4.6,4.2,9.6,8,14.7,11.6c7.5,5.3,13.9,11.9,20.9,17.7c10.8,8.9,16.9,20.6,20.2,34c1.7,7.3-2.5,13.7-9.8,15.4
		c-6.3,1.5-12.7,1.9-19,2.1c-5.8,0.2-11.5,1-17.1,2.4c-9.2,2.3-18.4,4.2-27.7,5.8c-10.1,1.8-19.3,5.4-27.9,10.8
		c-3.6,2.3-7.3,4.5-11,6.5C1018.5,743.2,1010,741.4,1002.1,736.2z M1023.9,808.5c1.6,11,3,22,4.4,33c0.5,4.2-0.1,8.3-1.3,12.2
		c-1.9,6.1-6,8.5-12.5,8.3c-5-0.2-10.1-0.1-15.1-0.2c-10.9-0.2-20.9-3.4-30.2-9.2c-17.3-10.8-31.1-25.2-43.1-41.6
		c-5-6.9-10-13.8-15-20.7c-1.2-1.6-2.5-3-3.9-4.5c-11.1-12-24.3-21.2-38.1-29.6c-7.2-4.3-15.3-6.8-23.1-9.8
		c-6.2-2.4-11.9-5.4-17.4-9c-0.8-0.5-1.6-0.9-2-2.2c6.6-3.2,13.5-4.6,20.1-6.8c14.6-4.9,28.8-10.8,42.5-17.8
		c12-6.1,24.5-10.6,38.1-11.9c7-0.7,12.9,1.5,18.8,4.5c13.4,6.9,25.4,15.7,35.6,26.8c3.7,4,7.3,8.1,10.8,12.4
		c4.2,5.2,9.6,9.4,14.8,13.6c4.6,3.7,7.4,8,7.4,14c0,1.7,0.5,3.3,1.1,4.9C1020.1,785.7,1022.3,797,1023.9,808.5z M805.7,719.1
		c2,7.5,1.4,8.6-6,10.8c-0.9,0.3-1.8,0.7-2.6,0.7c-2.7,0.1-5.5,0-8.2,0c-8.8,0.5-17.1-1.8-25.3-4.9c-11-4.1-21.9-8.3-33.1-11.9
		c-10.4-3.4-21-6-31.6-9c-6.9-1.9-10.3-8.1-8.5-15.8c1.5-6.4,3.7-12.6,6.8-18.4c3.1-5.9,6.2-11.9,9.3-17.8c3-5.9,8.1-9.8,12.9-14
		c4.4-3.8,9.1-7.2,12.9-11.6c1.1-1.2,2.6-2.2,3.9-3.1c8.3-5.6,16.5-11.5,25.1-16.7c7.6-4.6,15.8-7.8,24.2-10.5
		c2-0.7,3.9-0.6,5.8,0.1c9.9,3.7,18.7,8.7,23.8,18.7c2.3,4.5,5.4,8.4,8.7,12.3c6.3,7.5,10.7,15.8,10.3,26.1
		c-0.2,3.8-1.2,7.1-3.2,10.3c-3.8,6-8.5,11.1-13.3,16.2c-3.9,4.1-7.6,8.3-9.5,13.8c-1,2.9-1.9,5.8-2,8.9c-0.1,1.5-0.1,3.1-0.5,4.5
		C804.3,711.7,804.7,715.4,805.7,719.1z M238.8,336.3c2.7-9.1,6.3-17.8,10.8-26.1c4.1-7.5,9.6-13.3,17.8-16.1
		c7.6-2.6,15.2-5.3,23.1-7.3c3.8-1,7.1-0.7,10.4,1.7c7.6,5.5,16.3,8.8,25.2,11.6c11.5,3.7,22.2,9.3,32.5,15.6
		c5.3,3.3,10.9,6.1,16.7,8.5c12.5,5.3,25.3,9.7,38.1,14.1c3,1,6,2.1,8.6,4.2c4.6,3.6,6.2,8.7,6.9,14c1.3,9.3,0.1,18.1-6.1,25.9
		c-6,7.5-13,13.7-21.5,18c-6.2,3.1-11.6,7.2-17.3,11c-5.5,3.7-8.8,9.2-12.6,14.4c-2.2,2.9-4.2,6-6.4,8.9c-1.4,2-3,3.9-5.1,5.2
		c-7.1,4.7-13.3,10.7-20.5,15.2c-0.8,0.5-1.5,1-2.3,1.5c-3.4,1.8-3.9,2.1-6.3-0.8c-5-5.8-11.7-8.6-18.5-11.2
		c-9.5-3.7-19.3-6.7-29.3-8.7c-8-1.6-14.5-6.2-20.5-11.5c-3.7-3.2-7.2-6.6-10.9-9.8c-2.7-2.3-4.9-5-6.6-8.1
		c-6.9-12.5-10.5-25.9-10.5-40.2c0-1.1,0-2.1,0-3.2C233.4,353.8,236.2,345,238.8,336.3z M842.9,126.2c-0.2-1.8-0.1-3.7-0.3-5.5
		c-0.6-6.5,2.7-10.7,7.9-13.8c2.2-1.3,4.5-2.5,6.7-4c1-0.7,2.2-1.3,3.3-1.5c8-1.1,16.1-2.1,24,0.1c5.7,1.6,11.4,3.3,17,5.3
		c10.9,3.9,22.2,6.6,33.6,8.5c6.1,1,12.2,0.3,18.3,0.5c3.8,0.1,7.6-0.2,11.3,1c1.6,0.5,3.1,1.2,4.2,2.5c5.1,6.5,12.3,8.7,20.1,9.3
		c19,1.6,37.4-1.3,55-8.4c6.8-2.8,12.8-7.1,18.9-11.1c7.6-4.9,15.2-9.5,23.8-12.4c0.3-0.1,0.6-0.2,0.9-0.3c2.1-1.1,3.7,0.3,4.7,1.6
		c1.1,1.4-0.6,2.4-1.4,3.4c-7.6,9.4-12.9,19.9-16.2,31.4c-1.5,5.2-0.9,10.2,1.1,15.2c5.2,12.8,14.4,21.1,27,26.3
		c5.1,2.1,9.7,5.3,15.4,8.4c-8.3,2.3-15.4,5-22.8,6.5c-1.3,0.3-2.7,0.6-4.1,0.6c-10.1,0-20.1,0.1-30.1,1.2c-9.8,1-18.5-2.8-27.3-6.4
		c-11.9-4.9-20-14.1-27.5-24c-7.9-10.5-17.9-18.2-30-23.1c-2.7-1.1-5.6-1.3-8.5-1.1c-9.8,0.5-18.7,3.8-27.3,8.4
		c-5.1,2.8-9.7,6.2-14.3,9.8c-11.9,9.3-23.2,19.2-36,27.3c-4.4,2.7-8.2,6.3-11.3,10.6c-6.6,9-15.4,15-25.3,19.7
		c-4.5,2.1-9.2,4.1-13.8,6c-5,2.1-10.2,2.6-15.6,1.4c-10-2.2-20.1-3.1-30.3-4.1c-8.6-0.8-16.6-3.8-23.2-9.6
		c-3.7-3.3-3.7-5.9-0.7-9.7c4.1-5.2,9.7-7.8,15.7-9.6c11.6-3.6,21.7-9.2,29.4-19.1c4.4-5.8,9.4-11.2,15.1-15.8
		c2.1-1.7,4-3.8,5.9-5.7C841.5,140.6,843.9,134,842.9,126.2z M1020.2,64.9c-0.6-5.7,2.3-8.6,6.7-11.7c9.4-6.7,20.3-8,31-10.3
		c9.7-2.1,19.4-3.9,29.1-5.8c7.5-1.5,14.6-4.3,21.7-7c6.1-2.3,12.3-3.4,18.8-3.1c2,0.1,4,0,5.9,0c0,0,0,0,0,0c1.8,0,3.7-0.1,5.5,0
		c5.5,0.2,10.9,0.4,16,2.9c2.8,1.4,6,2.1,9.1,3.1c3.9,1.3,5,3,5.3,7c0.7,8.1-1.8,14.8-7.8,20.5c-6.6,6.3-14,10.6-23.1,11.9
		c-10.1,1.5-19.5,4.8-28.3,9.9c-2.7,1.6-5.7,2.1-8.8,2c-3.8-0.1-7.5,0.4-11.2,1.5c-11.9,3.7-22.9,9-33.1,16.2
		c-10.9,7.8-23.1,12.7-36.2,15.7c-10.9,2.5-21.8,2.1-32.7,1.5c-4-0.2-8.1-1.1-10.6-5.2c-2.2-3.4-2.5-5.6,0-9
		c8.9-12.2,11.9-14.6,26-21.1c3.1-1.4,6-3,8.8-4.8C1017.7,76,1020.9,71.3,1020.2,64.9z M959.2,264.1c5.4,7.7,10.3,15.8,13.9,24.6
		c4,9.6,10,17.8,18.1,24.3c0.6,0.5,1.3,0.8,1.5,1.6c0.1,0.7-0.6,0.7-0.9,0.6c-11.1-1.7-22.2-0.7-33.3,0.5
		c-8.5,0.9-16.6-0.9-24.8-2.8c-4.5-1-8.2-4-11.9-6.6c-8.5-5.9-16.9-11.9-25.4-17.9c-2.2-1.6-4.5-3.2-6.9-4.5
		c-10-5.1-17.1-13.1-23.1-22.3c-4.4-6.7-8.5-13.7-12.6-20.6c-1.7-2.8-2.7-5.8-3.5-8.9c-1.2-4.5,1.2-8.2,6.6-11.2
		c4.8-2.7,9.6-5.2,14.3-8.1c7.9-4.8,14.5-11.1,20.3-18.2c2-2.4,4.3-4.3,6.7-6.1c11.6-9.1,23.2-18.3,34.8-27.4
		c9.8-7.8,20.5-13.7,33.2-15.2c3.6-0.4,6.9,0.2,10.2,1.8c9.7,4.9,17.9,11.4,24,20.6c4,6,9.8,10.4,14.6,15.7c0.6,0.7,1.5,1,2,2.4
		c-7.6,2.8-13.3,7.7-18.6,13.2c-4.7,4.9-10.2,8.6-16.3,11.6c-2.6,1.3-5.1,2.6-7.7,4.1c-5.8,3.3-9.7,8.4-12.3,14.3
		c-3.3,7.4-5.1,15.3-6.1,23.4C955.6,257.1,956.8,260.7,959.2,264.1z M1058.5,462.2c0.9,2.6,2.2,5,3.6,7.4c4.8,8.5,5.6,17.6,4.1,27
		c-0.4,2.3-1.5,4.3-3,6.1c-8.9,10.7-19.8,18.6-32,25.3c-11,6-22.7,9.5-34.3,13.5c-8.9,3-17.9,5.9-26.8,9c-4.2,1.4-8.4,1.2-12.7,0.7
		c-3.8-0.5-6.1-2.7-6.6-6.5c-0.9-6.9-0.6-13.7,1.7-20.3c0.5-1.5,1.5-2.6,2.6-3.7c7.1-6.7,10.6-15.3,12.4-24.5
		c1.5-7.3,1.6-14.8-0.5-22.1c-2-6.9-0.6-13.1,3.4-19.1c2.6-3.9,5.5-7.7,8.1-11.6c1.6-2.4,3.6-4.6,5.9-6.3c6.9-5,12-11.6,17.1-18.3
		c6.2-8.1,13.7-14.6,23.2-18.6c2.8-1.2,5.3-3,8.3-3.9c4.5-1.3,6-0.8,7.9,3.4c4.1,9.3,9.1,18.3,12.5,27.9c1.9,5.3,2.7,10.6,2.4,16.1
		C1055.5,450.1,1056.4,456.2,1058.5,462.2z M1065.3,434.7c-1-9.4,2.1-17.8,6.7-25.7c4.7-8,6.5-16.7,6.7-25.8c0.1-4.9,0.2-9.8,0-14.6
		c-0.4-11.6,3.2-21.9,9.7-31.3c6-8.6,12.4-17,19.8-24.5c3.5-3.6,8.2-4.6,12.9-5.1c14.4-1.6,25.9,3.8,35,14.9
		c1.8,2.2,3.5,4.7,5.5,6.7c3,3.1,3.7,6.8,3.2,10.9c-0.3,3.2-0.6,6.4-1.5,9.5c-0.8,2.8-1.1,5.7-1,8.6c0.3,8.5,0.4,17,1.4,25.5
		c0.5,4.2,0.5,8.5-1.6,12.5c-0.8,1.6-1.1,3.5-0.8,5.4c1.1,7,0.5,14-0.5,20.9c-1,7.4-0.6,14.9-1.2,22.3c-0.8,9.8-5.3,17.3-12.9,23.2
		c-1.5,1.1-2.9,2.2-4.4,3.3c-12.9,8.7-22.9,19.9-30.6,33.3c-1.8,3.2-3.4,3.7-6.1,1.1c-5.2-5.1-11.1-9.5-16.4-14.5
		c-1.7-1.6-3-3.5-3.8-5.6c-2.7-7.8-7.1-14.6-12.8-20.4c-6.4-6.5-8.4-14.3-7.5-23c0.1-1.4,0.2-2.7,0.3-3.6
		C1065.4,437.1,1065.5,435.9,1065.3,434.7z M785.8,535.1c-0.2-2.2-1.1-4.1-2.1-6c-3.4-6.2-7.5-11.8-13.3-16.1
		c-6-4.5-11.1-9.9-14.9-16.5c-1.4-2.4-2.1-4.8-1.7-7.4c1.4-8.5,0.7-17-0.3-25.5c-0.5-4.3,0-8.6,0.8-12.7c1-5.3,4.4-9.3,8.2-12.9
		c4.6-4.4,8.2-9.4,10.4-15.4c1.1-3.2,1.9-6.4,2.3-9.8c0.2-1.3,0-2.8,1.5-4.4c4.6,9.7,13.2,14,21.3,19.2c11.3,7.1,24.1,9.2,36.6,12.2
		c5.5,1.3,11,2.7,16.6,3.3c9.3,1,16.9,5.8,24.3,11c4.9,3.4,9.6,7,14.9,9.7c9.1,4.7,18.9,6.8,28.9,8c8.4,1.1,16.4,3.3,24.5,5.5
		c8.7,2.3,13,12.6,11.6,20.4c-0.4,2.2-1.7,4-3.2,5.5c-6.3,6.5-10,14.5-13.3,22.7c-2.4,6.2-2.9,12.4-1,18.8c1.1,3.8,1.6,7.7,2,11.7
		c0.5,4.6-0.6,8.9-3.5,12.4c-4.5,5.4-9.2,10.5-15.5,14c-5.7,3.2-12,4.4-18.3,5.2c-18.3,2.5-36.8,1.7-55.2,1.5
		c-6.3-0.1-12.7-1-18.9-2.7c-4.5-1.2-9.3-1.4-14-1.7c-7.2-0.5-14-3-20.9-4.5c-1.3-0.3-2.1-1.3-2.7-2.3c-1.7-2.8-2.9-5.7-2.7-9
		C788.9,557.8,786.9,546.5,785.8,535.1z M419.3,436.8c1.8,2.9,1.8,5.7,0.5,8.7c-3.6,7.7-3.7,15.6-1,23.6c0.7,2,1.3,4.1,1.7,6.2
		c1.5,6.9,0.5,13.3-4.2,18.9c-4.4,5.3-9.3,9.8-15.5,13.2c-7.1,3.8-13.9,8.2-20.4,13c-2.9,2.1-6,3.6-9.6,3.8
		c-4.5,0.2-6.2-0.9-7.1-5.3c-2.3-10.4-5.8-20.5-9.1-30.6c-2.3-7.2-5.6-13.8-11-19.2c-3-3-3-4,0.8-5.7c7.7-3.5,13.2-9.7,19.8-14.5
		c5.2-3.7,9.3-8.8,12.9-14.1c5.6-8.1,12.5-14.9,21-20c2.9-1.7,5.6-3.7,8.1-5.9c2.8-2.5,6.5-3.7,10.5-6.2c-0.6,4.5-0.9,8-1.4,11.4
		C414,422,415.1,429.8,419.3,436.8z M366.8,553.2c0.5-3.4,1.9-6.3,3.7-9.2c5.8-9.5,14.3-16.1,23.5-21.8c5.3-3.3,10.7-6.5,16-9.8
		c6.7-4.2,12.2-9.9,16.1-16.5c4.2-7.2,5.4-15.4,2.9-23.8c-1-3.4-1.8-6.8-2.7-10.2c-1.2-4.4,0-8.4,2.4-12.3c2.8,1.5,5.1,3.6,7.8,4.9
		c5.5,2.6,11.2,4,17.2,4.5c11.8,1,23.7,1.6,35.6,2.2c11.1,0.5,22.3,0.7,33.1,3.5c10.3,2.7,19.4,7.9,27.2,15.3
		c0.9,0.8,1.7,1.8,2.2,2.9c5.2,9.2,11.1,18.2,13.4,28.8c1.1,4.7,2.6,9.4,3.8,14.1c2.6,9.7,7.2,18.4,12.8,26.6
		c0.3,0.4,0.5,0.7,0.8,1.1c1.8,2.7,4.6,5.3,3.3,9c-1.4,4.2-4,7.5-8.1,9.5c-10,4.7-20.3,8.1-31.1,10.7c-23,5.5-44.6,14-63.6,28.7
		c-8.6,6.6-18.3,11.5-28.2,15.9c-7,3.1-14.1,5.7-21.1,8.7c-5.8,2.5-11.4,0.8-17-0.7c-3.5-1-6.9-2.5-9.9-4.6
		c-8.8-6.3-17.4-12.9-24.5-21.1C368.5,593.1,364,574.2,366.8,553.2z M450.4,239.8c5.9-4.5,10.8-9.8,14.4-16.3c1.2-2.1,2.7-4.1,4.1-6
		c2.7-3.7,5-4.3,9-2.1c5.6,3,11.1,6.3,16.6,9.5c11.5,6.7,23.3,5.9,35.3,2.2c5.7-1.7,11.2-4,16.7-6.1c12-4.5,24.5-6.4,37.1-6.9
		c8.8-0.3,17.2-2,25.6-4.3c4.8-1.4,9.7-2.3,14.8-2.6c7-0.3,12.7,2.2,18.3,6c7,4.8,14.1,9.5,21.3,14.1c2.6,1.7,5.3,3,8.2,3.9
		c5.7,1.8,11,4.6,16.3,7.2c5.8,2.8,10.2,7.2,14.2,12c2.2,2.6,2,4.8-0.3,7.4c-1.4,1.6-3,3-4.8,4.2c-6.6,4.3-11.4,10-15,16.9
		c-0.3,0.5-0.6,1-0.9,1.6c-5,12.3-15.1,19.2-26.4,24.6c-10.3,4.9-20.5,10-30.5,15.7c-8.7,5-16.4,11.1-22.8,18.8
		c-3.2,3.8-7.1,6.2-11.8,7.4c-1.4,0.3-2.7,0.4-4.5,0.4c-3.1-0.4-6.5-1.2-9.5-3.1c-3.6-2.3-7.1-4.7-10.2-7.6
		c-3.7-3.4-7.7-6.5-11.4-9.8c-7.9-7.1-14.5-15.1-18.7-25.1c-3.8-9.1-8-18.2-14.8-25.6c-0.9-1-1.4-2.3-2.1-3.5
		c-1.1-1.9-2.2-3.7-3.8-5.1c-10.3-9.4-22.4-15-36.2-17c-3.9-0.6-7.9-0.8-11.8-1.1c-5.5-0.4-10.8-1.9-15.8-4.4
		C447.4,243.2,447.2,242.2,450.4,239.8z M439.9,236.1c-3.3,2.1-6.5,2.2-9.9,0.1c-1.4-0.9-2.8-1.8-4.3-2.5
		c-7.5-3.6-10.8-9.5-10.2-16.9c-0.4-8.3,3-13.3,9.8-16.3c8.8-3.9,17.3-4.3,25.8,0.8c0.9,0.5,1.9,1,2.8,1.5c5,2.7,6.8,7.4,4.7,12.6
		c-1.6,4-3.8,7.6-6.7,10.8C448.4,230.1,444.3,233.3,439.9,236.1z M611,537.8c0.1-2.6,0.4-5.2,0.8-7.7c0.7-4.8,1.6-9.6,2.2-14.5
		c0.8-5.8,0.4-11.4-0.7-17.2c-1.5-8.4-2.1-16.9-2.9-25.4c-0.7-7.6-1.2-15.2-1.7-22.8c-0.3-4.1-1.9-8-2.7-12c-2.1-11-2-21.8,2.5-32.3
		c1.6-3.8,4.5-6.9,6.7-10.3c3.4-5.5,6.5-11.1,6.1-18c0.2-7.2-2.9-13.5-6.2-19.7c-3.4-6.3-3.1-11.4,2.4-15.9
		c10.5-8.8,20.7-17.9,33.5-23.6c7.5-3.3,14.7-7.3,21.7-11.7c6.3-4,10.7-9.8,14.9-15.9c2.2-3.3,4.9-6.2,7.3-9.4
		c0.6-0.8,1.4-1.6,2.3-2.1c2-1.2,4-0.4,4.7,1.8c0.7,2.1,0.8,4.2,0.7,6.3c-0.2,4.6,1.4,8.6,4,12.4c7,10.1,15.5,18.7,25.6,25.8
		c4.9,3.4,8.4,8,10.2,13.7c0.7,2.2,1.3,4.4,2,6.6c0.9,2.8,2.3,5.3,4.8,7c2.8,1.9,4.4,4.4,5.1,7.8c1.2,5.7,3.2,11.2,6.2,16.1
		c2.7,4.3,2.9,9.3,4.1,14c1.8,7.2,2.8,14.6,1.6,22.2c-1.7,10.2-7.1,17.3-15.9,22.1c-6.8,3.7-13.9,6.9-21.5,8.6
		c-8.5,1.9-16.4,5.7-24.3,9.2c-8.6,3.7-15.4,10-19.5,18.6c-3.1,6.6-5.1,13.7-5.7,21c-0.3,3.2-0.2,6.4-0.3,9.6
		c-0.3,5.3-2.6,9.4-7.5,11.6c-9.2,4.1-18.4,8.1-27.6,12c-4.9,2-9,5.1-13.1,8.2c-2.4,1.8-4.8,3.8-7.2,5.6c-2.1,1.6-4.4,2.6-7.1,3
		C611.9,542.8,610.9,542.1,611,537.8z M623.9,582.9c1.6,0.9,3,2,4.2,3.5c4.4,5.2,3,11.2-3.3,13.9c-5.8,2.4-11.6,4.7-18.8,5.2
		c-5.6-2-12.6-2.8-18.5-6.3c-5-2.9-5.8-6-3-11.1c3-5.3,5.2-11,10-15.1c3.5-3,4.4-3.1,8.5-1.3C610.2,575,616.9,579.2,623.9,582.9z
		 M606.6,373.1c2.6,1.4,3.3,3.8,3.3,6.6c0,2.7-0.8,5-2.6,7.1c-2.3,2.7-4.5,5.4-6.1,8.5c-3,5.5-5.3,11.3-5.8,17.7
		c-0.3,3.8-0.8,7.6-1.1,11.4c-0.5,5.9,0.3,11.7,2.5,17c3.1,7.5,3.4,15.2,2.5,22.9c-1.1,10-0.2,19.8,2,29.5c1.2,5,1.8,9.9,0.9,14.9
		c-1.7,9-1.9,18.2-3.6,27.2c-0.5,2.6-1.1,5.1-2,7.5c-0.7,2-1.7,2.2-3.4,0.8c-1.1-0.9-1.8-2.1-2.3-3.4c-5.8-13.1-11.6-26.2-15.6-40
		c-0.1-0.3-0.2-0.6-0.2-0.9c-1.7-11.3-7.9-19.5-17-26c-2.9-2-5.6-4.2-8.2-6.6c-3-2.7-7.1-3.5-10.4-5.6c-9.2-5.6-19.3-7.9-30-8.3
		c-3.6-0.1-7.3-0.6-10.9-1c-11.1-1.2-22.2-0.5-33.3-1.8c-6.2-0.7-12.5-0.5-18.5-2.4c-4.2-1.3-7.6-3.9-10.5-6.9c-2-2.1-1.8-4.9,0.2-8
		c3.8-6,9.1-10.5,14.7-14.9c10.4-8,22.5-11.1,35-13.4c2.8-0.5,5.7-1.2,8.5-1.9c19.6-4.6,39.1-9.2,58.7-13.8c4.5-1.1,8.6-3,12.6-5.3
		c6.6-3.8,13.2-7.6,19.7-11.5C592.6,368.3,599.6,369.2,606.6,373.1z M568.8,599.2c2.5-3,4-3.2,6-0.1c4.5,6.8,10.7,10.6,18.7,12
		c1.2,0.2,2.4,0.6,3.5,1.1c6.1,3.2,12.4,2.6,18.7,0.9c4.7-1.3,9.3-3,13.8-4.8c3.7-1.5,6.3-4.3,7.9-7.8c1.3-2.9,3.5-3.6,6.3-3.1
		c2.4,0.5,4.9,0.8,7.1,1.8c8.7,4.2,18.1,5.3,27.4,6.2c11.7,1.2,23.4,0,35-2.2c8.1-1.5,16.1-3.2,24-5.4c5.4-1.5,10.8-3,16.3-4.3
		c1-0.2,2.1-0.7,3.1-0.6c1.2,0.1,2.5,0.6,3.1,1.6c0.8,1.3-0.4,2.2-1.2,3.1c-2.1,2.5-4.9,4-7.6,5.7c-7.8,4.8-15.1,10.3-22.7,15.4
		c-2.8,1.9-4.7,4.8-7.2,7c-3.5,3.2-7.5,5.6-11.2,8.6c-4.8,3.8-8.2,8.6-11.1,13.8c-3.6,6.4-6.9,12.9-10.1,19.4
		c-3.8,7.7-6.5,15.7-7.9,24.2c-0.4,2.7-1.1,5.3-2.2,7.9c-4.6,10.8-13.6,13.5-24.7,13.6c-3.1,0.4-6.5-0.3-10-0.7
		c-4.5-0.5-8.4-3-11.3-6.5c-6.7-8.1-15.4-12.7-25.2-15.7c-6.6-2-13.2-4.3-18.7-8.4c-5.2-3.9-11.1-7-15.9-11.4
		c-3.4-3.1-7.1-5.8-10.8-8.5c-2.4-1.7-4.4-3.8-6.2-6c-1.9-2.2-2.7-4.7-2.8-7.5c-0.7-14.9,3.1-28.6,11-41.3
		C565.6,604.8,566.7,601.7,568.8,599.2z M737.1,588.4c-18.1,4.6-36.3,9.5-55.3,8.1c-5.9-0.4-11.8-1-17.6-2.4
		c-7.7-1.9-14-6.5-20.8-10.3c-6.3-3.4-12.2-7.4-17.5-12.3c-2.9-2.7-6.2-4.8-9.9-6.4c-3-1.3-3.1-2-0.7-4.1c5.2-4.4,10.6-8.7,15.9-13
		c3.1-2.5,6.4-4.7,9.1-7.6c2.4-2.5,5.2-4.1,8.4-5.3c8.2-3.2,16.4-6.6,25-8.6c4.9-1.1,9.5-3,12.7-7.4c3.1-4.1,4.6-8.6,4.4-13.6
		c-0.1-4.3-0.3-8.5-0.7-12.8c-0.3-2.8,0-5.4,1-8.1c2.5-6.7,6.3-12.5,12.1-16.9c0.9-0.6,1.7-1.3,2.5-2c7.3-7.3,16.6-9.3,26.4-9.4
		c5.1-0.1,6.4,1,7.8,5.9c0.6,2.1,0.8,4.2,0.7,6.3c-0.1,6.7,0.4,13.4-0.3,20.1c-0.5,4.4,0.7,8.5,3.6,11.9c4.3,5.1,8.4,10.5,13,15.4
		c2.5,2.7,5.3,5.1,8.5,6.8c6.7,3.7,10.1,9.6,11.4,16.8c1.5,8.2,2.5,16.5,2.3,25c-0.2,5-0.5,10.1,2,14.9c-1.1,0.4-1.4,0.6-1.7,0.6
		C764.8,580,751.1,584.8,737.1,588.4z M825.2,596.2c5.5,0.5,10.9,1.2,16.3,2c3,0.4,6.1,0.6,9.1,0.6c8.5,0,17.1-0.1,25.6,0
		c11.8,0.1,23.4-0.9,35-3.1c3.7-0.7,3.7-0.5,3.3,3.5c-1.1,10.4,2.1,19.5,9.2,27.2c0.7,0.8,1.6,1.4,2.3,2.2c1.6,1.9,1.4,4.5-0.5,6.1
		c-0.9,0.8-2,1.4-3.1,1.9c-9.3,3.5-18.6,6.8-27.1,6.3c-16.4-0.4-30.7-3.1-44.7-7.9c-12.3-4.3-21.4-12.1-26.5-24.2
		c-1.2-2.9-2.7-5.8-3.6-8.9C819.4,598,821.3,595.8,825.2,596.2z M923.6,606.2c-0.8-4.5-0.3-8.5,3.8-11.3c0.9-0.6,1.6-1.4,2.5-2
		c6.2-4.5,11.9-9.6,16.2-15.9c6.7-9.7,16.6-14.4,27.3-18.1c10.1-3.4,20.3-6.5,30.3-10.2c3-1.1,6.1-2,9.2-2.6
		c4.1-0.8,7.9-2.3,11.6-4.2c6.2-3.2,12.2-6.8,18.4-10.1c10.5-5.6,18.8-14,26.9-22.4c0.8-0.9,1.6-1.9,2.6-2.6c3.6-2.9,7.3-4,11.8-1.7
		c5.2,2.6,10.1,5.7,14.8,9c3.9,2.7,5.5,6.8,4.6,11.6c-0.9,4.6-2.1,9.2-3.1,13.8c-1,4.7-3.4,8.4-7.7,10.8c-4.4,2.5-8.1,6-11.9,9.3
		c-1.4,1.2-2.8,2.4-4,3.8c-8.9,10.3-16.9,21.2-19.4,35.1c-1.3,7-4.9,12.3-12.1,14.8c-2.9,1-5.5,2.5-8.2,4c-3.9,2.1-8,3.7-12.3,4.9
		c-7.5,2-15,4-22.4,6.4c-10.4,3.4-21.1,4.8-32.3,4.3c-5.6,0.5-11.5-0.3-17.4-0.9c-4.2-0.4-8-1.9-11.6-4c-2-1.2-3.8-2.6-5.7-3.7
		C928.6,620.1,925,613.9,923.6,606.2z M1037.8,377.5c-1.8,3.6-4.1,6.4-7.6,8.1c-6.5,3.3-12.5,7.7-18.6,11.5
		c-7.1,4.4-12.8,10.3-17.7,16.9c-4.4,5.9-9,11.5-14.9,16c-6.1,4.6-10,11.1-14.2,17.2c-2.1,3.1-4.2,6.3-5.7,9.9
		c-1.7,4.1-2,8.5-2.1,13.5c-3.4-2.3-6.4-4-9.7-5.1c-8.4-2.9-17.2-4.1-26-4.7c-5.2-0.4-10.3-1.1-15.3-2.3c-6-1.5-10.7-5.4-15.3-9.5
		c-8.1-7.3-8.6-16.5-7-26.1c1.2-6.9,2.3-13.8,2.7-20.8c0.5-9.4,0.1-18.6-5-26.9c-1.5-2.4-3.5-4.2-5.4-6.2
		c-5.3-5.9-10.1-12.2-15.6-17.9c-2.3-2.3-3.7-5.2-4.6-8.3c-4.2-14.2-4.1-28.2,1.9-42c1.6-3.8,2.9-7.7,3.8-11.7
		c0.6-2.7,1.5-5.3,3.1-7.5c1-1.4,2.2-1.7,3.5-0.8c2.5,1.8,5.4,2.8,7.7,4.8c5.2,4.4,11.6,7.3,17.2,11.3c10.1,7.3,20.5,14.3,30.8,21.4
		c6.2,4.2,13.1,6.3,20.6,6.6c10.1,0.5,20.1-0.9,30.1-1.3c19-0.9,37,2.4,53.2,12.9c5.4,3.5,9.4,8.6,13.5,13.5c1,1.2,1.2,2.8,1.2,4.3
		C1041.9,362.3,1041.5,370.1,1037.8,377.5z M788.5,224.4c6,1.5,12.1,1.3,18.1,2.1c20.3,2.9,35,13.3,43.5,32
		c2.2,4.8,4.4,9.8,3.9,15.4c0.1,8-1.8,15.7-4.9,23c-4.1,9.7-6.2,19.7-5.6,30.3c0.4,7,1.6,13.9,4,20.6c1.3,3.6,3.3,6.9,6,9.7
		c5.5,5.6,9.9,12,15.4,17.5c7.6,7.6,8.8,16.8,8.3,27c-0.5,9.8-3.4,19.2-4,28.9c-0.3,3.9-1.4,4.6-5.4,4.4c-1.2-0.1-2.4-0.3-3.6-0.6
		c-4.4-1.2-8.8-2.4-13.1-3.8c-7.4-2.4-14.9-4.4-22.7-5.2c-6.5-0.7-12.4-3.1-17.8-6.7c-3.3-2.2-6.8-4-10.3-5.8
		c-4.9-2.5-9.2-5.8-11.8-11c-6.3-12.5-14.1-24.2-21.3-36.2c-1.1-1.8-2.1-3.7-2.7-5.8c-1.3-4.6-3.8-8.6-7.1-12.1
		c-2.5-2.6-4.2-5.5-5.5-8.9c-1.6-4.3-3.1-8.6-5.9-12.3c-2.4-3.2-5-6.1-8.3-8.4c-5.3-3.6-10.5-7.4-13.8-13.1c-0.4-0.8-1.3-1.3-2-1.9
		c-5.3-4.2-7.5-9.8-7.3-16.5c0.3-8.5,0.6-17,0.9-25.5c0-1.2,0.3-2.4,0.5-3.6c0.8-5.1,3-9.4,6.8-13.1c3.3-3.2,6.4-6.5,9-10.3
		c1.4-2,3.1-3.8,5.2-5.1c5.7-3.6,9.8-8.6,13.6-14c0.4-0.6,0.8-1.3,1.4-1.8c2.3-2.4,4.8-2.7,7.8-1.1
		C769,217.5,778.4,221.8,788.5,224.4z M749.8,189.8c-0.8,13.4-6.9,24-17.6,32c-3,2.2-5.6,4.7-7.7,7.7c-2.3,3.3-5.2,6-7.8,8.9
		c-1.2,1.4-2.7,2.4-4.5,3.1c-2.5,1-4.6,0.8-6.6-1.3c-6.9-7.3-15.7-11.6-24.7-15.1c-7.4-2.9-14.3-6.4-20.7-11.2
		c-8.4-6.3-15.8-13.3-22.1-21.6c-5.1-6.7-5.9-13.7-2.7-21.4c1.8-4.4,5.5-6.3,9.5-8c8.1-3.4,16.6-6,23.8-11.3c3-2.2,6.5-3.3,10-4.3
		c5.4-1.5,10.7-3.5,15.8-5.9c4.5-2.1,8.9-2,13.8-0.9c10.2,2.5,17.9,8.3,25,15.8c6.2,6.6,10.5,14.2,14.6,22
		C749.6,181.8,750,185.7,749.8,189.8z M663.1,141c-1,2.6-2.6,4.8-5.3,6c-5,2.3-9.8,4.9-15,6.7c-10.1,3.5-16.4,10.1-18.2,20.8
		c-0.8,5-2.2,9.8-4.3,14.4c-1.3,2.9-3.2,5-6,6.6c-6.7,4-13.9,5.9-21.6,6.6c-0.9,0.1-1.8,0.2-2.7,0.4c-9.9,2.5-20.1,3.4-30.1,5.3
		c-10.6,2-20.7,6-30.8,9.9c-4.1,1.6-8.3,2.9-12.9,2.7c-1.8-0.1-3.6-0.3-5.5-0.4c-6.9-0.5-10.7-5.9-15.2-10.1c-1-0.9-1.7-2.1-2.6-3.2
		c-6.3-7.5-5.3-18.7,2.4-24.6c7.4-5.7,12.4-12.8,14.6-22c1.6-6.6,6.2-10.2,12.6-11.7c6.2-1.5,12.6-1.8,18.9-2.9
		c14-2.4,27.7-5.7,41.6-8.6c14.3-3,28.6-4.2,43.1-2.8c6.2,0.6,12.5,0.8,18.7,0.9c4.4,0.1,8.8,0.6,13.2,0.9c1,0.1,2.1,0.4,3.1,0.8
		C663.7,137.8,664,138.6,663.1,141z M490,174.7c-5.3,3.7-8,9-10.3,14.8c-1.5,3.9-3.7,7.4-7.6,9.4c-0.9,0.5-1.9,0.9-3,1.2
		c-2,0.5-3.5,0.1-5.4-1.3c-14.1-10.6-27-14.1-44.2-5.5c-5.4,2.7-10,6.4-12.1,12.5c-0.4,1.1-0.9,2.3-1.5,3.3
		c-2.6,4.8-6.2,8.2-11.9,8.8c-3,0.3-6.1,0.7-9.4,0.6c-4,0.3-8.2-0.6-12.4-1.5c-7.9-1.7-15.7-3.6-23.2-6.8
		c-6.5-2.8-13.3-4.3-20.2-5.6c-7.7-1.4-8.7-4.6-3.9-10.8c10.6-13.9,23.5-25.5,35.9-37.5c2.8-2.7,5-5.8,6.3-9.4
		c2-5.8,5.6-10.2,10.5-14c7.2-5.6,14-11.7,21-17.6c1.4-1.2,2.8-2.4,4.4-3.2c6.9-3.5,14-6.7,21.4-9c5.3-1.7,10.9-0.4,16.3,0.6
		c6.1,1.2,12.3,2.4,18.3,3.8c9.4,2.2,19.1,4.4,27.6,9c7.8,4.2,13.5,11.3,14.4,20.9c0.3,2.7,0.7,5.4,0.8,8.2
		C502.7,157,500.2,167.5,490,174.7z M324,213.3c10.1,1.5,19.5,5,28.9,8.4c10.8,3.9,21.7,6.8,33.2,8.1c8.5,1,16.7,3.2,24.2,7.7
		c3,1.8,6.3,3.1,9.4,4.8c3.3,1.8,4.2,3.9,3.4,7.6c-0.5,2.4-1.3,4.9-3.1,6.5c-5.2,4.6-7.1,10.9-9.1,17.1c-3.4,10.6-4.3,21.1,0.3,31.7
		c1.7,3.8,4,6.8,7.5,8.9c1.6,1,3.3,1.5,5.2,1.4c3.8-0.3,5.7-3.2,4.1-6.8c-0.4-1-1-1.9-1.7-2.7c-7-8.9-8.1-18.7-4.8-29.3
		c1.6-5.3,4.6-9.9,7.2-14.7c4.7-8.6,13.8-9.4,20.6-7.2c8,2.5,16.2,4.3,24.3,6.3c9.9,2.5,19.6,5.9,28.5,10.8
		c5.3,2.9,9.3,7.5,12.3,12.6c4.5,7.6,8.5,15.5,13,23.1c6,10.3,12.3,20.3,20.6,29c3,3.1,5.6,6.4,8.6,9.5c5.2,5.3,11.2,9.3,18.1,12.1
		c4.6,1.9,4.9,4.6,1,7.6c-3.4,2.6-7.5,4.1-11.3,5.9c-7.6,3.5-15.3,6.8-23.3,9.2c-16.1,4.8-32.1,9.7-48.4,13.5
		c-6.1,1.4-12.2,2.8-18.3,4.1c-17,3.4-30.6,12.3-42,25c-1.3,1.4-2.5,2.6-4.7,2.2c-2.4-0.5-2.9-2.4-3.2-4.4c-0.3-2-0.4-3.9-0.2-5.9
		c0.6-5.1,1.4-10.3,2.5-15.3c0.8-3.7,2.4-6.7,4.9-9.6c9.2-10.4,14-22.6,14.3-36.6c0.2-10-6-16.8-14.2-19.5c-9-2.9-17.9-5.8-26.9-8.7
		c-11.9-3.8-23.5-8.6-34.8-13.8c-1.5-0.7-3-1.5-4.4-2.4c-12.7-7.9-26-14.7-40.3-19.1c-7.9-2.5-15.2-6.2-21.9-11.1
		c-5-3.7-10.7-6.5-14.8-11.3c-0.6-0.7-1.5-1.2-2.3-1.4c-2.9-0.8-5.1-2.7-7.3-4.6c-5.6-4.7-11.1-9.5-16.6-14.3
		c-6.1-5.3-12.6-10.1-19.8-13.9c-1.1-0.6-2.1-1.3-3.1-1.9c-0.2-0.1-0.2-0.5-0.3-1.1c9.5-1.2,18.7-3.9,27.8-6.5
		c7.2-2,14-5.2,21.1-7.6C299.8,212.7,311.6,211.5,324,213.3z M331.9,475.3c4.2,3,7.6,6.5,9.8,11.3c2.8,6.3,5.8,12.4,8.3,18.8
		c2.5,6.5,2.6,13.4,3.3,20.2c0.2,2,0,4,0,5.9c0.2,11.1-1.8,21.8-5.7,32.2c-2.3,6.1-4.5,12.2-8.8,17.4c-3.5,4.3-7.6,7.8-12,11.2
		c-8.1,6.1-16.7,11-26.6,13.8c-11,3.1-21.8,6.9-32.4,11c-3.4,1.3-7.1,1.8-10.6,2.6c-6.7,1.5-13.2,3.5-20,4.7
		c-9.2,1.6-18.1-2.5-21.9-11.1c-3-6.8-6.7-12.9-11.6-18.5c-2.4-2.8-3.5-6.4-4.6-9.9c-1.3-4.1-2.7-8.1-4.2-12.1
		c-4.8-12.4,0-29,10.7-37c4.9-3.7,10.1-6.8,15.6-9.5c9.4-4.7,18.6-9.8,27.6-15.1c7.4-4.3,15-8.2,22.7-11.8c4-1.9,7.8-4.2,11.7-6.3
		c0.4-0.2,0.9-0.4,1.1-0.8c5-6.4,12.6-8.2,19.6-10.9c6-2.3,12.1-4.1,17.8-7.1C325.4,472.4,328.5,472.9,331.9,475.3z M201,612.4
		c1.4,2.7,2.9,5.4,4.1,8.2c3.1,7.1,7.8,12.7,15.1,15.8c0.4,0.2,0.6,0.5,1,0.8c-0.5,1.4-1.7,1.7-2.8,2.2
		c-9.5,4.3-16.2,11.1-19.9,20.9c-2.2,5.7-4.8,11.1-8.5,16.1c-4.8,6.6-6.8,14.3-7.3,22.3c-0.4,5.6-3,8.4-7.9,10.4
		c-4.9,2-9.9,2.3-14.8,1.4c-14.7-2.5-27.8-8.7-39.4-18c-6.9-5.5-13.6-11.2-20.5-16.8c-5.3-4.4-9.9-9.4-13.6-15.3
		c-4.7-7.5-10.3-14.3-16-21.1c-1.4-1.6-2.8-3.3-3.9-5.1c-3.9-6.6-7.6-13.2-11.3-19.8c-1.5-2.6-1.7-5.6-1.4-8.4c0.3-3.5,3.2-5.5,6-7
		c5.3-2.8,10.9-4.4,17-4.7c31.1-1.7,62.1-0.3,93.2-0.8C183,595.3,194.4,599.9,201,612.4z M175.8,732.8c4.3-5.5,9.5-8.9,16.8-8.4
		c4.9,0.3,9.7-0.1,14.6,0.5c4.6,0.6,9,1.8,13.1,3.8c10.4,5.1,21.3,9.1,31.3,15c8.8,5.3,18.6,8.3,28.6,10.5c7,1.6,14,3.2,21,4.5
		c14.1,2.6,28.4,3.1,42.8,2.9c1.2,0,2.4-0.4,3.6-0.6c1.9-0.3,3.7,0,5.3,0.8c2.6,1.4,3,3.9,0.9,6c-0.3,0.3-0.7,0.6-1.1,0.8
		c-8.9,4.5-16.3,11.2-24.3,17.1c-12.8,9.4-27.2,15.5-42.1,20.7c-12.8,4.5-25.7,8.5-39,11.6c-11,2.6-21.4,6.9-31.2,12.7
		c-11,6.6-23.1,10.2-35.8,11.7c-8.5,1-16.9,2.3-25.4,3.2c-3.5,0.4-7,0.1-10.5,0.1c-5.6,0.3-11.3,0.4-16.8-1.4
		c-3.2-1-6.2-2.2-8.8-4.6c-1.9-1.7-4.3-2.9-6.4-4.4c-2.9-2.1-5.3-4.5-6.9-7.8c-2.5-5.1-1.2-10,3.5-13.2c3.5-2.4,7.4-4.5,10.4-7.4
		c9-8.8,20.3-15.2,27.1-26.2c2.4-3.8,4.1-7.8,5.5-12c3.4-9.8,8.6-18.5,15.5-26.2C170.5,739.5,173.2,736.2,175.8,732.8z M329.8,750.6
		c-9.6,0.7-20.2,0.2-30.5-1.7c-16.5-3-32.7-6.5-47.5-15.3c-11-6.5-22.9-11.4-34.9-15.9c-5.3-2-11-2.3-16.3-4.4
		c-0.4-0.2-0.9-0.3-1.3-0.4c-6.9-2.3-6.8-3.3-7.5-10.3c-0.3-2.6,0.1-5.2,1-7.7c2.2-6.1,3.9-12.4,7.6-17.9c3-4.4,4.9-9.5,6.9-14.4
		c2.7-6.7,7.4-11.4,13.8-14.5c5.1-2.5,9.8-5.6,14.4-8.8c2.2-1.5,4.4-2.5,7-3c10.2-2.1,20-5.3,29.6-9.2c12.8-5.2,25.6-10.4,38.8-14.7
		c14.1-4.6,27.1-11.7,37.7-22.4c2.5-2.5,4.3-2.6,7.3-0.8c3,1.8,4.8,4.6,6.5,7.5c4.5,7.4,9.3,14.7,15.4,20.9c9.7,10,20,19.2,32.9,25
		c4.2,1.9,6.5,5,7.4,9.7c2.2,12.7-0.1,24.4-6.3,35.7c-5,8.9-9.4,18.1-11.3,28.3c-0.5,2.7-0.4,5.5-1.1,8.1c-1.2,4.5-3.3,8.4-7.1,11.3
		c-4.8,3.7-9.9,7.2-15.1,10.3c-3.4,2.1-7.2,3-11.3,3.2C354.1,749.9,342.4,750.9,329.8,750.6z M413.8,705c2.7-5.6,5.4-11.3,8.4-16.8
		c5-9.1,6.3-19,6.5-29.1c0-2.3,0.2-4.6,0-6.9c-0.2-2.7,1-4.3,3.3-5.4c1-0.4,1.9-1,2.9-1.3c17.9-6.3,34.7-14.9,50.8-24.8
		c5.7-3.5,10.8-7.8,16.6-11.4c12.5-7.7,26-12.5,40.1-16.1c3.2-0.8,6.5-1.6,9.8-2.3c0.1,0,0.3-0.1,0.4-0.1c2.4-0.2,5.2-1.5,6.9,0.8
		c1.5,2-0.2,4.4-1.1,6.4c-1.3,2.6-2.7,5.1-4,7.7c-7.3,13.2-10.9,27.4-10.6,42.5c0.1,4,0.9,7.9,1.5,11.8c1.3,7.2,0.9,14.4-0.8,21.3
		c-1.6,6.6-5.9,11.9-10.6,16.8c-4.2,4.4-9.3,7.4-14.6,10c-12.6,6.1-25,12.6-37.8,18.3c-7.5,3.4-15,6.6-22.6,9.8
		c-4,1.7-8.2,2.4-12.7,2.5c-2.1,0.3-4.3-0.3-6.5-0.8c-4.6-1.1-9.1-2.6-13.8-3.2c-6.3-0.8-9.4-4.6-10.9-10.1c-1.1-4.3-1.8-8.6-2.6-13
		C411.7,709.2,412.8,707.1,413.8,705z M440.3,750.3c0.2-0.8,0.9-1.1,1.7-1.3c1.2-0.2,2.4-0.6,3.6-0.7c8.7-0.3,16.7-3.3,24.4-7.1
		c7.7-3.8,15.8-6.4,23.4-10.3c10.8-5.6,21.8-10.8,32.8-16.2c8.9-4.3,15.7-10.9,21.2-19c1.8-2.7,3.9-5.1,5.6-7.8
		c4.7-7.7,15.4-8.1,21.1-4.3c6.2,4.2,12.9,7.4,18.9,12c1,0.8,2.1,1.1,3.3,1.4c11.6,2.9,21.9,8.4,30.7,16.5c7.4,6.8,16.1,9.6,26,9.3
		c1.8,0,3.6,0,5.3,0c0.1,0.3,0.3,0.6,0.4,0.9c-4.7,4.4-8.8,9.3-12.8,14.2c-4.8,5.9-10.4,11.1-15.4,16.8c-4.6,5.1-7.8,11.2-11.1,17.2
		c-4.7,8.5-9.6,16.9-15.3,24.8c-3.6,5-8.4,7.9-14,9.7c-5.8,1.8-11.9,2.6-17.9,3.2c-24.5,2.6-47.9-2.1-70.5-11.1
		c-8.7-3.4-16.2-8.7-21.7-16.3c-9.1-12.4-21.2-20.8-34.5-27.9c-1.2-0.6-2.4-1.3-3.6-2C440.8,752,440,751.4,440.3,750.3z
		 M618.1,795.1c0.5-1.6,0.9-3.3,1.7-4.7c5.1-9.3,9.3-19.2,15.7-27.8c1.6-2.2,3.6-4.1,5.6-6c7.6-7.3,13.6-16,20.9-23.5
		c4.3-4.4,9.4-7.7,14.1-11.6c1.9-1.6,4.4-2.1,6.8-2.5c12.2-1.8,24.1-1.3,36,2.7c15.4,5.2,30.8,10.7,46.4,15.2
		c10.2,2.9,20.4,4.6,31.3,4c-0.6,2.2-1.9,3.1-2.9,4.2c-2.5,2.7-5.2,5.2-7.4,8c-7.1,9.3-16.1,16.6-25,23.9c-2.2,1.8-4.5,3.6-6.6,5.7
		c-4.5,4.4-9.8,7.2-15.8,8.6c-8.1,2-16.2,4.4-24.5,5.6c-2,0.3-3.9,0.7-5.9,0.7c-11.1,0.3-22.2,1.1-33.3,0.8
		c-10.4-0.3-20.7,0.5-31,1.5c-6.5,0.6-13.1,0.6-19.6,0.4c-1.2,0-2.4-0.1-3.6-0.4C618,799.3,617.2,798.1,618.1,795.1z M1071,597.4
		c-1.3-0.7-1.7-1.7-1.5-3c0.1-0.8,0.2-1.5,0.5-2.2c3.3-8.4,7.4-16.4,13.9-22.9c4.3-4.3,8.8-8.4,14.1-11.6c6.1-3.7,9.7-9,11.3-15.9
		c1-4.6,2.5-9.1,3.4-13.7c1.9-9.6,6.3-18.1,11.8-26c6.6-9.4,14.3-17.8,24.2-24c3.2-2,6.2-4.5,8.8-7.2c6.7-6.8,10.4-14.9,11.1-24.4
		c0.2-3.6,1.1-7.2,0.9-10.9c0-0.3,0-0.6,0.1-0.9c0.5-2,0.4-4.5,2.7-5.4c2.6-1,4.3,0.8,5.9,2.5c1.3,1.3,2.6,2.6,4,3.8
		c1.9,1.5,3.2,3.2,3.9,5.5c1.3,3.7,3.4,6.8,6.6,9.1c1.6,1.1,2.4,2.7,3.5,4.2c3.4,4.6,7.7,7.2,13.6,6.9c5.6-0.3,11.2-0.7,16.5-3
		c2.1-0.9,4.3-1.5,6.5-2c4-0.9,5.6,0.2,6.1,4.4c0.3,3.2,0.3,6.4,0,9.6c-1.2,10.2,2,19.2,6.8,27.9c8.1,14.6,12.4,30.3,12.4,47.1
		c0,4.3-0.9,8.5-1.8,12.6c-0.5,2.5-1,5.1-1.4,7.6c-0.9,4.9-2.8,9.3-5.9,13.2c-4.2,5.2-8.3,10.4-14.3,13.9c-4.9,2.8-9.9,4.4-15.4,5.3
		c-15.2,2.5-30.3,5.2-45.4,8.1c-12.4,2.4-24.8,2.2-37.3,0.9c-4.5-0.5-9.1-0.8-13.7-0.7c-8.2,0.1-16.4-0.9-24.7-0.7
		C1088.5,605.5,1079.6,601.9,1071,597.4z M1228,447.2c-4.7,2-9.7,3.6-14.8,4.5c-5.1,0.9-8.8-0.5-11.3-5.3c-1.7-3.2-3.7-6.3-6-9.1
		c-3.2-4.1-2.7-7.9,1.4-10.9c1.8-1.4,3.8-2.6,5.5-4c4.1-3.3,7.4-7.1,10.1-11.6c3.8-6.4,8.1-12.5,13.4-17.9c0.8-0.8,1.5-1.6,2.3-2.2
		c5-3.7,8.7-2.8,10.8,3c2,5.4,4.7,10.6,6.2,16.2c0.9,3.3,1.6,6.5,1.5,9.9C1246.6,435.9,1240.2,441.9,1228,447.2z M1150.3,218.4
		c-2.2,6.3-6.4,10.6-12.7,12.9c-2,0.7-4.4,1-5.9,2.3c-5.5,4.8-12.4,7.7-17.2,13.4c-3.3,3.8-6.9,7.2-9.6,11.6
		c-4,6.4-4.4,13.1-2.5,20.2c1,4,2.1,8,2.8,12c0.9,5.1,1.1,10.1-3.7,13.7c-6.7,11.5-16.6,20.6-23.3,32.1c-5.4,9.4-8.6,19.4-8.6,30.4
		c0,7.8,0.3,15.5-0.6,23.3c-0.7,6.6-3.7,12.2-6.9,17.7c-1.6,2.8-4.2,2.5-6.1-0.5c-2.1-3.4-3.2-7.2-4.7-10.9c-1.2-3.2-2-6.4-1.6-9.5
		c-0.1-2.4,0.1-4.5,0.6-6.6c2.6-10.8,2.5-21.8,0.8-32.6c-1.6-9.7-7-16.7-16.5-20.2c-1.9-0.7-3.6-1.6-5.2-2.8c-1.3-1-2.7-2.1-4.3-2.6
		c-7.8-2.6-14.1-7.7-21.2-11.5c-10.8-5.8-18.2-14.8-22.8-25.9c-3.7-8.8-8.5-16.8-13.8-24.6c-1.8-2.6-2.6-5-2-8.1
		c1.4-7.8,2.9-15.6,7.3-22.4c2.1-3.3,4.9-5.9,8.5-7.4c10.2-4.2,18.7-10.7,26.3-18.6c2.2-2.3,4.8-4.2,7.4-6.1
		c2.5-1.8,5.4-2.8,8.6-2.6c6.8,0.4,13.7,0.9,20.2,3.2c8.2,2.8,16.7,3,25.3,2.5c5.6-0.4,11.3-0.5,16.9-0.4c8.3,0.3,16.4-1,24.5-2.2
		c3.6-0.5,7.2-1,10.9-1.3c2.4-0.2,4.9-0.2,7,1.3c5.4,3.7,11.5,6.3,17.5,8.9C1150.9,209.1,1152.2,212.9,1150.3,218.4z M1129,180.1
		c-7.5-6.3-15.7-11.2-24.9-14.9c-10.1-4.1-16.9-11.7-20.5-22c-0.7-2.1-0.9-4.1-0.4-6.3c2.2-10,7.3-18.7,12.9-27.1
		c1.6-2.4,4-4.2,6.1-6.1c1.7-1.6,3.9-1.6,6.4-1.6c5.5,0.5,11,2.3,16.1,5.1c4.6,2.5,9.2,4.7,14.2,6.3c4.8,1.6,9.3,3.7,13.5,6.6
		c8.9,6,19,8.8,29.4,10.6c2.1,0.4,4.2,0.6,6.2,1.6c2.5,1.1,3.2,2.6,2.4,5.2c-0.7,2.3-1.7,4.6-2.9,6.7c-2.7,4.8-5.9,9.2-9.2,13.6
		c-1.2,1.5-2.7,2.5-4.4,3.1c-6.9,2.2-12.8,6.4-18.8,10.3c-6.7,4.4-14.2,6.9-21.4,10C1131.7,181.8,1130.4,181.3,1129,180.1z
		 M959.2,14.5c14.9-5.7,29.5-12.4,44.9-16.9c15.5-4.6,30.7-9.9,46.7-12.7c14.5-2.6,29.1-5.1,43.8-6.8c10.3-1.2,20.7-1.2,31-0.9
		c7.9,0.2,14.9,3,20.7,8.5c2.6,2.5,2.9,4.7,1,7.7c-4.3,6.5-9.7,11.6-16.6,15.4c-10.4,5.7-21.5,10.1-32.2,15.4
		c-8.3,4.1-17.5,5-26.5,6.8c-10.2,2-20.3,4.2-30.4,6.2c-8.4,1.7-15.7,5.8-22.6,10.5c-5.1,3.5-8.3,8.3-7.6,14.7
		c0.6,5.9-2.2,9.1-7,11.4c-4.9,2.4-9.8,4.9-14.6,7.5c-7.9,4.3-14.5,9.9-19.4,17.7c-3.2,5.2-7.8,7.8-14.3,8.1
		c-17.7,0.8-34.5-2.5-51-8.4c-4.9-1.7-9.9-3.1-14.8-4.8c-10-3.5-20.2-3.1-30.3-1.3c-11,1.9-19.4,8.3-24.9,18.3c-1,1.9-1.5,4-1.5,6.2
		c0.1,3.5,0,7,0.3,10.5c0.5,4.9-0.9,9-4.3,12.5c-1.4,1.4-2.7,3-4.2,4.2c-7.2,5.8-13.3,12.6-18.9,19.8c-5.4,6.8-12.6,10.7-20.4,13.2
		c-7,2.3-13.6,5.4-19.9,9.1c-2.1,1.2-3.2,1.1-4.5-0.8c-1.7-2.4-2.9-5-3.6-7.9c-1.4-6-3.8-11.5-7.5-16.5c-3.3-4.5-5.9-9.6-9-14.3
		c-4.5-6.9-10.6-12.1-17.9-15.9c-2.4-1.2-5-2.2-7.4-4.4c2.2-2.3,4.6-3.2,6.9-4.4c9.6-5,17.6-11.9,25.5-19.1
		c14.4-13.2,29.8-25.2,48.3-32.4c5.1-2,10.5-2.9,16-3.8c9.2-1.5,18.5-2.1,27.6-3.4c11.3-1.6,22.4-4.4,33.6-6.4
		c7.4-1.3,14.4-4,21.1-7.4c3.4-1.7,6.7-3.6,10-5.6c5.4-3.2,11.1-5.7,16.9-7.9c6.9-2.6,13.2-6.4,18.9-11
		C946.6,20.5,952.5,17.1,959.2,14.5z M854.1,18.4c3.1-4.4,5.4-9.2,6.9-14.3c2-6.6,3.3-13.3,3.5-20.2c0.2-5.3,2.8-9.9,4.2-14.9
		c0.4-1.5,1-2.9,1.4-4.3c1.9-7.1,11.1-10.1,16.2-4.9c8.1,8.3,17.9,14,27.9,19.6c5.8,3.2,11.6,5.8,17.7,8.2c9.1,3.6,10.6,7.5,11,18.4
		c0.1,3.7-1.3,6.6-4.2,9.1c-6.3,5.4-13.1,10-20.9,12.8c-7.2,2.6-14,5.9-20.5,9.9c-9.1,5.6-18.8,9.5-29.3,11
		c-9.3,1.4-18.5,3.8-27.8,5.4c-7,1.2-14.3,1-21.3,2.3c-7.9,1.5-16,2.1-23.7,4.7c-2.8,1.3-5.6,2.6-8.4,4c0,0,0,0,0,0
		c-0.4,0.5-1,0.6-1.6,0.7l-0.3,0.1c0,0,0.1-0.3,0.1-0.3l0,0c0.4-0.8,1.1-1.4,2-1.7c2.2-1.1,3.9-3,6.3-3.8
		c10.2-7.6,21.1-13.9,32.6-19.2C837.2,35.8,846.9,28.6,854.1,18.4z M647.8-26.1c10.3,4.5,20.9,4.6,31.8,3.7
		c9.9-0.9,19.8-0.6,29.6,0.7c10.7,1.5,21.5,1.7,32.3,0.9c6.8-0.5,13.7-0.8,20.5-1.2c10.6-0.7,21.3-0.8,32-1.1
		c11.5-0.4,22.9,0.3,34,2.9c5.3,1.2,10.5,3.1,15.1,6.2c4,2.6,5.6,6.3,5,10.9c-1.1,8-3.5,15.2-9.9,21c-6.2,5.7-12.5,11.1-19.9,15.2
		c-6.4,3.5-12.8,7-18.6,11.4c-4.1,3.1-8.4,6.1-12.8,8.8c-11,6.6-19.6,15.9-28.6,24.8c-1.8,1.8-3,4.2-4.2,6.5
		c-3.1,5.6-7.9,9.3-13.5,11.8c-5.2,2.3-9.8,5.5-14.2,9c-12.9,10.3-27.2,17.1-44,18.2c-11.5,0.8-23,2.7-33.5,2.5
		c-9.5,0-17.9-1-26.2-1.4c-14.2-0.8-28.3,0.3-42.2,3.5c-9.9,2.3-19.9,4.3-29.9,6.4c-9.2,2-18.5,0.8-27.8,0.5
		c-2.2-0.1-4.5-0.7-6.4-2.3c-4.7-3.8-5.5-6.6-3.7-12.4c1.3-4.4,3.9-7.9,7.3-10.8c8.2-6.9,16.1-13.9,23.3-21.9
		c3.6-4,6.6-8.4,8.5-13.4c5.4-13.8,10.8-27.5,16.2-41.2c2.5-6.3,2.5-13.1,3.7-19.7c1.2-6.4,3.3-11.9,8.6-16
		c4.3-3.4,8.8-6.6,13.8-8.8c8.5-3.8,16.9-7.7,25.3-11.6c3.9-1.8,7.9-3.2,12.1-4C637.1-28.3,642.7-28.3,647.8-26.1z M536.6-53.5
		c-2.8-2.1-3.3-5-1.9-8.2c3.4-7.7,7.5-14.9,14.3-20.2c6.1-4.7,13.3-7.3,20.5-9.7c4.3-1.4,8.9-2.2,13.2-3.6
		c9.1-2.9,17.1-7.9,25.4-12.4c2.6-1.4,5.2-3,8.7-5c0,3.4,0,5.7,0,7.9c-0.1,4.5,1.4,8.5,4.2,11.8c4.7,5.6,10.3,10,17.7,11.2
		c2.7,0.4,3.8,1.8,3.8,4.2c0,4,0.1,7.9-0.2,11.9c-0.4,4.4-1.2,8.7-1.8,13.1c-0.5,4.4-2.7,7.6-6.4,10c-3.5,2.2-7.1,4.1-10.8,6
		c-9.6,5-19.1,10.1-28.8,14.8c-5.6,2.7-11.6,4.6-17.4,6.8c-3.6,1.4-6.5,1-9.3-2.3c-4.7-5.6-9.8-10.8-15.7-15.3
		c-2.3-1.8-4.1-4.1-5.2-6.8C544.6-44.8,541.5-49.8,536.6-53.5z M528.5,9.1c3.4-9.1,13.1-17.4,23-16.4c5.8,0.6,7.7,2,9.4,7.6
		c0.5,1.7,0.9,3.6,1.1,5.4c0.2,1.5,0.3,3,0.4,3.9c-0.2,6.4-2,11.7-4.7,16.7c-5.5,10.4-8.8,21.7-12.3,32.8c-0.5,1.4-0.5,3-0.7,4.5
		c-1.2,6.8-3.4,13-8.3,18.3c-7.1,7.7-15,14.7-23,21.5c-2.2,1.9-4.4,3.8-6.4,5.8c-2.3,2.3-4.9,2.8-8,1.8c-0.6-0.2-1.2-0.3-1.7-0.6
		c-8.6-4.9-18.3-6.5-27.4-9.8c-3.3-1.2-3.9-3.1-1.7-5.7c0.9-1,2-1.9,3.1-2.7c9.2-6.9,17-15.2,24.5-23.8c4.3-4.9,6.7-10.9,10-16.3
		c2-3.4,4-6.8,6.4-10C519.3,31.9,524.1,20.7,528.5,9.1z M392.1-28.2c6.5,0,13.1,0.6,19.6,0.4c15.3-0.4,30.4,1.4,45.6,2.4
		c15.2,1,29.6,5.2,44.2,8.9c7.6,1.9,12.2,7.1,15.1,13.5c1.8,3.8,1.9,8.6,0,12.9c-3.2,7.2-7.4,14-11.6,20.7
		c-6.5,10.5-15,19.5-22.3,29.5c-3.5,4.8-7.6,9.2-11.9,13.3c-7.9,7.5-17.6,11.3-28.5,11.5c-0.6,0-1.2-0.1-1.8,0.1
		c-6.4,1.7-12.3,0-18.3-2c-5.2-1.7-10.5-3.1-15.8-4.6c-11.8-3.3-23.2-7.4-34.1-12.8c-7-3.4-14.5-5.4-21.5-8.9c-4.2-2.1-8.5-4-12.8-6
		c-7-3.2-14.3-5.2-21.9-6.1c-4.3-0.5-8-2.4-11.9-4.2c-5.1-2.3-10.5-4-15.6-6.5c-6.3-3.1-11.7-7.7-17.7-11.3c-0.4-0.2-0.7-0.6-1-0.9
		c-3.5-4.8-6.7-10-7.8-15.9c-1.6-8.2,0.7-15.4,7.5-20.8c4.6-3.7,9.2-7.5,14-11c4.6-3.4,10.3-4.6,15.6-6.2
		c10.6-3.2,21.4-4.5,31.2-3.8c5,0,8.6,0,12.3,0c3.4,0,6.7,0.5,9.9,1.4C365.4-30.6,378.5-28.3,392.1-28.2z M168.4,136.5
		c-1.8-0.8-3.4-1.9-5-3.2c-6.2-4.9-12.5-9.8-18.7-14.6c-4.5-3.5-9.7-5.7-14.8-8c-8-3.7-16.1-7.3-23.7-11.8
		c-5.1-3.1-9.7-6.9-14.4-10.5c-4.5-3.4-5.6-7.8-3.9-13.4c2.6-8.7,9-13,16.9-15.8c8.4-3,17.2-3.6,26.1-4.3c2.4-0.2,4.4,0.9,6.4,2.1
		c3.3,2.1,6.8,1.7,9.6-0.8c2.9-2.6,2.6-5.9-0.7-8c-6.1-3.9-6.7-5.4-5.4-12.7c1-5.8,3.6-10.1,9.2-12.7c3.8-1.8,7.3-4.3,11.3-5.9
		c5-2.1,8.9-5.9,11.6-10.7c4.8-8.4,1.4-20.3-7.1-25.1c-6.5-3.6-13.6-5.3-20.9-6.1c-3.9-0.4-7.5-1-11-2.6c-2.9-1.3-6-2.2-8.9-3.5
		c-2.4-1.1-2.6-2.3-0.9-4.2c1.3-1.5,3-2.7,4.8-3.3c4.4-1.6,9-3,13.7-3.6c7.4-0.8,14-3.5,20.1-7.9c6.6-4.7,12.8-9.9,19.9-13.8
		c5.8-3.2,11.8-5.7,18.2-7.1c17.8-3.8,35.9-5.4,54-5.5c14,0,27.1-3.5,40.2-7.3c9.7-2.8,19.4-3.6,29.3-0.8c6.6,1.8,12.3,5.4,17.5,9.6
		c4.6,3.7,4.7,9.3,4.8,14.7c0,1.5-0.4,3-0.8,4.5c-1.5,6-5.2,8.9-11.5,9c-0.6,0-1.2,0-1.8-0.1c-19.6-1.2-37.7,3.3-54.8,12.8
		c-8,4.4-15.1,9.7-20.5,17.1c-2.9,3.9-4.7,8.2-5,13c-0.3,4.3-0.2,8.5,0,12.8c0.2,4.4,2.2,8.2,4.7,11.7c1.5,2.1,3.1,4.2,4.5,6.4
		c1.7,2.7,1,3.7-2.3,3.8c-4,0-7.9,0-12.2,0c-13.9-0.7-27.2,2.7-39.5,9.8c-0.5,0.3-1.1,0.6-1.6,0.9c-9.7,6.1-20.2,7.1-31.2,5.5
		c-2.1-0.3-4.2-0.6-6.4-0.1c-2.9,0.7-4.4,2.6-4.1,5.1c0.3,2.3,2,3.6,4.9,3.8c4.6,0.3,9.1,0.5,13.7,0.8c8.1,0.6,15.7-1.3,23-4.9
		c3-1.5,6.1-2.9,8.9-4.6c12.4-7.3,25.9-8.2,39.8-7.2c2.1,0.1,4.3,0.4,6.4,0.3c9.5-0.8,18.4,1.7,27.1,5.1c9.8,3.9,19.7,7.3,30.2,8.7
		c5.1,0.7,10.2,2,14.9,4.3c11.1,5.3,22.6,9.8,33.5,15.8c2.3,1.3,4.3,2.7,4.9,5.6c0.5,2.4-0.1,3.8-2,5c-2,1.2-4.3,1.5-6.6,1.5
		c-6.6,0-13.1,0.6-19.6,1.2c-6.4,0.6-12.2,2.8-17.5,6.1c-4.1,2.5-8.5,4-13.2,4.9c-5.8,1.1-11.6,2.4-17.5,3.6
		c-11.5,2.3-21.7,8-31.9,13.5c-7.8,4.2-15.8,7.5-24.5,9.7c-15.8,4-31.5,8.6-45.5,17.4c-1.8,1.1-3.9,1.8-5.9,2.4
		c-3,0.9-5.7,0.4-8.1-1.8C175.7,140.3,172.2,138.1,168.4,136.5z M173.3,197.3c4.3-10,6.5-20.6,10.8-30.5
		c5.2-11.9,14.9-18.7,26.3-23.3c11.3-4.5,22.9-8.3,34.9-10.8c6.8-1.4,12.9-4.7,19-7.8c5.3-2.7,10.5-5.6,15.8-8.3
		c7.6-4,16-5.8,24.4-7.6c3.7-0.8,7.5-1.4,11.2-2.2c4.7-0.9,9.1-2.4,13.2-5c5.8-3.7,12.1-5.7,18.9-5.9c4.1-0.1,8.1-0.4,12.2,0
		c4.5,0.4,9.1-0.6,13.6-1.2c6.6-0.9,13.2-2.1,19.9-2.9c7.6-0.9,15.2-1,22.6,1.3c1,0.3,2.1,0.5,2.7,1.6c-1.2,1.5-3.1,1.9-4.8,2.4
		c-14.8,4.7-26,15-37.4,24.8c-1.9,1.6-3.6,3.3-5.6,4.7c-5.6,3.9-9.3,9.2-11.6,15.5c-1.3,3.4-3.3,6-5.8,8.6
		c-11.5,11.4-23.5,22.2-34.2,34.4c-4.9,5.6-11.2,9.4-17.8,12.6c-9.9,4.7-20.4,8.1-30.3,12.7c-9.7,4.6-19.9,7-30.2,8.4
		c-13.3,1.8-26.5,4-39.6,6.8c-6.2,1.3-12.1-0.9-17.7-3.5c-2.3-1.1-4.5-2.5-6.8-3.8c-1.2-0.7-2.2-1.7-2.6-3.1
		C172.6,209.3,170.9,203,173.3,197.3z M155.8,251.7c0.1-3.8,5.2-9.4,9.5-10.1c9.6-1.7,19-4.7,28.8-4.5c4.3,0.1,8.5,0,12.1-0.4
		c7.7-0.5,14.6,0.2,21.6,0.5c2.2,0.1,4.1,0.9,6,1.9c9.2,4.8,17.6,10.8,25.5,17.7c6,5.2,12,10.3,18.1,15.4c4.7,4,4.4,6.2-1.1,8.9
		c-1.5,0.7-3.1,1.1-4.7,1.7c-3.4,1.3-6.8,2.6-10.2,3.9c-8.7,3.3-14.5,9.8-19,17.7c-3.9,6.9-7.2,14.1-9.8,21.6
		c-1.5,4.2-4.5,6.8-9.1,7.2c-2.9,0.3-5.4-0.3-7.5-2.5c-3.4-3.6-7.8-5.8-12.3-7.7c-10.6-4.5-20.3-10.5-28.8-18.2
		c-4.4-4-7.4-9.2-9.9-14.6c-1.1-2.5-2-5.1-3.3-7.5C156.3,273.1,155.4,262.5,155.8,251.7z M22.2,339.9c-4.8,2.7-9.7,3-14.9,1
		c-8.9-3.3-18-5.9-26.7-4.4c-6.4,0.3-11.7,0-16.9-1c-3.7-0.7-7-2.2-9.5-5.1c-3.2-3.7-6.7-7.1-10.2-10.4c-2.5-2.4-4.2-5.1-5-8.5
		c-0.5-2.3-0.1-4.1,1.5-5.9c6.1-6.5,10.7-13.9,14-22.3c4.2-11.1,13.1-17.7,23.8-22c7-2.8,13.1-6.6,17.5-12.7
		c4.1-5.6,9.6-9.3,15.9-11.9c4.7-1.9,9.4-3.7,14.1-5.3c3.8-1.3,7.8-1.4,11.7-1.7c13.4-1,26.1,1.6,38.4,6.8
		c12.1,5.1,24.2,10,37.5,11.2c5,2.7,10.7,2.1,15.9,3.7c0.9,0.3,1.8,0.5,2.6,0.8c9.1,3.1,11.2,11.9,4.6,19.1
		c-3.2,3.5-6.6,6.8-10.5,9.5c-5.6,4.1-10.2,9.2-14.1,14.8c-3.3,4.8-7,9.3-11.6,12.8c-7.3,5.6-15.6,8.9-24.3,11.2
		c-14.3,3.8-28.4,8.1-41.9,14.3C30,335.6,26.1,337.8,22.2,339.9z M161.5,409.4c-5.9-2.6-10.8-6.9-15.4-11.2
		c-2.7-2.5-5.1-5.3-7.4-8.1c-7.9-9.5-18.2-15.1-30-18.1c-5-1.3-10.1-2.5-15.1-3.4c-9-1.6-18.2-2-27.3-2.1
		c-8.2-0.1-16.4-0.5-24.6-1.8c-3.6-0.5-6.8-1.8-9.5-4.1c-3.5-2.9-3.4-5.8,0-8.6c4.9-4,10.6-6.7,16.4-8.8c8.6-3.2,17.3-5.8,25.9-8.8
		c10.3-3.6,21.1-6,30.6-11.8c4.3-2.6,8.2-5.7,11.6-9.5c6.6-7.2,12.3-15.1,18.6-22.5c2.5-3,5.3-5.4,9.1-6.7c3.3-1.1,4.6-0.7,6.7,2
		c1.7,2.1,2.3,4.6,2.8,7.2c1.5,7.5,5.5,13.4,11.1,18.5c5,4.5,10.5,8.3,16.2,11.8c6.7,4.2,13.6,8.1,20.7,11.6c4.9,2.4,9,5.4,12.7,9.4
		c4.7,5.1,7.4,10.7,7.3,17.7c0,0.6,0.1,1.2,0.2,1.8c-0.7,11.6-1.9,23.1-10.4,32.2c-0.7,0.8-1.5,1.5-2,2.5
		c-4.1,7.4-10.9,12.2-17,17.7c-3.7,3.3-7.9,4.2-12.8,2.8c-3.1-0.9-5.9-2.3-8.5-4.2C168.4,412.6,165,410.9,161.5,409.4z M161.9,466.3
		c1-4.3,3.4-7.8,5.7-11.4c4.8-7.3,10.9-13.5,16.6-20c2.1-2.4,5-4,7.8-5.6c12.1-6.9,22.2-16,29.5-28c2-3.2,4.1-6.3,6.7-10.3
		c2.1,6.2,4.6,11.1,6.8,16.1c2.6,5.8,6.1,10.8,11,14.9c5.9,4.8,11.1,10.4,17.4,14.8c6.1,4.2,12.7,7.1,20,8.5
		c10.5,2,20.5,5.7,30.4,9.8c2.7,1.1,5.1,2.7,6.7,5.3c1.6,2.5,1.2,3.7-1.4,5c-4.6,2.4-9.4,4.4-14.3,6c-6.1,1.9-12,4.4-17.7,7.3
		c-10.6,5.4-22.2,8.5-33.3,12.7c-6,2.3-12.1,4.1-18.6,4.6c-5.2,0.3-10.4-0.2-15.5-0.9c-10.1-1.3-20-1.1-29.7,2.9
		c-5.6,2.3-11.6,3.8-17.8,3.6c-6.9-0.3-11.3-4-11.8-10.8C160,482.6,160,474.4,161.9,466.3z M19.3,572.7c-4.5-4.3-9.4-7.7-15.1-10.1
		c-6.9-2.9-12.8-7.6-19.2-11.5c-3.8-2.3-6.2-6.3-9.4-9.3c-2-1.8-1-3.7,0.4-5.2c3.4-4,7.6-7.1,13-8c5.7-1,11.4-1.9,17.2-2.6
		c3.9-0.5,7.4-1.6,10.9-3.2c7.9-3.6,15.5-7.7,22.9-12.3c10.1-6.4,21.4-9.4,33.1-11.1c2.9-0.4,5.7-0.7,8.6-1.2
		c9.8-1.8,19.6-2.3,32.4-2.6c10.1-0.7,22,4,34.2,7.4c1.4,0.4,2.8,1.3,4,2.2c7,5.1,14.9,7.4,23.4,8.3c0.3,0,0.6,0.1,0.9,0.1
		c7.6-1.5,15.5-1.7,22.7-4.5c5.4-2.1,10.8-3.3,16.5-3.1c4.6,0.2,9.1,0.5,13.7,0.8c2.3,0.2,2.8,1.3,1.6,3.4c-1,1.7-2.7,2.4-4.4,3.1
		c-5.1,2.3-10.2,4.7-15.5,6.8c-5.1,2.1-9.9,4.8-14.7,7.3c-9,4.6-13.3,12.8-15.2,22.2c-1.6,7.8-1.3,15.8-0.5,23.7
		c0.6,6.1-0.5,7.4-6.6,7.2c-4.1-0.1-8.2-0.8-12.3-0.9c-19.8-0.7-39.6-1.5-59.3,1.5c-7.8,1.2-15.8,1.5-23.7,1.3
		c-4.3-0.1-8.5,0.4-12.7,1.5c-8.5,2.2-17.2,3.9-25.3,7.7c-2.3,1.1-3.4-0.3-4.6-1.6C30.7,584.2,25.1,578.3,19.3,572.7z M-10.5,683.9
		c0-5.2,0.1-10.3,1.1-15.5c1.2-6,3.7-11.3,7.1-16.2C6,640.4,14.4,628.6,24.2,618c1.3-1.4,2.8-2.8,4.1-4.3c1.4-1.6,3.2-2,5.3-2.2
		c6.6-0.7,11.4,1.1,14.2,7.8c2,4.9,5.1,9.3,7.7,14c2.6,4.8,5.9,9.1,9.4,13.4c5.4,6.6,10.9,13.1,15.2,20.6c2.9,4.9,6.8,9.1,11.1,12.7
		c9.6,8,19.1,16.1,29.1,23.5c7.2,5.3,15.2,9.4,23.7,12.6c5.5,2.1,11,4.2,16.8,5.9c5.4,1.6,6.7,5.9,3.4,10.5
		c-2.7,3.7-5.7,7.1-8.6,10.7c-5.1,6.4-8.9,13.6-11.3,21.3c-3.2,10-9.1,17.8-17.1,24.2c-3.2,2.6-6.4,5.1-9.6,7.7
		c-2.7,2.3-5.5,4.3-8.8,5.6c-1.8,0.7-3.4,2-5,3.2c-7,5.4-16.5,4.6-22.6-1.9c-2.3-2.5-4.4-5-6.9-7.3c-5.1-4.5-11.2-7.4-17.6-9.5
		c-6.8-2.1-12.5-6.3-18.7-9.5c-2-1.1-3.4-3.1-4.5-5c-2.1-3.5-4.3-7-5.9-10.8c-2.1-4.8-5.1-8.9-8.6-12.8c-4.5-5.1-9.8-9.8-12.8-16
		c-5.4-11.2-10.5-22.6-15.6-34c-0.8-1.8-1-3.8-1-5.8C-10.5,689.7-10.5,686.8-10.5,683.9z M-23.4,843.6c-0.5-0.8-1-1.5-1.4-2.4
		c-5.1-10.3-11-20.3-14-31.6c-0.8-3.1-2.1-6-3.2-9c-6.3-17.1-7.4-34.7-4.7-52.7c1.3-8.4,3.2-16.7,5.5-25c0.8-2.9,1.9-5.8,3.2-8.5
		c5-10.3,11.2-19.8,17.9-30.4c0.8,3.2,0.5,5.5,0.5,7.7c0,4.2,0.7,8.2,2.5,12c1.9,4,3.7,8,5.6,12c2.4,4.9,4.8,9.9,6.7,15
		c2,5.3,4.9,10.1,8.8,14.3c3.6,3.9,7.1,8,10.6,12c2.3,2.7,3.8,5.9,5.3,9c2.7,5.5,5.4,10.9,9.6,15.5c0.9,1,1.9,2.1,3,2.7
		c6.9,3.8,13.4,8.4,21.1,10.8c5.8,1.8,11.4,4.4,15.8,8.8c4.5,4.6,7.9,10,11.5,15.3c0.8,1.1,0.6,2-0.5,2.7c-1.7,1-3.4,2.1-5.1,3
		c-3,1.5-5.9,3.1-8.6,5.1c-2.9,2.1-6.2,3.1-9.6,4c-5.2,1.4-10.2,3-15,5.4c-6.5,3.2-13.6,4.4-20.7,5.4c-4.1,0.6-8.1,1.4-12,2.6
		c-8.4,2.5-16.8,2.7-25.3,1.1C-19.3,847.9-21.7,846.4-23.4,843.6z M134.6,944.9c-9.8,10.4-20.3,19.9-33.7,26
		c-9.4,4.3-18.7,8.8-28.4,12.6c-5.6,2.2-10.6,5.4-15.5,8.8c-8.4,6-16.7,12.3-23.1,20.6c-1,1.4-2,1.8-3.2,0.2
		c-4.1-5.4-9.3-9.7-14-14.4c-3.9-3.9-7.8-7.8-10.8-12.4C2,980-1.3,973.3-4.4,966.5c-4-9.1-4-19-6.3-28.4c-0.1-0.6-0.1-1.2-0.3-1.8
		c-3.4-8-5.2-16.5-7.3-24.9c-0.8-3.3-1.7-6.4-1.8-9.8c-0.2-3-0.8-6-1.3-9.1c2.2,0.4,3.5,1.8,4.9,2.9c7.1,5.5,14.1,11.1,21.3,16.6
		c4.6,3.6,9.9,5.9,15.3,8.2c2.8,1.2,5.5,2.6,7.9,4.5c6,4.4,12.6,8.1,19.1,11.6c6.1,3.3,12.8,4.7,19.8,4.7c16.3,0.1,32.5-2,48.7-4
		c5.6-0.7,11.2-0.8,16.8,0.4C136.1,938.1,137.3,942,134.6,944.9z M177.2,916.5c-1.6,3.1-4.3,4.8-7.5,6.2c-6.8,2.8-13.8,1.5-20.8,1.7
		c-13.8-0.2-27.3,2.1-40.9,4.2c-3.2,0.5-6.3,0.9-9.5,1.2c-10.3,0.7-20.6,2.2-31,2c-6.4-0.1-12.4-1.4-17.9-4.6
		c-6-3.5-12.2-6.9-17.9-11.1c-1.5-1.1-3-2.2-4.7-2.8c-10.7-3.8-19.5-10.6-28.2-17.5c-5-4-10-8-15-12c-3.4-2.7-4.6-7.6-3-11.5
		c0.6-1.4,1.8-2,3-2.7c4-2.2,8.2-4,12.6-5.4c6.8-2.2,13.6-4.4,20.2-7.3c5.2-2.2,10.8-3.1,16.3-4.5c3.8-1,7.6-2.2,11.2-4
		c4.8-2.3,9.8-4.2,15-5.5c5.1-1.3,9.7-3.4,14.1-6.3c3.9-2.7,8.2-4.7,12.2-7.1c1.4-0.8,2.1-0.3,3,0.7c12,12.6,26.5,20.8,43.5,24.4
		c6.6,1.4,13.4,0.7,20.1,0.4c6.5-0.3,13-0.9,19.6-1.2c7.3-0.4,14.5-1.5,21.7-2.8c2.1-0.4,4.2-0.6,6.4-0.4c3.1,0.4,4.1,1.2,4.4,4.3
		c0.8,8.7,0.8,17.4-2.8,25.6c-1.8,4-4.7,7.5-7.2,11.1C188.1,899.6,181.8,907.5,177.2,916.5z M308.1,888.2c-3.3,1.3-6.6,2.3-10.1,2.9
		c-12.7,2.2-24.7,6.9-36.4,11.8c-8.5,3.6-16.6,8.3-24.7,12.8c-7.1,3.9-14.5,6.8-22.6,8.4c-6.1,1.2-12.2,2.4-18.3,3.8
		c-2.4,0.6-4.8,0.9-7.3,0.7c-3.8-0.3-5.2-3-3.6-6.4c4-8.6,9.3-16.4,15-23.9c3.6-4.7,6.9-9.7,9.9-14.8c4.1-6.9,6.2-14.4,7.4-22.4
		c1-6.6,4.1-12.4,9-17.1c4-3.8,8.4-7,13.7-9c15-5.7,29.9-11.3,45.4-15.5c12.5-3.4,24.7-7.7,36.1-13.9c5.6-3.1,10.8-6.8,16.2-10.2
		c3.6-2.3,4.3-2.1,6.2,1.7c1.8,3.7,1.5,7.7,1.9,11.6c0.2,2.3,0,4.6,0,6.9c1.2,8.4-0.9,16.2-5.1,23.6c-3.2,5.7-5.9,11.7-8.8,17.6
		c-4.2,8.5-10.2,15.9-14.7,24.2C315.4,884.5,311.9,886.7,308.1,888.2z M560.2,930.1c-6.2,3.6-11.8,8.1-17.7,12.1
		c-2.3,1.6-4.7,2.8-7.4,3.5c-9.8,2.7-19.6,5.6-29.5,8.1c-13.8,3.4-24.5,11.2-33.1,22.2c-7.6,9.8-14.8,19.8-20.1,31
		c-0.8,1.8-1.7,3.6-3.6,5.5c-3.5-6.2-8.1-11.2-11.2-17.1c-4.3-8-10.7-13.7-18.5-18.4c-12.4-7.4-24.2-15.6-33.1-27.5
		c-6.7-8.9-13.3-17.8-18.6-27.6c-1.8-3.4-4.8-5.8-7.3-9c2.2-1.3,4.5-1.4,6.7-1.9c18.3-4.1,36.8-6.9,55.3-10.1
		c13.9-2.4,27.6-2.5,41.3,0c11.1,2.1,22.3,3,33.5,4.5c20.6,2.8,40.7,7.6,60.3,14.5c2.6,0.9,4.1,2.5,5,4.8
		C563,927.2,562.6,928.7,560.2,930.1z M563.8,887.2c0.8,3.2,1.4,6.5,2.2,9.8c0.6,2.5,0,4.9-1,7.1c-1.7,4-3.8,4.9-10.4,4.2
		c-3,0.2-6.3-1-9.6-2c-18.2-5.4-36.6-9.1-55.5-11c-11.2-1.1-22.3-3.4-33.5-4.8c-11.2-1.4-22.4-1.1-33.6,1c-15.7,2.9-31.6,5-47.2,8.3
		c-7.3,1.6-14.6,3.2-22,4.2c-5.3,0.7-10-0.3-14.3-3.2c-2.9-1.9-5.9-3.8-8.7-5.9c-3.5-2.6-4.2-5-3.1-9.2c1.5-5.9,4.9-10.8,7.9-15.9
		c6.4-10.6,11.5-21.8,17-32.9c3-5.9,3.8-12.5,3.3-19.2c-0.5-7.1,0.2-14.3-0.9-21.4c-0.4-2.2,0.4-4.2,1.4-6.2c3-6,6.6-11.7,10.5-17.2
		c0.6-0.9,1.3-1.7,2.2-2.3c10.7-8.5,21.2-17.4,33.1-24.2c1.3-0.8,2.6-1.5,4-2.1c2.9-1.2,5.4-0.9,8.1,1c8.7,6.2,17.8,11.7,27.2,16.8
		c7.4,4,14.4,8.5,21,13.8c3.4,2.7,6.3,5.8,8.8,9.3c8.2,11.2,19,18.7,31.9,23.4c14,5.1,28.3,8.5,43,10.4c8.2,1,16.4,0.4,24.7,0.4
		c2.3,0,4.6,0.2,6.6,1.3c3,1.5,3.5,3.1,1.5,5.8c-2.5,3.3-5.3,6.2-7.6,9.7c-3.1,4.8-5.2,9.7-6.2,15.5c-1.6,9.7-1.7,19.4-1.7,29.1
		C562.7,883.1,563.2,885.1,563.8,887.2z M682.8,901.1c-8.7,10.2-9.9,21.9-5.2,33.8c3.2,8,2.1,15.1-0.7,22.5c-1,2.7-2.6,5.2-4.2,7.6
		c-7.3,11-14.6,22-22.2,33.3c-3.7-7.1-7.3-13.9-10.9-20.8c-6.9-13.3-15-25.7-26-36.1c-5.3-5-10.6-10.1-16.1-14.9
		c-4.9-4.3-8.2-9.8-11.5-15.2c-5.2-8.3-9.7-16.9-13.2-26c-0.6-1.6-1-3.2-1-4.9c-0.4-10.2,0.2-20.4,2.2-30.5
		c0.8-4.1,3.1-7.6,5.9-10.7c2.1-2.4,4.6-4.4,7-6.5c7.1-6.2,15.6-8,24.4-6.3c8.4,1.6,17,3.8,24.7,7.7c7.4,3.7,14.8,7.1,22.2,10.7
		c8.5,4.1,17.1,7.9,25.8,11.8c3.5,1.6,6.8,3.7,9.5,6.2c4.8,4.4,5.7,10.3,3.9,16.4c-1.4,4.7-3.6,9.1-6.8,12.9
		C688,895.1,685.4,898.1,682.8,901.1z M782,934.7c-18.9,3.8-38,5-57.2,4.7c-7,0-14,0.2-21,0c-8.8-0.3-15.2-6.1-14.7-15.6
		c0.3-5.2,0.3-10.3,2.2-15.3c1.6-4.2,3.8-7.5,7.4-10.1c1.5-1.1,3-2.1,4.3-3.4c3.9-4,6.1-8.6,5.9-14.4c-0.3-5.6-0.5-11.2-2.9-16.5
		c-2-4.4-4.9-7.9-9-10.6c-7.2-4.7-15.3-7.5-23-11.2c-11.1-5.3-22.5-10.2-33.3-16c-4-2.2-8.4-3.6-12.8-4.9c-2.9-0.9-5.2-2.5-6.7-5.2
		c-1.4-2.5-1.2-3.5,1.4-3.8c4.1-0.5,8-1.8,12.2-1.8c10.5,0,21,0,31.5,0c3.8,0,7.6,0.1,11.4,0.7c3.8,0.6,7.6,0.6,11.4,0.3
		c12.3-0.9,24.6-1.9,36.7-4c5.4-0.9,10.5-3.2,15.7-4.8c8-2.5,14.5-7.5,20-13.2c8.4-8.5,18.6-14.8,26.1-24c4.9-6,10.2-11.7,15.6-17.3
		c3-3.2,6.2-6.3,9.6-9.1c1.3-1.1,2.3-1.1,3.6,0.1c8.8,8.4,19.5,13.6,30.8,17.3c12.5,4.1,23.6,10.8,34,18.4
		c11.9,8.6,22.2,18.9,30.3,31.3c7.4,11.3,15.5,22.3,25.3,31.7c6.4,6.1,12.7,12.3,19.8,17.6c2,1.5,3.7,3.2,5.1,5.2
		c2,2.8,1.1,5.2-2.2,6.3c-6.1,2-12.4,3-18.7,4.2c-16.1,3.1-31.3,8.8-46.8,13.9c-14.9,4.9-28.6,12-42.1,19.8
		c-9.5,5.5-19,10.9-28.5,16.4C810.7,928.8,796.4,931.8,782,934.7z M1085,951.2c-4.4,2.7-8.9,5.2-14,6.5c-3.7,1-7.3,2.2-10.9,3.4
		c-10.9,3.8-20.8,9.5-29.8,16.6c-5.6,4.5-11.8,8.1-18.1,11.4c-11.6,6.1-23,12.5-33.8,19.9c-6.9,4.8-15.2,7-22.8,10.4
		c-1.5,0.7-2.7-0.1-3.9-0.7c-5.1-2.8-10.3-5.3-15.2-8.4c-6.8-4.2-13.9-7.5-21.3-10.5c-10.6-4.3-21.2-8.6-32-12.3
		c-9.6-3.3-17.9-9.1-26.5-14.3c-2.1-1.2-3.7-3.1-5.4-4.9c-5.3-5.3-11.1-9.9-17.3-14.1c-3.4-2.3-6.4-5.2-8.2-9
		c-2.7-5.5-0.8-11.5,4.6-14.5c1.3-0.7,2.7-1.3,4.1-2c9.6-4.6,18.7-10.1,27.9-15.6c9-5.4,17.5-11.7,27.1-16c2.8-1.2,5.5-2.6,8.5-3.4
		c9.3-2.5,17.8-7.2,27.1-9.6c11.4-2.9,22.8-5.3,34.3-7.4c7-1.3,13.9-1.6,20.9-1.6c4.6,0,9-1.7,12.8-1.2c12.9,0.2,24.3,3.1,35.1,8.5
		c3.8,1.9,7,4.9,10.1,7.8c7.4,7,14.6,14.2,21.9,21.4c1.4,1.4,2.8,2.8,3.9,4.4c4.6,6.5,10.4,11.9,16.7,16.7c1.8,1.4,3.6,2.8,5.3,4.3
		C1091.3,941.8,1090.9,947.6,1085,951.2z M1139.9,906.8c-1.1,6.9-2.7,13.7-4,20.6c-2.2,11.2-14,17.6-24.5,13.3
		c-2.5-1-5.1-2.1-7.5-3.4c-10.3-6-20.8-12-28.3-21.4c-9.4-11.7-20.8-21.3-31.2-32c-2.7-2.8-6.1-5.1-9.1-7.6
		c-0.5-0.5-1.4-0.7-1.3-1.8c1.3-0.9,2.9-0.5,4.3-0.5c6.9,0,13.7,0.3,20.6-0.1c11.6-0.6,23.1,1.3,34.7,1.6c4.3,0.1,8.7,1.2,12.9,2.8
		c7.1,2.7,14.4,4.8,21.4,8c3.6,1.6,6.6,3.9,9.1,6.7C1140.5,896.9,1140.7,901.9,1139.9,906.8z M1176.2,869.9
		c-11.4,8.3-24.1,11.6-38,9.7c-3.4-0.5-6.7-2-10-3.1c-10.3-3.7-20.3-8.2-31.3-9.8c-0.8-0.1-1.5-0.4-2.2-0.4
		c-10.4,0.4-20.6-2.4-29.2-1.4c-8.5,0-15.2,0.3-21.8-1.3c-5.9-1.4-6.4-1.7-6.1-7.5c0.6-12.1-1.2-24-2.9-35.9
		c-1.4-9.3-3.1-18.6-4.1-28c-0.6-5.2-2-10.1-3.3-15.1c-2.1-8-1.5-16,1-23.9c1.1-3.3,3.1-5.6,6.5-7.1c7-3,13.8-6.5,20.7-9.7
		c11-5,22.8-6.6,34.7-7.4c7.8-0.6,15.4-1.9,23-3.4c4.2-0.9,8.5-0.9,12.7-0.5c3.4,0.3,3.9,0.8,3.8,4.3c-0.2,10.4-2.2,20.5-5.9,30.3
		c-2.5,6.7-5.3,13.3-8.4,19.8c-2,4.1-3.2,8.5-3.7,13.1c-1,8.5,1.8,15.6,7.6,21.6c5.8,6,12.5,10.6,20.1,14.1
		c13.4,6.1,25.6,14.2,37.1,23.2C1182.5,856.1,1182.3,865.5,1176.2,869.9z M1374.4,951.5c-0.1,6.9-2.7,13.5-6.6,19.2
		c-4.7,6.8-8.9,13.8-13.2,20.8c-2.6,4.2-8,5-12.4,1.8c-8.1-6-16.9-10.8-26-15c-5.4-2.5-11.2-3.9-16.9-5.5c-3.8-1-7.5-2.4-11.3-3.7
		c-7.9-2.8-13.9-8.1-18.8-14.7c-5.4-7.2-5.8-15.5-5.4-24c0.1-2.1,0.7-4.2,0.5-6.4c-0.5-5,1.1-9.4,3.5-13.5c2.8-4.7,5.2-9.7,9.8-13
		c5.7-9.2,15.5-13.5,23.5-20c7-5.6,15.3-8.8,23.8-11.2c9.3-2.5,18.5-5,27.2-9.2c4.5-2.1,6.7-0.5,6.5,4.5c-0.1,2.9-0.4,5.8-0.6,8.7
		c-1.1,11.6,2.2,22.3,6.5,32.8C1370.9,918.5,1374.7,934.7,1374.4,951.5z M1368.6,829.9c0,4.7-2,8.3-6.2,10.4
		c-13,6.6-25.5,14.2-40.1,17.4c-11.2,2.4-21.1,7.8-30.1,14.9c-6.9,5.5-14.7,9.9-20.5,16.7c-2.1,2.5-4.7,4.3-7.2,6.3
		c-4.1,3.2-8.2,3-12.2,0.2c-4.3-2.9-8.4-6.1-12.6-9.1c-4.6-3.3-9.7-5.7-15.2-7.2c-5-1.4-9.9-3.1-14.7-5.1c-3.7-1.6-7.3-3.8-10.7-6
		c-2.6-1.7-2.7-3.9-0.9-6.7c3.9-5.8,8.1-11.4,12.7-16.7c2.3-2.6,4.7-5.1,7.7-7.1c4.1-2.7,8-5.6,11.9-8.4c10.8-7.7,22.9-12.6,35-17.7
		c13.3-5.5,26.2-11.6,38.4-19.1c1.8-1.1,3.7-2.2,5.6-3.1c10.1-4.7,18.9-11,26.7-18.9c3.7-3.9,8.3-6.7,13.1-9.1
		c4.7-2.4,7.2-0.8,7.5,4.4c0.7,12.2,3,24.2,7.8,35.5c2.3,5.4,2.9,11.2,4,17.1C1367.6,822.3,1368.6,826.1,1368.6,829.9z
		 M1375.4,751.6c1.5-0.9,2.5-2.2,3.5-3.5c6.7-8.7,15.7-14,26-17c5.6-1.6,11.5-0.3,17.2,0.7c4.1,0.8,7.8,2.3,11.5,4.4
		c9.8,5.5,19,12.1,28.5,18.1c4.7,3,9.6,5.2,15.4,5.1c1.5,0,3,0.4,4.5,0.5c5.5,0.3,5.9,4,4.9,8.1c-0.2,1-0.8,2-1.4,2.9
		c-5.7,10.1-8.1,21.2-7.6,32.5c0.4,11-4,20.2-9,29.3c-4.4,8-9.8,10.1-22,9.7c-8.1-0.8-18-2.2-27.8-4.7c-8.1-2.1-16.2-3.1-24.4-2.8
		c-4.9,0.2-9.3-1.2-13.5-3.5c-2.4-1.2-3.4-2.8-3.3-5.4c0.2-5.8-0.3-11.5-1.5-17.3c-1-4.5-2.2-8.9-4.1-13.1
		c-3.5-7.6-4.7-15.8-5.7-23.9C1365.7,764,1367.6,756.3,1375.4,751.6z M1375.5,675c-7,13.6-12.5,27.8-15.8,42.7
		c-1.4,6.4-4.1,12.1-7.7,17.5c-9,13.4-18.8,26.2-31,37.1c-1.6,1.4-3.3,2.8-5.1,3.8c-11.6,6.4-23.2,12.7-34.9,19
		c-7,3.8-14.5,6.3-21.7,9.6c-7.8,3.5-15.8,6.6-23.2,10.8c-9.1,5.2-18.5,10-27,16.2c-5.4,3.9-12.7,6.2-16.9,6.2
		c-10-0.1-17.9-2.8-25.6-6c-11.1-4.6-21.5-10.7-32.1-16.5c-3.8-2.1-6.8-5.2-9.6-8.4c-3.2-3.5-4.6-7.8-4.2-12.6
		c0.4-4.2,1.6-8.1,3.4-11.8c4.6-9.6,8.8-19.4,11.6-29.8c1-3.7,2-7.4,2.5-11.1c0.6-4.1,2.3-7.9,3.8-11.7c1.9-5.2,5.7-7.7,11-8.2
		c13.7-1.2,27.1-4.4,40.3-8c12-3.2,23.9-7.1,35.6-11.7c14.2-5.6,28.5-10.8,43.2-14.8c8.5-2.3,17.3-3.9,25.6-6.6
		c8.5-2.8,17.3-3.4,26-4.4c11.4-1.3,22.5-3.9,33.4-7.2c4.7-1.4,9.5-2.1,14.4-1.4C1376.5,668.1,1377.8,670.6,1375.5,675z
		 M1423.2,625.9c-4.5,4.6-9.5,8.8-15.2,11.6c-11.3,5.7-22.8,11-35.1,14.3c-14.1,3.9-28.5,6.3-43,8.3c-24.4,3.3-48.1,9.4-71.5,16.9
		c-2,0.6-4.1,1.3-6.1,1.9c-6.5,1.7-12.7,4-18.8,6.9c-16,7.6-32.8,13.1-49.6,18.4c-4.5,1.4-9,2.7-13.6,3.8c-5.6,1.3-10.9,0.1-16-2.1
		c-2.4-1-4.1-2.7-4.3-5.4c-0.7-7.8-3.8-15-6.7-22.2c-4.3-10.4-11.9-18.3-20.2-25.6c-8.4-7.3-17-14.3-25.6-21.4
		c-2.7-2.2-4.2-5.6-5.6-8.7c-1.1-2.3-0.1-4,2.3-5.2c1.7-0.8,3.5-0.9,5.4-0.9c6.1,0,12.2,0,18.3,0c8.5,0,17-0.2,25.6,0.5
		c13.6,1.1,27-0.8,40.5-2.8c16.3-2.5,32.3-6.1,48.5-9.1c10.2-1.9,20.6-2,30.9-1.2c17.8,1.4,35.4,4.2,53.1,5.9
		c12.6,1.2,25.2,2,37.8,3.1c7.7,0.7,15.5,1.5,23.1,2.9c9.5,1.8,19,2.6,28.6,2.5c5.7-0.1,11.1,1.8,16.5,3.4
		C1425.2,622.5,1425.3,623.8,1423.2,625.9z M1417.7,498.9c2.3,2,4.6,4,6.7,6.3c5.3,5.9,11.2,11.2,17.7,15.8c4.9,3.5,8.4,8,11,13.2
		c7.4,14.5,10.7,30,11.1,46.3c0.1,5.1-2.4,9.4-3.8,14c-1.1,3.8-3.6,5.7-7,7.6c-10.7,6-22.4,6.5-34.1,7.1c-3.5,0.2-7,0-11.4,0
		c-13.1,0.8-26.7-2.2-40.4-4c-9.7-1.3-19.4-1.8-29.1-2.6c-18.7-1.6-37.3-3.6-55.9-5.9c-6.5-0.8-12.6-3.2-19.2-3.5
		c-4.2-0.2-5.6-3.5-3.8-7.8c1.1-2.5,2.6-4.8,4.4-6.9c3.9-4.4,6-9.5,6.2-15.4c0-1.7,0.4-3.4,0.3-5c-0.4-7.5,2.7-13.7,7.1-19.3
		c5.3-6.7,10.9-13.1,17-19.1c4.6-4.6,9.9-8.1,15.7-10.9c3.7-1.8,7.4-3.5,11.1-5.4c8.1-4.2,16.7-6.2,25.9-6.2
		c7.3,0,14.6,1.3,21.9,1.2c8.2-0.1,16.4-0.3,24.3-3.3c1.7-0.6,3.5-1,5.3-1.4C1405.8,492.4,1412.1,494.1,1417.7,498.9z M1394.9,426.2
		c2.9,4.1,5.8,8.1,7.9,12.8c1.3,3,2.1,6,2,9.3c-0.2,6.5,0.3,13.1-1.2,19.6c-1.4,6.1-4.8,10.7-10.2,14c-7.3,4.5-15.1,6.3-23.6,4.9
		c-2.5-0.4-5.2-0.5-7.7-0.2c-6.4,0.7-12.8,0.4-19.2,0.6c-1.2,0-2.5,0-3.6,0.3c-12.4,3.5-25.2,5.7-37.2,11
		c-8.7,3.8-15.3,9.8-21.3,16.8c-3.2,3.8-6.4,7.7-10.3,12.4c-0.9-6.1-3.4-10.4-5.8-14.8c-3.4-6.3-6.9-12.5-10.6-18.7
		c-4.6-7.8-7.2-16.1-6-25.3c0.6-4.4,0.9-8.8,0.7-13.2c-0.1-4.3,1.9-7.3,5-9.7c3.4-2.7,7.3-4.6,11.6-5c6.8-0.6,12.6-3.4,18.1-7
		c3.6-2.3,7.1-4.8,10.6-7.1c3.7-2.5,7.8-4.1,12.3-4.6c2.6-0.2,5.1-0.8,7.7-1.3c3.6-0.7,6.8-0.2,10.2,1.4c11.1,5.3,22.7,8.7,35.2,8.5
		c5.6-0.1,10.3-2.5,15.2-4.3c2.6-0.9,4.9-2.5,7.3-3.7C1387.8,420,1391.2,421,1394.9,426.2z M1411.3,292.9
		c-2.2,5.9-5.6,11.2-8.3,16.8c-1.5,3.2-4.9,5-7.8,6.9c-9.4,6.2-16.5,14.5-21.6,24.3c-3.1,5.8-5.8,11.8-7,18.3
		c-1.6,8.6-1.9,17.2,1.8,25.5c2.7,6.2,5.5,12.2,9.6,17.6c4.2,5.4,3.4,10-2.4,13.4c-6.2,3.6-12.8,6.4-23.4,6
		c-14.7-1.7-30.1-8.3-42.1-22c-3-3.4-6.1-6.8-8.6-10.7c-2.1-3.2-3.1-6.6-3.2-10.3c-0.1-3.8,0-7.6,0-11.4c-0.2-8.4-2.9-15.8-8.3-22.2
		c-1.3-1.5-2.5-3.1-3.7-4.7c-4.7-6-5.5-12.5-2.5-19.4c3.9-9.2,9.7-16.9,18.6-21.8c9.4-5.3,18.7-10.8,28-16.4
		c14.8-8.9,25.8-21.2,32-37.6c2-5.3,2.7-10.9,3.1-16.6c0.3-3.9,0.8-4.5,4.6-4.6c2.2-0.1,4.3,0.1,6.3,1c12,5.7,22.2,13.8,30.8,23.9
		c3,3.6,3.8,8.3,4.5,12.8c1,6.5,0.8,13,1.8,19.6C1413.9,285.1,1412.7,289.1,1411.3,292.9z M1479,146.2c1.3,5.3,3.7,10,7.7,13.8
		c7.2,6.9,12.5,15.3,18.8,22.9c2.7,3.2,2.6,7,1.8,10.9c-1.3,6-3.4,11.6-7.2,16.6c-6.3,8.4-13.1,16.2-22.9,20.5
		c-10.4,4.6-19.4,11.5-28.5,18.1c-4.3,3.1-9.1,5.6-13.6,8.3c-4.2,2.5-8.7,1.5-12-2c-2.2-2.3-3.7-5.2-5.6-7.8
		c-6.5-8.8-14.5-16-23.2-22.4c-4.7-3.4-9.4-6.8-14.7-9.2c-4.1-1.8-7.3-5-10.6-7.9c-0.7-0.6-1.3-1.3-1.8-2.1
		c-4.6-8.2-7.5-17-7.4-26.5c0-1.2,0.1-2.5,0.5-3.6c3.2-9.3,7.8-17.6,17.5-21.6c7.9-3.2,16.1-5.6,24.3-8c2.8-0.8,5.6-1.3,8.3-2.4
		c6.7-2.5,13.7-2.8,20.7-3.2c6.1-0.4,12.2-0.8,18.2-1.8c8.5-1.4,16.1-4.5,22.5-10.4c0.4-0.4,1-0.7,1.7-1.2c1.6,2.5,2.2,4.9,2.7,7.3
		C1477.1,138.6,1478,142.4,1479,146.2z M1382,109.5c11.9,0.3,21.2-4.8,29.3-12.7c13.6-13.2,29.7-21,48.2-24.1
		c3.4-0.6,6.7,0.3,10,0.6c1.6,0.2,2.8,1.2,3.6,2.6c1.4,2.4,2.4,4.9,2.7,7.7c0.9,10.7-1.4,20.9-5.2,30.8c-3.1,7.9-9.3,12.2-17.2,14.5
		c-5.4,1.6-11.1,2.1-16.7,2.5c-5.3,0.4-10.6,0.6-16,1.1c-2.1,0.2-4.3,0.5-6.3,1c-12.8,3.5-25.5,7.1-38,11.6c-8,2.9-13.8,8.2-19,15
		c-7.2,9.6-11.5,20.7-17.7,30.8c-4.1,6.7-7.9,13.7-13,19.9c-8.6,10.6-20,16.5-33.2,19.4c-12.5,2.7-25.1,5.1-37.8,6.2
		c-8.5,0.7-17,0.8-25.5-0.3c-5.4-0.7-10.3-2.8-15.1-5.1c-6.3-3.1-12.6-6.2-18.8-9.3c-3.5-1.8-6.7-4.1-10.3-7.4
		c11.7-3.4,17-12.6,23.4-20.7c3.9-4.9,6.4-10.7,9-16.3c5.1-10.8,11.8-20.4,22.8-26.5c7.3-4,14.7-7.1,22.9-8.6
		c8.8-1.7,17.4-4.6,25.7-8.1c11.3-4.7,23-8,35.1-9.6c4.1-0.5,7.9-1.9,11.7-3.7c6-2.9,11.8-6.3,18.3-8.3
		C1363.7,109.6,1372.9,109.3,1382,109.5z M1468.7,2c-5.7,4.6-12,8.4-18.4,11.8c-9.4,5-18.1,11.2-27.7,16c-2.7,1.4-5.5,2.6-8.4,3.5
		c-16.5,5.3-33,10.6-49.6,15.9c-2.5,0.8-4.8,1.9-7,3.2c-4.1,2.4-7.8,5.3-11.6,8.1c-3.4,2.5-5.7,6-7.1,9.9c-1.4,3.8-2.8,7.8-3.8,11.7
		c-1.3,5.5-0.2,10.3,4.8,13.7c1.7,1.2,3.5,2.5,5,3.9c1.6,1.4,1.8,2.9,0.4,4.8c-1.7,2.1-3.6,3.9-6.1,4.6c-4.1,1.3-8,3.1-11.9,4.7
		c-4.6,1.8-9.5,2.3-14.2,3.2c-11.3,2.2-21.9,6.4-32.5,10.6c-6.7,2.6-13.6,4.5-20.6,5.8c-12.5,2.3-23.1,8.3-32.9,16
		c-4.9,3.9-8.5,9.1-11.8,14.5c-2.5,4.2-4.8,8.4-6.7,12.9c-4,9.5-10.7,17.4-17.9,24.6c-3.8,3.8-9.5,4.7-14.6,6
		c-1.5,0.4-2.7-0.5-3.8-1.3c-7-4.9-14.8-7.7-22.8-10.3c-4.1-1.3-7.7-3.4-11.2-6.5c3-2.2,6.2-3.6,9.4-4.8c6.5-2.4,12.3-6.1,17.9-10
		c2.5-1.7,5.1-3.4,8-4.3c9.6-3.2,16.3-9.8,21.7-18.1c2.3-3.6,4.6-7.1,7.6-10.3c5.7-6.1,12.1-11.1,20.5-13c5.6-1.2,10.3-4.6,15.3-7
		c15.2-7.2,29.8-15.5,42.2-27c6.3-5.8,12.2-11.9,18.4-17.8c6.6-6.3,13.3-12.6,20.3-18.4c4-3.3,7.2-7.4,11.2-10.8
		c6.1-5.1,12.3-10,17.8-15.7c14-14.6,31.9-21.9,50.4-28.4c7.8-2.7,15.8-4.4,24-5.5c12.5-1.8,25-3.8,37.2-7
		c5.2-1.4,10.4-1.1,16.4-0.8C1474.3-4.7,1472.3-0.9,1468.7,2z"/>
</g>
</svg>
