<?xml version="1.0" encoding="utf-8"?>
<!-- Generator: Adobe Illustrator 22.0.0, SVG Export Plug-In . SVG Version: 6.00 Build 0)  -->
<svg version="1.1" id="Layer_1" xmlns="http://www.w3.org/2000/svg" xmlns:xlink="http://www.w3.org/1999/xlink" x="0px" y="0px"
	 viewBox="0 0 770.8 170" style="enable-background:new 0 0 770.8 170;" xml:space="preserve">
<style type="text/css">
	.st0{fill:#65B7E0;}
	.st1{fill:#F7A941;}
</style>
<g>
	<path class="st0" d="M27.8,68.2c2.5,3.7,1.2,8.3-3,11.2L16.7,85L1.5,63.2l8.1-5.7c3.5-2.4,7.3-2.1,9.6,1.2c1.1,1.7,2.1,4.3,0.8,6.7
		C23.2,64.6,26.1,65.8,27.8,68.2z M11.1,70l3.8-2.7c2.1-1.5,2.7-3.6,1.4-5.5s-3.3-2-5.4-0.6l-4,2.8L11.1,70z M24.1,70.1
		c-1.5-2-3.8-2.2-6.2-0.5l-4.8,3.3l4.8,6.9l4.5-3.1C25,74.9,25.6,72.3,24.1,70.1z"/>
	<path class="st0" d="M40.8,47.3l2.8,22.5c0.5,4.2-0.9,7-3.5,8.5c-0.9,0.5-2,0.9-3.2,1.1l-1.8-3c1.1-0.2,2.2-0.5,3-1
		c1.5-0.9,2.5-2.3,2.3-4l-0.2-2.1L24,57.3l3.5-2l12.2,9.5l-2.2-15.3L40.8,47.3z"/>
	<path class="st0" d="M74.8,41.2c2.3,5.1,0.6,10.5-4.7,12.9c-2.2,1-4.4,1.1-6.1,0.3l4,8.7l-3.5,1.6l-10.9-24l3.3-1.5l0.8,1.8
		c0.6-1.9,2-3.5,4.4-4.6C67.4,34.1,72.6,36.3,74.8,41.2z M71.4,42.8c-1.5-3.4-4.9-4.5-8.3-2.9c-2,0.9-3.1,2.3-3.7,4.4l3,6.7
		c1.8,0.8,3.6,1.1,5.7,0.2C71.6,49.6,73,46.3,71.4,42.8z"/>
	<path class="st0" d="M92.4,24.9l6.5,17.9L95.5,44l-0.8-2.1c-0.8,2-2.5,3.6-4.8,4.5c-4.2,1.5-8.2,0-9.8-4.5l-4-11.1l3.6-1.3
		l3.9,10.6c1,2.6,3.2,3.7,5.6,2.8c1.8-0.7,3.4-2.2,4-4.5l-4.4-12.2L92.4,24.9z"/>
	<path class="st0" d="M101.6,35.7c2.5,1.1,5.5,1.2,8.1,0.5c1.9-0.5,3.2-1.4,2.8-2.8c-0.5-1.8-2.6-1.4-5.1-1.2
		c-3.1,0.2-6.7,0.2-7.8-3.9c-1.2-4.2,2-6.6,5.5-7.6c2-0.6,4.1-0.7,6-0.3l1,3.6c-1.9-0.4-4.3-0.4-6.2,0.1s-3.2,1.6-2.8,3.1
		c0.5,1.6,2.3,1.4,4.7,1.2c3.6-0.3,7.2-0.3,8.3,3.6c1.1,3.8-1.8,6.6-5.7,7.7c-2.4,0.7-5.1,0.7-7.5-0.1L101.6,35.7z"/>
	<path class="st0" d="M136.1,21.1l2.5,11.5l-3.8,0.8l-2.4-11c-0.6-2.7-2.6-4.1-5.2-3.5c-2,0.4-3.7,1.8-4.6,3.9l2.7,12.7l-3.8,0.8
		l-5.6-26.5l3.7-0.8l2.1,9.9c1-1.9,2.7-3.2,5.2-3.7C131.4,14.3,135,16.4,136.1,21.1z"/>
	<path class="st0" d="M139.2,7c-0.2-1.6,0.6-2.8,2.3-3c1.7-0.3,2.9,0.6,3.1,2.2c0.2,1.5-0.6,2.7-2.3,3C140.7,9.4,139.5,8.5,139.2,7z
		 M144,31.8L141,13l3.8-0.6l3,18.8L144,31.8z"/>
	<path class="st0" d="M169.4,16.7l1.2,11.7l-3.8,0.4l-1.2-11.2c-0.3-2.8-2.1-4.4-4.8-4.1c-2,0.2-3.9,1.4-5,3.4l1.3,12.9l-3.8,0.4
		l-2-18.9l3.6-0.4l0.2,2.3c1.2-1.8,3.1-3,5.7-3.3C165.5,9.5,168.9,12,169.4,16.7z"/>
	<path class="st0" d="M193.7,11.9l-5.1,0.2c1.6,1,2.1,2.2,2.2,3.8c0.1,4.6-4.1,6.3-6.8,6.9c-1.5,0.3-4.5,0.6-4.5,2
		c0,0.9,1.4,1.1,3.5,1.1l1.9,0.1c2.5,0.1,7.8,0.3,7.9,4.9c0.1,4.3-4.5,6.1-9.6,6.3c-4.7,0.1-8.6-1.1-8.7-4.9
		c-0.1-2.3,1.6-3.9,4.2-4.5c-1.4-0.5-2.6-1.4-2.7-2.8c0-1.5,1.2-2.4,2.7-2.8c-2.2-1.1-3.6-3-3.6-5.8c-0.1-4.6,3.3-7.2,8.3-7.4
		l10.3-0.3L193.7,11.9z M178,31.6c0.1,1.9,1.7,2.5,5.4,2.4c3.3-0.1,5.8-0.7,5.8-2.9c-0.1-2.1-2.9-2.2-5.6-2.1
		C180.8,29.1,178,29.4,178,31.6z M187.2,16.1c-0.1-2.2-1.9-3.8-4.4-3.7s-4.2,1.8-4.1,4c0.1,2.1,1.9,3.7,4.3,3.6
		S187.2,18.2,187.2,16.1z"/>
	<path class="st0" d="M225.9,19.7c-0.4,5.7-4.5,9.7-10.2,9.3c-2.6-0.2-4.7-1.2-5.7-3l-0.2,2.2l-3.6-0.3l2-26.9l3.8,0.3l-0.7,9.8
		c1.4-1.3,3.3-1.9,5.8-1.7C222.8,9.7,226.3,14,225.9,19.7z M222.2,19.5c0.3-4-2.1-6.4-5.8-6.7c-2.2-0.2-3.8,0.5-5.4,2l-0.6,7.7
		c1.2,1.6,2.7,2.7,5,2.8C219.2,25.7,221.9,23.5,222.2,19.5z"/>
	<path class="st0" d="M248.7,23.2c-0.9,5.8-5.4,9.1-11,8.3c-5.7-0.9-9-5.4-8.2-11.2c0.9-5.8,5.4-9.2,11.1-8.3
		C246.3,12.8,249.6,17.4,248.7,23.2z M245.1,22.6c0.6-3.9-1.4-6.6-5-7.1s-6.3,1.4-6.9,5.3s1.4,6.6,5,7.2
		C241.8,28.5,244.5,26.5,245.1,22.6z"/>
	<path class="st0" d="M272.5,18.7l-4.2,18.6l-3.5-0.8l0.5-2.1c-1.7,1.2-4.1,1.7-6.5,1.1c-4.3-1-6.9-4.4-5.8-9.1l2.6-11.5l3.7,0.9
		l-2.5,11c-0.6,2.7,0.7,4.8,3.2,5.4c1.9,0.4,4.1,0,5.8-1.6l2.9-12.7L272.5,18.7z"/>
	<path class="st0" d="M293.7,32.5l-3.5,11.3l-3.7-1.1l3.3-10.8c0.8-2.7-0.3-4.9-2.8-5.6c-1.9-0.6-4.1-0.3-5.9,1.2l-3.8,12.3
		l-3.7-1.1l5.6-18.2l3.5,1.1l-0.7,2.3c1.8-1.2,4.1-1.6,6.5-0.8C292.9,24.4,295.1,28,293.7,32.5z"/>
	<path class="st0" d="M321.7,27l-9.9,25.1l-3.4-1.3l0.8-2c-1.7,1.1-4,1.2-6.4,0.2c-5.3-2.1-7.3-7.5-5.2-12.8
		c2.1-5.3,7.1-7.6,12.4-5.5c2.3,0.9,3.8,2.3,4.5,4.1l3.6-9.1L321.7,27z M313.1,38.2c-0.7-2-1.9-3.4-3.9-4.2
		c-3.4-1.3-6.7-0.2-8.2,3.5c-1.5,3.8,0.1,6.9,3.5,8.3c2.2,0.9,4,0.5,5.7-0.4L313.1,38.2z"/>
	<path class="st0" d="M335.6,48.5l-5.8,12.1l-3.3-1.6l1.2-2.4c-1.5,1-4.2,1.4-7,0c-3-1.4-4.4-4-2.9-7.1c1.9-3.9,5.6-3,10.7-2
		c2.3,0.5,3.2,0.6,3.8-0.6c0.7-1.5-0.3-2.8-2.3-3.8c-2.5-1.2-4.8-1.1-7.5-0.6l1.7-3.5c2.6-0.5,5.1-0.2,7.4,1
		C335.5,41.8,337.2,45.1,335.6,48.5z M330.5,50.3c-0.3,0-1.2,0-3.2-0.4c-2.8-0.4-5.1-1.2-6.1,0.8c-0.6,1.2-0.2,2.4,1.6,3.3
		c2.1,1,5.3,1.1,6.8-1.9L330.5,50.3z"/>
	<path class="st0" d="M353.7,52.1l-1.8,3.2c-0.6-0.7-1.2-1.1-1.8-1.5c-1.9-1.1-4.2-1.1-6,0L337.9,65l-3.3-1.8l9.2-16.7l3.2,1.7
		l-1.3,2.3c1.9-0.9,3.8-1.1,6.1,0.2C352.5,51.1,353.2,51.5,353.7,52.1z"/>
	<path class="st0" d="M347.6,70.5l9.9-16.3l3.2,2l-9.9,16.3L347.6,70.5z M360,48.5c0.8-1.4,2.3-1.7,3.7-0.8s1.8,2.3,1,3.7
		c-0.8,1.3-2.3,1.7-3.7,0.8C359.5,51.3,359.1,49.9,360,48.5z"/>
	<path class="st0" d="M373.6,77.7l-11.2-7.6c-1.7,2.8-0.6,5.7,2.3,7.6c2,1.3,4.3,1.9,7.1,1.9l-2.1,3.1c-2.7,0.1-5-0.7-7-2.1
		c-5-3.4-6-8.7-2.7-13.7c3.3-4.9,8.7-6.1,13.2-3c4.3,2.9,4.7,7.5,1.4,12.3L373.6,77.7z M364.1,67.5l8,5.5c1.5-2.2,1.3-4.6-1.2-6.3
		C368.7,65.2,366.2,65.4,364.1,67.5z"/>
	<path class="st0" d="M375.1,81.7c0.6,2.7,2.2,5.1,4.4,6.8c1.5,1.2,3,1.7,3.9,0.6c1.1-1.4-0.4-2.9-2-4.9c-2-2.4-4.1-5.3-1.5-8.6
		c2.7-3.4,6.5-2.3,9.4,0c1.7,1.3,3,2.9,3.8,4.7l-2.3,2.9c-0.8-1.8-2.2-3.7-3.8-4.9c-1.5-1.2-3.2-1.7-4.1-0.4c-1,1.3,0.2,2.7,1.8,4.5
		c2.4,2.8,4.4,5.6,2,8.8c-2.5,3.1-6.4,2.4-9.5-0.1c-2-1.6-3.6-3.7-4.3-6.2L375.1,81.7z"/>
</g>
<g>
	<path class="st1" d="M446.5,107.4l-20.9,18.8l-3.4-1.9l5.1-21.5l-15.7,15.5l-3.4-1.9l5.2-27.6l3.5,2l-4.5,21.7l15.8-15.3l3.4,1.9
		l-4.9,21.5l16.2-15.1L446.5,107.4z"/>
	<path class="st1" d="M455.2,130.6l-12.4-5.4c-1.2,3,0.5,5.7,3.6,7.1c2.2,1,4.6,1.1,7.4,0.5l-1.5,3.5c-2.6,0.6-5,0.2-7.3-0.8
		c-5.5-2.4-7.6-7.5-5.2-13c2.4-5.4,7.4-7.5,12.5-5.3c4.8,2.1,6,6.5,3.6,11.8L455.2,130.6z M444,122.4l8.9,3.9
		c1.1-2.5,0.4-4.8-2.3-5.9C448.1,119.3,445.7,119.9,444,122.4z"/>
	<path class="st1" d="M488.5,134.1l-4.9-1.5c1.1,1.5,1.3,2.8,0.8,4.4c-1.4,4.4-6,4.6-8.7,4.2c-1.6-0.2-4.4-0.9-4.9,0.4
		c-0.3,0.9,1,1.5,2.9,2.2l1.8,0.7c2.4,0.9,7.2,2.8,5.9,7.2c-1.3,4.1-6.2,4.3-11.2,2.8c-4.5-1.4-7.8-3.9-6.6-7.5
		c0.7-2.2,2.8-3.2,5.4-2.8c-1.2-0.9-2-2.2-1.6-3.6c0.5-1.5,1.9-1.9,3.5-1.8c-1.8-1.8-2.3-4-1.5-6.7c1.4-4.4,5.5-5.8,10.3-4.2
		l9.8,3.1L488.5,134.1z M467.2,147.6c-0.6,1.8,0.8,2.9,4.3,4c3.2,1,5.8,1.2,6.4-0.8s-2-3-4.6-3.8
		C470.7,146.1,467.9,145.5,467.2,147.6z M481,135.9c0.7-2.1-0.5-4.2-2.9-4.9s-4.5,0.3-5.2,2.4c-0.6,2,0.5,4.1,2.9,4.9
		S480.4,137.9,481,135.9z"/>
	<path class="st1" d="M487.8,150l4.7-18.4l3.7,0.9l-4.7,18.4L487.8,150z M493.2,125.3c0.4-1.5,1.7-2.3,3.3-1.9
		c1.6,0.4,2.4,1.7,2,3.2c-0.4,1.5-1.7,2.2-3.3,1.8C493.6,128.1,492.9,126.9,493.2,125.3z"/>
	<path class="st1" d="M518.5,137.3l-11.4,17.1l-3.8-0.8l-3.8-20.2l4.2,0.8l2.3,15.9l8.3-13.7L518.5,137.3z"/>
	<path class="st1" d="M536,150.4l-13.4-1.7c-0.3,3.2,2.1,5.4,5.5,5.8c2.4,0.3,4.7-0.2,7.2-1.6l-0.5,3.8c-2.4,1.3-4.8,1.6-7.2,1.3
		c-6-0.8-9.3-5.1-8.6-11c0.7-5.8,5-9.3,10.5-8.6c5.2,0.7,7.5,4.5,6.8,10.3L536,150.4z M523,145.7l9.6,1.2c0.3-2.7-0.9-4.7-3.9-5.1
		C526,141.5,523.8,142.8,523,145.7z"/>
	<path class="st1" d="M567.3,141l-9.4,20.6c-1.7,3.8-4.5,5.4-7.4,5.4c-1.1,0-2.2-0.2-3.3-0.7l0.1-3.5c1,0.4,2.1,0.7,3,0.7
		c1.7,0,3.3-0.6,4-2.3l0.9-1.9l-7.5-18.8l4,0.1l5.4,14.5l6.1-14.2L567.3,141z"/>
	<path class="st1" d="M588.8,149.6c0.3,5.8-3.5,10-9.2,10.3s-9.9-3.5-10.2-9.3s3.5-10.1,9.2-10.4
		C584.4,139.9,588.5,143.7,588.8,149.6z M585.1,149.7c-0.2-3.9-2.6-6.2-6.3-6c-3.6,0.2-5.9,2.7-5.7,6.6c0.2,3.9,2.7,6.2,6.3,6
		C583.1,156.2,585.3,153.7,585.1,149.7z"/>
	<path class="st1" d="M609.8,137.4l2.5,18.9l-3.6,0.5l-0.3-2.2c-1.2,1.8-3.2,3-5.7,3.3c-4.4,0.6-8-1.8-8.6-6.5l-1.5-11.7l3.8-0.5
		l1.5,11.2c0.4,2.8,2.3,4.3,4.9,4c1.9-0.3,3.8-1.5,4.9-3.5L606,138L609.8,137.4z"/>
	<path class="st1" d="M643.2,148.7c-1.2,1.1-2.7,1.9-4.1,2.2c-3.9,0.9-7.7-0.9-8.8-5.4l-2.1-8.5l-4.6,1.1l-0.8-3.2l4.6-1.1l-1.5-6
		l3.7-0.9l1.5,6l7.3-1.8l0.8,3.2l-7.3,1.8l2,8.2c0.6,2.7,2.7,3.5,4.9,3c1.2-0.3,2.5-1,3.5-2.1L643.2,148.7z"/>
	<path class="st1" d="M661.3,131.5l3.6,11.2l-3.7,1.2l-3.5-10.7c-0.9-2.7-3-3.8-5.5-3c-1.9,0.6-3.5,2.1-4.2,4.4l4,12.4l-3.7,1.2
		l-8.3-25.7l3.6-1.2l3.1,9.7c0.8-2,2.4-3.4,4.8-4.2C655.9,125.3,659.8,127,661.3,131.5z"/>
	<path class="st1" d="M683.2,126.5l-12.5,5.2c1.4,2.9,4.5,3.6,7.6,2.3c2.2-0.9,4-2.6,5.5-4.9l1.5,3.5c-1.4,2.3-3.3,3.8-5.6,4.7
		c-5.5,2.3-10.6,0.2-12.9-5.3c-2.2-5.4-0.3-10.6,4.8-12.7c4.8-2,8.8,0.2,11,5.6L683.2,126.5z M669.6,128.8l9-3.7
		c-1-2.5-3.1-3.6-5.9-2.5C670.1,123.7,668.9,125.9,669.6,128.8z"/>
	<path class="st1" d="M710.5,112.5l-11.9,6.4c1.7,2.8,4.8,3.1,7.8,1.5c2.1-1.1,3.7-3,4.9-5.5l1.8,3.3c-1.1,2.4-2.9,4.1-5.1,5.3
		c-5.3,2.9-10.5,1.3-13.4-3.9c-2.8-5.2-1.4-10.5,3.4-13.1c4.6-2.5,8.8-0.7,11.5,4.4L710.5,112.5z M697.2,116.2l8.6-4.6
		c-1.3-2.4-3.5-3.3-6.1-1.8C697.2,111.1,696.3,113.4,697.2,116.2z"/>
	<path class="st1" d="M719.8,84.4l14.7,22.7l-3,2l-1.2-1.9c0,2-1.4,3.9-3.6,5.3c-4.8,3.1-10.3,1.6-13.5-3.2
		c-3.1-4.8-2-10.2,2.7-13.3c2.1-1.3,4.1-1.7,5.9-1.3l-5.3-8.2L719.8,84.4z M724,97.9c-2.1-0.6-3.8-0.4-5.7,0.8
		c-3.1,2-4.1,5.3-1.9,8.7c2.2,3.4,5.7,4,8.8,2c2-1.3,2.7-2.9,3-4.9L724,97.9z"/>
	<path class="st1" d="M745.4,79.3l-4.1,3.1c1.9-0.1,3,0.5,4,1.9c2.8,3.7,0.3,7.6-1.5,9.5c-1.1,1.2-3.3,3.1-2.5,4.2
		c0.6,0.8,1.8,0.1,3.5-1.1l1.6-1.1c2.1-1.4,6.5-4.3,9.3-0.7c2.6,3.4,0,7.6-4.2,10.7c-3.7,2.8-7.7,4.1-10,1.1c-1.4-1.8-1-4.1,0.8-6.1
		c-1.4,0.4-3,0.4-3.8-0.8c-0.9-1.2-0.5-2.7,0.6-3.9c-2.4,0.4-4.7-0.4-6.3-2.6c-2.8-3.7-1.6-7.8,2.4-10.8l8.2-6.2L745.4,79.3z
		 M742.5,86.5c-1.3-1.7-3.7-2-5.7-0.5s-2.3,3.9-1,5.6s3.7,1.9,5.6,0.4C743.4,90.6,743.8,88.2,742.5,86.5z M744.1,104.5
		c1.1,1.5,2.9,1,5.8-1.2c2.6-2,4.3-4,3-5.7c-1.2-1.6-3.6-0.1-5.8,1.6C744.9,100.8,742.8,102.7,744.1,104.5z"/>
	<path class="st1" d="M764.5,72.4l-10.1,9c2.3,2.3,5.4,2,8-0.3c1.8-1.6,2.9-3.7,3.6-6.5l2.5,2.8c-0.6,2.6-1.9,4.6-3.8,6.3
		c-4.5,4-10,3.7-14-0.8c-3.9-4.4-3.7-9.9,0.4-13.5c3.9-3.5,8.4-2.7,12.2,1.7L764.5,72.4z M752.3,79l7.3-6.4c-1.8-2-4.1-2.4-6.4-0.4
		C751.1,74,750.8,76.5,752.3,79z"/>
</g>
</svg>
