<?xml version="1.0" encoding="utf-8"?>
<!-- Generator: Adobe Illustrator 22.0.0, SVG Export Plug-In . SVG Version: 6.00 Build 0)  -->
<svg version="1.1" id="Layer_1" xmlns="http://www.w3.org/2000/svg" xmlns:xlink="http://www.w3.org/1999/xlink" x="0px" y="0px"
	 viewBox="0 0 200 110" style="enable-background:new 0 0 200 110;" xml:space="preserve">
<style type="text/css">
	.st0{fill:#65B7E0;}
</style>
<g>
	<path class="st0" d="M22.6,17.1c1.6,5.9,6.6,8.9,12.1,7.4c2.5-0.7,5.1-2.3,7-4.8l1.1,4c-1.8,2.1-4.4,3.6-7.3,4.4
		c-7.7,2-14.8-2-16.9-10c-2.1-8,2.1-15,9.8-17c3.1-0.8,5.9-0.6,8.5,0.3l1.1,4c-2.9-1.3-6-1.4-8.5-0.8C24,6.1,21.1,11.1,22.6,17.1z"
		/>
	<path class="st0" d="M64.6,14.8c0.3,5.8-3.6,10-9.3,10.2c-5.7,0.2-9.9-3.6-10.1-9.4c-0.3-5.8,3.6-10,9.3-10.3
		C60.2,5.1,64.3,8.9,64.6,14.8z M60.9,14.9c-0.2-3.9-2.6-6.2-6.2-6s-5.9,2.6-5.7,6.6s2.6,6.2,6.3,6.1S61,18.8,60.9,14.9z"/>
	<path class="st0" d="M87.5,15.7l-1.9,11.6l-3.8-0.6l1.8-11.1c0.4-2.8-0.9-4.8-3.6-5.2c-2-0.3-4.1,0.3-5.7,2l-2.1,12.8l-3.8-0.6
		l3-18.8l3.6,0.6l-0.4,2.3c1.7-1.5,3.8-2.1,6.3-1.7C85.6,7.7,88.3,11,87.5,15.7z"/>
	<path class="st0" d="M103.7,32.7c-1.7,0.3-3.3,0.1-4.7-0.4c-3.8-1.3-5.9-5-4.4-9.3l2.9-8.2l-4.5-1.6l1.1-3.1l4.5,1.6l2.1-5.8
		l3.6,1.3l-2.1,5.8l7.1,2.5l-1.1,3.1l-7.1-2.5l-2.9,8c-0.9,2.6,0.3,4.4,2.4,5.1c1.1,0.4,2.6,0.5,4.1,0.2L103.7,32.7z"/>
	<path class="st0" d="M125.1,30.1l-6.6,11.7l-3.1-1.8l1.3-2.3c-1.6,0.9-4.2,1.1-7-0.5c-2.9-1.6-4.1-4.3-2.4-7.3
		c2.1-3.8,5.8-2.6,10.8-1.3c2.2,0.6,3.2,0.8,3.9-0.3c0.8-1.5-0.1-2.8-2.1-3.9c-2.4-1.4-4.7-1.4-7.4-1.1l1.9-3.4
		c2.6-0.3,5.1,0.2,7.3,1.4C125.5,23.5,126.9,26.8,125.1,30.1z M119.9,31.7c-0.3,0-1.2-0.1-3.1-0.6c-2.7-0.6-5-1.6-6.1,0.4
		c-0.7,1.2-0.4,2.4,1.4,3.4c2.1,1.2,5.2,1.5,6.9-1.5L119.9,31.7z"/>
	<path class="st0" d="M137,49.6l-2.3,2.8c-2.3,0-4.2-0.8-5.9-2.2c-4.4-3.6-4.9-9.5-1.2-13.9c3.7-4.5,9.3-5,13.7-1.3
		c1.8,1.4,2.9,3.2,3.4,5.3l-2.3,2.8c-0.6-2.3-1.5-3.9-3-5.2c-3-2.4-6.4-2.2-8.9,0.8c-2.5,3-2.1,6.6,0.9,9
		C132.8,49,134.6,49.5,137,49.6z"/>
	<path class="st0" d="M146,66.6c-1.6-0.6-2.9-1.5-3.9-2.6c-2.6-3-2.7-7.3,0.7-10.3l6.6-5.7l-3.1-3.6l2.5-2.2l3.1,3.6l4.7-4.1
		l2.5,2.9l-4.7,4.1l4.9,5.7l-2.5,2.2l-4.9-5.7l-6.4,5.6c-2.1,1.8-1.9,4-0.4,5.7c0.8,0.9,2,1.8,3.5,2.2L146,66.6z"/>
	<path class="st0" d="M176.7,84.5l-17.2,8.2l-1.6-3.3l2-1c-2-0.6-3.8-2.1-4.9-4.3c-1.9-4-0.8-8.1,3.5-10.2l10.6-5.1l1.7,3.5
		l-10.2,4.9c-2.5,1.2-3.4,3.5-2.2,5.9c0.8,1.7,2.6,3.2,4.9,3.6l11.7-5.6L176.7,84.5z"/>
	<path class="st0" d="M166.5,94.8c-1.2,2.5-1.3,5.4-0.6,8.1c0.5,1.9,1.3,3.2,2.8,2.8c1.8-0.5,1.4-2.6,1.3-5.1
		c-0.2-3.1-0.1-6.7,4-7.8c4.2-1.1,6.6,2.1,7.5,5.6c0.5,2.1,0.6,4.1,0.2,6l-3.6,1c0.4-1.9,0.5-4.3,0-6.2c-0.5-1.9-1.5-3.2-3-2.8
		c-1.6,0.4-1.4,2.3-1.3,4.6c0.2,3.6,0.1,7.2-3.7,8.2s-6.5-1.9-7.6-5.8c-0.7-2.5-0.6-5.1,0.3-7.5L166.5,94.8z"/>
</g>
</svg>
