<?xml version="1.0" encoding="utf-8"?>
<!-- Generator: Adobe Illustrator 22.0.0, SVG Export Plug-In . SVG Version: 6.00 Build 0)  -->
<svg version="1.1" id="Layer_1" xmlns="http://www.w3.org/2000/svg" xmlns:xlink="http://www.w3.org/1999/xlink" x="0px" y="0px"
	 viewBox="0 0 200 110" style="enable-background:new 0 0 200 110;" xml:space="preserve">
<style type="text/css">
	.st0{fill:#03335E;}
</style>
<g>
	<path class="st0" d="M44,48.2l-26.8,8.4l-2.3-3.2L28.5,36L7.7,43.6l-2.3-3.2l16.2-22.9l2.4,3.3L11,38.6l20.7-7.4l2.3,3.1L20.6,51.9
		l21-7L44,48.2z"/>
	<path class="st0" d="M52.8,69.8l-6.5,9.8l-3.2-2.1l6.2-9.4c1.5-2.4,1.1-4.7-1.1-6.2c-1.7-1.1-3.9-1.4-6-0.5l-7.1,10.9l-3.2-2.1
		l14.8-22.6l3.2,2.1l-5.6,8.5c2.1-0.6,4.2-0.3,6.2,1.1C54.4,61.8,55.5,65.8,52.8,69.8z"/>
	<path class="st0" d="M75.7,80.8c-1.9,5.5-6.9,8.1-12.3,6.3c-5.4-1.8-8-6.9-6.1-12.4c1.9-5.5,6.9-8.1,12.4-6.3
		C75.1,70.2,77.6,75.3,75.7,80.8z M72.2,79.6c1.3-3.7-0.2-6.7-3.7-7.9c-3.5-1.2-6.4,0.3-7.7,4.1c-1.3,3.7,0.2,6.8,3.7,7.9
		C68,84.9,71,83.4,72.2,79.6z"/>
	<path class="st0" d="M118.5,71.9L113,91.4l-3.5,0.3l-5.2-12.5L101,92.3l-3.5,0.3l-8.3-18.5l4.1-0.3l5.6,13.7l3.4-14.4l3.4-0.3
		l5.5,13.7l3.5-14.4L118.5,71.9z"/>
	<path class="st0" d="M139.6,74.9l-12.7,4.7c1.3,3,4.3,3.8,7.5,2.6c2.2-0.8,4.1-2.4,5.7-4.7l1.3,3.6c-1.5,2.2-3.5,3.6-5.8,4.5
		c-5.6,2.1-10.6-0.1-12.7-5.8c-2.1-5.5,0.1-10.6,5.2-12.5c4.9-1.8,8.8,0.5,10.8,6L139.6,74.9z M125.9,76.7l9.1-3.4
		c-0.9-2.5-3-3.7-5.8-2.7C126.6,71.6,125.3,73.8,125.9,76.7z"/>
	<path class="st0" d="M161.4,53.5l8.5,10.4l-2.8,2.3l-1.7-2.1c0.2,1.8-0.5,4.3-3,6.3c-2.6,2.1-5.5,2.3-7.7-0.4
		c-2.7-3.4-0.3-6.3,2.7-10.5c1.4-1.9,2-2.7,1.1-3.7c-1.1-1.3-2.7-0.9-4.4,0.5c-2.2,1.7-3,3.8-3.7,6.5l-2.4-3c0.6-2.6,2-4.7,4-6.3
		C155.4,50.8,159,50.6,161.4,53.5z M160.9,59c-0.1,0.3-0.6,1.1-1.7,2.7c-1.6,2.3-3.3,4-1.8,5.8c0.9,1.1,2.1,1.2,3.7,0
		c1.8-1.5,3.3-4.3,1.1-6.9L160.9,59z"/>
	<path class="st0" d="M168.9,36.5l2.8,2.4c-0.7,0.4-1.3,0.9-1.8,1.5c-1.4,1.7-1.9,3.9-1.1,5.9l9.8,8.2l-2.4,2.9l-14.6-12.2l2.3-2.8
		l2,1.7c-0.6-2-0.4-4,1.3-6C167.6,37.6,168.2,37,168.9,36.5z"/>
	<path class="st0" d="M187.6,25.2l-6.5,11.9c2.9,1.4,5.7,0,7.4-3c1.1-2.1,1.5-4.5,1.2-7.3l3.3,1.8c0.4,2.7-0.2,5-1.4,7.2
		c-2.9,5.3-8.1,6.9-13.4,4c-5.2-2.8-6.9-8-4.2-12.9c2.5-4.6,7-5.4,12.1-2.6L187.6,25.2z M178.5,35.6l4.7-8.5
		c-2.4-1.3-4.7-0.8-6.1,1.8C175.6,31.3,176.1,33.7,178.5,35.6z"/>
</g>
</svg>
