<?xml version="1.0" encoding="utf-8"?>
<!-- Generator: Adobe Illustrator 22.0.0, SVG Export Plug-In . SVG Version: 6.00 Build 0)  -->
<svg version="1.1" id="Layer_1" xmlns="http://www.w3.org/2000/svg" xmlns:xlink="http://www.w3.org/1999/xlink" x="0px" y="0px"
	 viewBox="0 0 202.3 57.5" style="enable-background:new 0 0 202.3 57.5;" xml:space="preserve">
<style type="text/css">
	.st0{fill:#F7A941;}
</style>
<g>
	<path class="st0" d="M7.1,49.2c-4.1-7-2-15,5-19c7-4.1,14.9-2,19,5.1c4.1,7.1,2,15-5,19.1C19.1,58.3,11.2,56.2,7.1,49.2z
		 M27.5,37.3c-3.1-5.3-8.7-6.9-13.7-4c-5,2.9-6.3,8.6-3.3,13.8c3.1,5.3,8.7,6.9,13.6,4C29.2,48.2,30.6,42.6,27.5,37.3z"/>
	<path class="st0" d="M50.4,21.2l7.1,17.7l-3.4,1.3l-0.8-2c-0.7,2-2.4,3.7-4.7,4.6c-4.1,1.7-8.2,0.2-9.9-4.2l-4.4-10.9l3.6-1.4
		L42,36.7c1,2.6,3.3,3.6,5.7,2.6c1.8-0.7,3.3-2.3,3.9-4.6l-4.8-12.1L50.4,21.2z"/>
	<path class="st0" d="M68.4,16l1,3.5c-0.9-0.1-1.6,0-2.3,0.2c-2.1,0.6-3.8,2.2-4.3,4.2l3.5,12.3l-3.7,1L57.4,19l3.5-1l0.7,2.5
		c0.7-2,1.9-3.5,4.5-4.2C66.7,16.2,67.6,16,68.4,16z"/>
	<path class="st0" d="M98.6,24.6l0.5,3.7c-1.6,1.7-3.4,2.5-5.6,2.8c-5.7,0.8-10.3-2.8-11.1-8.6c-0.8-5.7,2.7-10.2,8.4-11
		c2.3-0.3,4.3,0,6.2,1.1l0.5,3.6c-2.1-1.1-3.9-1.6-5.9-1.3c-3.8,0.5-6,3.2-5.5,7c0.5,3.8,3.4,6,7.2,5.5
		C95.3,27.2,96.9,26.2,98.6,24.6z"/>
	<path class="st0" d="M103.5,29.7l-1.5-27l3.8-0.2l1.5,27L103.5,29.7z"/>
	<path class="st0" d="M113,29.4l0-19l3.8,0l0,19L113,29.4z M112.1,4.1c0-1.6,1.1-2.6,2.7-2.6c1.7,0,2.7,1,2.7,2.6
		c0,1.6-1.1,2.6-2.7,2.6C113.2,6.7,112.1,5.7,112.1,4.1z"/>
	<path class="st0" d="M138.9,22.4l-13.5-1.1c-0.1,3.2,2.3,5.3,5.7,5.5c2.4,0.2,4.7-0.5,7.1-1.9l-0.3,3.8c-2.3,1.4-4.7,1.8-7.1,1.6
		c-6-0.5-9.6-4.6-9.1-10.6c0.5-5.9,4.5-9.5,10-9.1c5.2,0.4,7.7,4.2,7.3,10L138.9,22.4z M125.7,18.2l9.7,0.8c0.2-2.7-1.2-4.6-4.1-4.9
		C128.5,13.9,126.5,15.4,125.7,18.2z"/>
	<path class="st0" d="M161.6,23.1l-2.3,11.5l-3.8-0.8l2.2-11.1c0.6-2.8-0.7-4.8-3.3-5.3c-2-0.4-4.1,0.1-5.8,1.7L146,32l-3.8-0.8
		l3.8-18.7l3.6,0.7l-0.5,2.3c1.7-1.4,3.9-2,6.4-1.5C160,15,162.5,18.4,161.6,23.1z"/>
	<path class="st0" d="M177.9,39.6c-1.7,0.3-3.3,0.2-4.7-0.3c-3.8-1.2-6.1-4.8-4.7-9.2l2.7-8.3l-4.5-1.5l1-3.2l4.5,1.5l1.9-5.9
		l3.7,1.2l-1.9,5.9l7.2,2.3l-1,3.2l-7.2-2.3l-2.6,8.1c-0.8,2.6,0.4,4.4,2.6,5.1c1.2,0.4,2.6,0.5,4.1,0.1L177.9,39.6z"/>
	<path class="st0" d="M183.5,36.4c1.2,2.5,3.4,4.5,5.9,5.6c1.8,0.8,3.3,1,3.9-0.4c0.7-1.7-1.1-2.7-3.2-4.2c-2.5-1.8-5.2-4.1-3.5-8
		c1.8-4,5.8-3.8,9.1-2.3c1.9,0.9,3.6,2.1,4.8,3.7l-1.5,3.4c-1.2-1.5-3-3.1-4.8-3.9c-1.8-0.8-3.5-0.8-4.1,0.6
		c-0.7,1.5,0.9,2.5,2.8,3.9c3,2.1,5.7,4.4,4,8c-1.6,3.6-5.6,3.9-9.3,2.2c-2.3-1-4.4-2.7-5.7-4.9L183.5,36.4z"/>
</g>
</svg>
